<svg id="_x33_0" enable-background="new 0 0 64 64" height="512" viewBox="0 0 64 64" width="512" xmlns="http://www.w3.org/2000/svg"><g><g><g><path d="m32 2c7.76 0 13.71 3.01 12.72 13.69-1.15-1.22-5.82-5.69-12.72-5.69s-11.57 4.47-12.72 5.69c-.99-10.68 4.96-13.69 12.72-13.69z" fill="#ffeaa7"/></g><g><path d="m56 60c-7 2-14-3-14-3l-2 5c-2.9-2.05-5.57-4.24-8-6.54 2.38-2.24 4.53-4.58 6.44-6.98l.56.46c8.63 7.03 17 11.06 17 11.06z" fill="#fcd770"/></g><g><path d="m36 2c3.91 0 8.7 2.84 11 6 1.94 2.66 3 6.31 3 12 0 8.61-3.95 18.97-11.56 28.48-1.91 2.4-4.06 4.74-6.44 6.98-2.43 2.3-5.1 4.49-8 6.54l-2-5s-7 5-14 3c0 0 8.74-4.21 17.56-11.51 2.18-1.81 4.37-3.81 6.44-5.99 4.25-4.48 7.97-9.69 10-15.5.24-.69.46-1.35.67-2 1.15-3.61 1.81-6.69 2.05-9.31.99-10.68-4.96-13.69-12.72-13.69z" fill="#fcd770"/></g><g><path d="m32 2c-7.76 0-13.71 3.01-12.72 13.69.24 2.62.9 5.7 2.05 9.31.21.65.43 1.31.67 2 2.03 5.8 5.75 11.02 10 15.5-2.07 2.18-4.26 4.18-6.44 5.99-4.52-5.65-7.75-11.59-9.62-17.3-1.29-3.9-1.94-7.69-1.94-11.19 0-5.69 1.06-9.34 3-12 2.3-3.16 7.09-6 11-6z" fill="#fcd770"/></g></g><path d="m53.329 42.893 3.51-19.893h5.161v-2h-6.839l-2.49 14.107-2.599-7.277c.606-2.647.928-5.271.928-7.83 0-5.6-1.014-9.601-3.192-12.589-2.296-3.151-7.341-6.411-11.808-6.411h-4-4c-4.467 0-9.512 3.26-11.808 6.411-2.178 2.988-3.192 6.989-3.192 12.589 0 3.566.652 7.345 1.885 11.182l-1.586 4.758-2.46-13.94h-8.839v2h7.161l3.54 20.06 3.281-9.842c1.897 4.767 4.66 9.558 8.172 14.089-8.364 6.766-16.441 10.721-16.588 10.792l-2.367 1.141 2.526.722c5.808 1.659 11.492-1.111 13.794-2.471l2.022 5.057 1.035-.73c2.637-1.862 5.118-3.874 7.428-5.997 2.322 2.135 4.808 4.155 7.419 5.997l1.035.729 2.022-5.056c2.303 1.358 7.984 4.13 13.794 2.471l2.526-.723-2.367-1.141c-.082-.039-8.232-4.002-16.586-10.758 4.266-5.467 7.455-11.318 9.306-17.135zm-31.411-36.067c1.827-2.574 5.125-3.826 10.082-3.826s8.255 1.252 10.082 3.826c1.165 1.642 1.743 3.868 1.742 6.658-2.249-1.878-6.347-4.484-11.824-4.484s-9.575 2.606-11.824 4.484c-.001-2.79.578-5.016 1.742-6.658zm10.076 34.181c-4.313-4.708-7.366-9.526-9.05-14.337-.08-.227-.149-.446-.226-.67h1.664l3.72 7.438 5.947-14.867 3.301 7.429h3.932c-.076.224-.146.442-.226.67-1.857 5.307-5.195 10.127-9.062 14.337zm9.935-17.007h-3.279l-4.698-10.571-6.053 15.132-2.281-4.561h-3.547c-.907-2.958-1.492-5.611-1.746-7.946 1.46-1.442 5.709-5.054 11.675-5.054s10.215 3.612 11.674 5.054c-.253 2.335-.838 4.988-1.745 7.946zm-26.929-4c0-5.155.892-8.781 2.808-11.411.531-.729 1.191-1.424 1.935-2.063-1.284 2.268-1.78 5.197-1.5 8.82-.002.002-.009.011-.011.013l.013.011c.263 3.371 1.195 7.341 2.811 11.96 1.786 5.104 5.011 10.19 9.559 15.131-1.593 1.627-3.252 3.152-4.921 4.569-6.809-8.801-10.694-18.571-10.694-27.03zm9.454 40.442-1.999-4.993-1.036.736c-.056.04-4.875 3.406-10.237 3.281 7.144-3.924 25.963-15.57 31.761-32.137 1.617-4.619 2.549-8.589 2.811-11.96l.013-.011c-.001-.002-.009-.01-.011-.013.279-3.623-.217-6.552-1.5-8.82.744.639 1.404 1.334 1.935 2.063 1.917 2.631 2.809 6.257 2.809 11.412 0 11.286-7.601 28.037-24.546 40.442zm28.391-.976c-5.363.118-10.208-3.24-10.265-3.28l-1.037-.737-1.998 4.994c-2.129-1.56-4.165-3.238-6.086-4.999 1.836-1.783 3.551-3.638 5.134-5.547 5.587 4.517 11.09 7.818 14.252 9.569z"/></g></svg>