<svg id="_x33_0" enable-background="new 0 0 64 64" height="512" viewBox="0 0 64 64" width="512" xmlns="http://www.w3.org/2000/svg"><g><g><g><path d="m36 48c-.62 0-1.25.78-1.63 1.37l-.37-.37v-8h5.89 4.11v21h-10v-6l-.01-.67c2.67-.03 4.84-.21 6.01-.33.52-.05 1-.47 1-1v-3c0-.55-.45-1-1-1h-2v-1c0-.5-.5-1-1-1z" fill="#d3a06c"/></g><g><path d="m48.11 41h13.89v21h-18v-21z" fill="#cf9e76"/></g><g><path d="m48 48h10v7h-10z" fill="#b4dd7f"/></g><g><path d="m12 48c2.89 4.82 9.71 6.59 16 7.13v6.87h-18v-23c0 6 2 9 2 9z" fill="#e6e9ed"/></g><g><path d="m18 45-6 3s-2-3-2-9c0-3.68 2.26-5.48 4-6.32 1.1-.53 2-.68 2-.68s2.36-.39 4.98.13c3.3.65 7.02 2.74 7.02 8.87v8l-.08.62c-8.53-1.16-9.92-4.62-9.92-4.62z" fill="#e6e9ed"/></g><g><path d="m19 11c-5 0-5 6-5 6s-3 0-3 3 3 3 3 3v5s-1-1-5-3c-3.63-1.82-3.97-6.11-3.99-6.88-1.51-.37-3.01-1.62-3.01-5.12 0-8 11-8 11-8l.01.01c.95-1.64 3.22-3.01 7.99-3.01 10 0 12 6 8 10-.69.69-1.45 1.21-2.22 1.57-3.68 1.71-7.78-.09-7.78-2.57z" fill="#656d78"/></g><g><path d="m62 16v11l-11-2v-6z" fill="#75b1f2"/></g><g><path d="m39 26c-.22.04-.44.02-.64-.05-.77-.24-1.39-1.13-1.36-1.95.09-2.65.83-7 5-7 6 0 9 2 9 2v6c-.72.2-1.39.38-2 .52-2.3.54-3.91.67-5 .5-.99-.15-1.56-.55-1.82-1.11l-.18.09z" fill="#f0d0b4"/></g><g><path d="m28 55.13c-6.29-.54-13.11-2.31-16-7.13l6-3s1.39 3.46 9.92 4.62c1.72.24 3.73.38 6.08.38 0 0 .14-.28.37-.63.38-.59 1.01-1.37 1.63-1.37h1c.5 0 1 .5 1 1v1h2c.55 0 1 .45 1 1v3c0 .53-.48.95-1 1-1.17.12-3.34.3-6.01.33-1.82.03-3.87-.02-5.99-.2z" fill="#f0d0b4"/></g><g><path d="m27 26v1c0 1.25-.76 2.03-2 2-1.12-.02-2.55-.14-3.86-.57l-.14.57v3l-.02.13c-2.62-.52-4.98-.13-4.98-.13s-.9.15-2 .68v-4.68-5s-3 0-3-3 3-3 3-3 0-6 5-6c0 2.48 4.1 4.28 7.78 2.57l.22.43v6s2 1 2 2-2 1-2 1v2z" fill="#f0d0b4"/></g><g><path d="m38.34 26 .02-.05c.2.07.42.09.64.05l3-1 .18-.09c.26.56.83.96 1.82 1.11v2.98h-3v4h6v4h-3v4h-4.11c-2.9-1.49-4.89-4.51-4.89-8 0-2.83 1.3-5.35 3.34-7z" fill="#fcd770"/></g><g><path d="m44 26.02c1.09.17 2.7.04 5-.5 2.41 1.61 4 4.36 4 7.48 0 3.49-1.99 6.51-4.89 8h-4.11v-4h3v-4h-6v-4h3z" fill="#fcd770"/></g></g><g><path d="m24.895 18.447-1.789-.895c-.472.941-1.248.746-1.668.548l-.885 1.793c.423.211.971.358 1.548.358 1.012.001 2.117-.451 2.794-1.804z"/><path d="m59 56v-9h-12v9zm-10-4.88 2.057 2.88h-2.057zm.943-2.12h2.543l3.571 5h-2.543zm7.057 2.88-2.057-2.88h2.057z"/><path d="m63 14.691-11.861 3.235c-1.054-.568-4.102-1.926-9.139-1.926-3.686 0-5.816 2.829-5.999 7.964-.026.738.286 1.5.81 2.091-1.796 1.856-2.811 4.325-2.811 6.945 0 2.686 1.067 5.164 2.879 7h-3.879v8.988c-1.479-.027-2.809-.112-4-.242v-7.746c0-3.362-1.05-5.957-3.119-7.709-1.173-.994-2.54-1.594-3.881-1.951v-1.66c.89.184 1.877.295 2.977.32.03.001.061.001.09.001.833 0 1.551-.272 2.08-.789.558-.545.853-1.311.853-2.212v-3.094c1.061-.208 2-.78 2-1.906 0-1.173-1.192-2.097-2-2.588v-5.379c.592-.355 1.168-.787 1.707-1.326 2.072-2.072 2.751-4.657 1.815-6.915-1.261-3.045-5.096-4.792-10.522-4.792-4.18 0-7.025 1.022-8.507 3.014-4.248.145-11.493 2.142-11.493 8.986 0 2.527.726 4.332 2.157 5.363.291.21.595.362.903.49.19 1.657 1.002 5.296 4.492 7.041 2.654 1.326 3.932 2.192 4.447 2.578v3.597c-2.021 1.165-4 3.328-4 6.93v24h20v-6.808c1.383.094 2.731.135 4 .139v6.67h11 1 18v-23h-11.878c1.812-1.836 2.879-4.314 2.879-7 0-2.631-1.04-5.106-2.834-6.953l11.834 2.151zm-21 3.309c4.325 0 7.002 1.092 8 1.59v4.647c-4.877 1.308-6.314.79-6.711.493-.143-.108-.289-.279-.287-.79.208-.243 1.521-.275 2.757.03l.483-1.94c-.513-.128-3.133-.713-4.46.324-.505.394-.782.979-.782 1.646 0 .1.025.175.032.268l-2.263.755c-.002 0-.004 0-.005 0-.098 0-.225-.06-.35-.166-.25-.212-.424-.558-.415-.822.144-4.004 1.489-6.035 4.001-6.035zm-6 15c0-2.307.988-4.463 2.708-5.983.02.001.041.006.061.006.144 0 .286-.014.428-.042l2.646-.875c.081.078.163.162.242.221.257.194.57.338.915.458v1.215h-3v6h6v2h-6v2h3v2h-2.843c-2.566-1.409-4.157-4.053-4.157-7zm4 18 .012 2.948c-.011.017-.059.052-.11.057-4.925.487-20.896 1.453-26.422-5.627l4.163-2.081c1.296 1.624 5.221 4.703 16.357 4.703l.616-.001.277-.55c.332-.657.902-1.377 1.107-1.449h1v2zm-30.553-26.895c-2.24-1.12-3.022-3.41-3.297-4.846.016 0 .033.003.048.003 1.153 0 2.051-.292 2.117-.313l-.633-1.897c-.021.006-2.039.64-3.357-.311-.879-.635-1.325-1.893-1.325-3.741 0-5.35 5.753-6.607 8.534-6.904-.348 1.612.019 3.248.571 4.351l1.789-.895c-.419-.838-.887-2.648.019-4.113.986-1.595 3.437-2.439 7.087-2.439 4.509 0 7.752 1.33 8.675 3.558.615 1.484.099 3.254-1.382 4.735-2.097 2.097-4.832 2.292-6.615 1.553-1.035-.428-1.678-1.136-1.678-1.846 0-1.84.857-1.989 1.028-2l-.028-2c-.926 0-2.579.678-2.926 3.07-3.502.49-4.77 3.734-5.024 6.044-1.459.343-3.05 1.492-3.05 3.886 0 2.366 1.555 3.517 3 3.874v2.188c-.802-.5-1.941-1.151-3.553-1.957zm4.553-2.105c-.334 0-2-.096-2-2 0-1.827 1.536-1.993 2-2h1v-1c0-.189.046-4.304 3.187-4.917.382 1.1 1.34 2.037 2.726 2.611.823.341 1.794.538 2.825.538.734 0 1.499-.101 2.263-.319l.001 5.704.551.277c.542.273 1.128.71 1.355.969-.23.075-.602.135-.908.137h-1v3.127c-.929.078-2.154.039-2.71-.416-.144-.119-.29-.295-.29-.711h-2c0 .928.354 1.709 1.023 2.258.881.722 2.168.904 3.242.904.258 0 .503-.011.727-.027-.015.223-.073.478-.244.647-.194.189-.508.217-.726.219-2.264-.052-5.165-.519-6.129-2.448l-1.789.895c.575 1.15 1.546 2.021 2.895 2.615v1.903c-2.23-.256-4.029.025-4.164.048-.255.042-.538.11-.835.196v-9.21zm2.163 10.987c.054-.008 5.294-.831 8.432 1.835 1.595 1.356 2.405 3.434 2.405 6.178v7.467c-5.034-.867-7.046-2.568-7.748-3.391l-.42-.631c-.019-.027-1.832-2.778-1.832-5.445h-2c0 2.213.956 4.377 1.599 5.583l-4.168 2.084c-.54-1.198-1.431-3.766-1.431-7.667 0-5.059 4.957-5.978 5.163-6.013zm10.837 28.013h-16v-12.726c.091.161.154.261.168.281l.489.734.018-.009c3.141 4.316 9.354 6.103 15.325 6.74zm16 0h-8v-4.692c2.126-.055 3.917-.195 5.099-.313 1.066-.105 1.901-.981 1.901-1.995v-3c0-1.103-.897-2-2-2h-1c0-1.047-.953-2-2-2h-1c-.36 0-.692.12-1 .299v-5.299h8zm18 0h-16v-19h16zm-9-28c0 2.947-1.591 5.591-4.157 7h-2.843v-2h3v-6h-6v-2h6v-2h-3v-.916c.005 0 .008.001.013.001 1.027 0 2.286-.176 3.75-.495 2.028 1.509 3.237 3.87 3.237 6.41zm9-7.198-9-1.636v-4.402l9-2.455z"/></g></g></svg>