<svg id="_x33_0" enable-background="new 0 0 64 64" height="512" viewBox="0 0 64 64" width="512" xmlns="http://www.w3.org/2000/svg"><g><g><g><path d="m26 53v9h-19v-14.69c1.23 1.31 2.87 2.36 4.81 3.16 3.15 1.31 7.09 1.95 11.34 1.95z" fill="#b4dd7f"/></g><g><path d="m30 47.03c-2.48.05-9.06-.16-13.94-3.13l-.06.1-4 6-.19.47c-1.94-.8-3.58-1.85-4.81-3.16-.91-.97-1.59-2.07-2-3.31-3-9 7-12 7-12 4 5 8 0 8 0h14.12c.23.04.45.07.66.07-6.43 4.22-4.78 14.93-4.78 14.93z" fill="#b4dd7f"/></g><g><path d="m58 62h-26c0-8 3-11 3-11l-.03-.12c1.15-.29 2.29-.63 3.41-1.01l.62.13s5 6 14 4c1.11-.25 2.09-.62 2.94-1.1l.06.1c2 4 2 9 2 9z" fill="#ff826e"/></g><g><path d="m58 36c1.53 2.3 2.48 5.19 2.55 7.99l-.55.01h-6l-.31.01c0 .95-.18 1.97-.69 2.99-2.08 4.16-7.2 2.32-9.19 1.4l.19-.4v-10c1.8 0 2.52-1.08 2.81-1.95.18-.54.71-.89 1.28-.83.91.09 2.13 0 2.77-1 .28.33.79.58 1.14.78l3 1.74c.53.32 1.19.35 1.74.07z" fill="#ff826e"/></g><g><path d="m38 45-3 1v-2h-1c-1 0-1.8.4-2 1l-1 2s-.37.03-1 .03v-.03s-1.65-10.71 4.78-14.93h.01c.65-.43 1.38-.79 2.21-1.07l.15.19c-.41.72-.71 1.69-.15 2.81.63 1.27 2.07 1.33 3.04 1.21.51-.07.97.25 1.12.74.26.88.96 2.05 2.84 2.05v10l-.19.4c-.51-.23-.81-.4-.81-.4s0-1-1-2-3 0-3 0c0-.54-.48-1.13-1-1z" fill="#ff826e"/></g><g><path d="m50 30c1 1 1 3 1 3-.5.5-.43.9-.14 1.22-.64 1-1.86 1.09-2.77 1-.57-.06-1.1.29-1.28.83-.29.87-1.01 1.95-2.81 1.95-1.88 0-2.58-1.17-2.84-2.05-.15-.49-.61-.81-1.12-.74-.97.12-2.41.06-3.04-1.21-.56-1.12-.26-2.09.15-2.81.33-.56.73-.98.85-1.19l.03-.06c.54.26 1.19.49 1.97.67v.39s0 3 4 3 4-3 4-3v-.39c.78-.18 1.43-.41 1.97-.67z" fill="#fc6e51"/></g><g><path d="m36 23s-2.38 4.75 2.03 6.94l-.03.06c-.12.21-.52.63-.85 1.19l-.15-.19c-.83.28-1.56.64-2.21 1.07 0 0 0 0-.01 0-.21 0-.43-.03-.66-.07-1.3-.24-2.69-1.14-2.12-4 0 0-2-1-2-4s2-4 2-4-4-4-1-8 6-5 14-5 13 4 11 11c0 0 2 1 2 4s-2 4-2 4 1 1 1 3-2 3-2 3l-.2.4-.8-.4c-.51-.34-1.66-.51-2 0l-1 1s0-2-1-3l-.03-.06c4.41-2.19 2.03-6.94 2.03-6.94l-.03-.03c.64-.63 1.03-1.51 1.03-2.47 0-1.44-.88-2.69-2.13-3.22l.13-.28c-1-5-6-4-6-4 1 2 0 3 0 3-1-1-6-3-6-3-2 1-2 4-2 4l.13.28c-1.25.53-2.13 1.78-2.13 3.22 0 .96.39 1.84 1.03 2.47z" fill="#e6e9ed"/></g><g><path d="m27 11.2c-2.71 2.46-10 1.8-10 1.8s-3.16 0-4.89-1.15l-.11.15v5s-3 0-3 3 3 3 3 3v4s-9-1-9-13 15-11 15-11 10 1 10 6c0 .93-.38 1.65-1 2.2z" fill="#656d78"/></g><g><path d="m58 36-1.26.81c-.55.28-1.21.25-1.74-.07l-3-1.74c-.35-.2-.86-.45-1.14-.78-.29-.32-.36-.72.14-1.22l1-1c.34-.51 1.49-.34 2 0l.8.4 3.2 1.6c.52.31.5 1.66 0 2z" fill="#f0d0b4"/></g><g><path d="m50.87 17.28c1.25.53 2.13 1.78 2.13 3.22 0 .96-.39 1.84-1.03 2.47-.63.64-1.51 1.03-2.47 1.03-1.76 0-3.23-1.31-3.46-3.01-.03-.16-.04-.32-.04-.49 0-1.93 1.57-3.5 3.5-3.5.48 0 .95.1 1.37.28z" fill="#69d6f4"/></g><g><path d="m42 20.5c0 .17-.01.33-.04.49-.23 1.7-1.7 3.01-3.46 3.01-.96 0-1.84-.39-2.47-1.03-.64-.63-1.03-1.51-1.03-2.47 0-1.44.88-2.69 2.13-3.22.42-.18.89-.28 1.37-.28 1.93 0 3.5 1.57 3.5 3.5z" fill="#69d6f4"/></g><g><path d="m60 44 .55-.01c.1 3.6-1.24 7.05-4.61 8.91-.85.48-1.83.85-2.94 1.1-9 2-14-4-14-4l-.62-.13c.37-.12.62-.48.62-.87v-3s2-1 3 0 1 2 1 2 .3.17.81.4c1.99.92 7.11 2.76 9.19-1.4.51-1.02.69-2.04.69-2.99l.31-.01z" fill="#f0d0b4"/></g><g><path d="m35 44v2l3-1c.52-.13 1 .46 1 1v3c0 .39-.25.75-.62.87-1.12.38-2.26.72-3.41 1.01-3.95 1.02-8.01 1.54-11.82 1.54-4.25 0-8.19-.64-11.34-1.95l.19-.47 4-6 .06-.1c4.88 2.97 11.46 3.18 13.94 3.13.63 0 1-.03 1-.03l1-2c.2-.6 1-1 2-1z" fill="#f0d0b4"/></g><g><path d="m48 31s0 3-4 3-4-3-4-3v-.39c1.08.25 2.4.39 4 .39s2.92-.14 4-.39z" fill="#f0d0b4"/></g><g><path d="m36.03 22.97c.63.64 1.51 1.03 2.47 1.03 1.76 0 3.23-1.31 3.46-3.01l.04.01h4l.04-.01c.23 1.7 1.7 3.01 3.46 3.01.96 0 1.84-.39 2.47-1.03l.03.03s2.38 4.75-2.03 6.94c-.54.26-1.19.49-1.97.67-1.08.25-2.4.39-4 .39s-2.92-.14-4-.39c-.78-.18-1.43-.41-1.97-.67-4.41-2.19-2.03-6.94-2.03-6.94z" fill="#f0d0b4"/></g><g><path d="m38.5 17c-.48 0-.95.1-1.37.28l-.13-.28s0-3 2-4c0 0 5 2 6 3 0 0 1-1 0-3 0 0 5-1 6 4l-.13.28c-.42-.18-.89-.28-1.37-.28-1.93 0-3.5 1.57-3.5 3.5 0 .17.01.33.04.49l-.04.01h-4l-.04-.01c.03-.16.04-.32.04-.49 0-1.93-1.57-3.5-3.5-3.5z" fill="#f0d0b4"/></g><g><path d="m20.01 28.94-.01.06v3s-4 5-8 0v-5-4s-3 0-3-3 3-3 3-3v-5l.11-.15c1.73 1.15 4.89 1.15 4.89 1.15s7.29.66 10-1.8v10.8s0 7-6 7c-.35 0-.68-.02-.99-.06z" fill="#f0d0b4"/></g></g><g><path d="m19.447 18.45-.895-1.789c-1.51.754-3.095.004-3.111-.003l-.889 1.792c.066.033 1.122.549 2.528.549.726 0 1.544-.137 2.367-.549z"/><path d="m21.441 16.658-.889 1.792c.066.033 1.122.549 2.528.549.725 0 1.543-.137 2.367-.549l-.895-1.789c-1.51.755-3.095.005-3.111-.003z"/><path d="m17.555 23.168-1.109 1.664c1.196.797 2.384 1.063 3.438 1.063 2.042 0 3.576-.999 3.672-1.063l-1.109-1.664c-.026.017-2.474 1.613-4.892 0z"/><path d="m60.726 48.905c1.518-3.777.876-8.854-1.545-12.863.14-.329.212-.716.202-1.134-.02-.803-.336-1.446-.936-1.803l-1.934-.967c.701-.633 1.487-1.671 1.487-3.138 0-1.238-.323-2.165-.647-2.783.734-.711 1.647-2.033 1.647-4.217 0-2.402-1.104-3.762-1.861-4.412.661-2.872.227-5.421-1.272-7.407-2.034-2.696-5.893-4.181-10.867-4.181-8.439 0-11.621 1.161-14.8 5.4-2.378 3.17-1.062 6.549.367 8.462-.719.728-1.567 2.033-1.567 4.138 0 2.459 1.158 3.826 1.915 4.457-.118 1 .006 1.84.33 2.543h-10.245v-1c5.537 0 7-5.233 7-8v-10.408c.643-.729 1-1.61 1-2.592 0-5.838-10.456-6.951-10.934-6.998-.332-.022-8.149-.49-12.784 3.847-2.178 2.038-3.282 4.78-3.282 8.151 0 10.446 6.572 13.16 9 13.806v3.49c-1.484.58-4.902 2.214-6.594 5.473-1.16 2.234-1.279 4.773-.354 7.547.412 1.237 1.072 2.356 1.948 3.364v15.32h21v-9.753c1.953-.163 3.938-.45 5.917-.86-.904 1.816-1.917 4.9-1.917 9.613v1h28v-1c0-.202-.023-4.722-1.772-8.729 1.57-1.074 2.763-2.535 3.498-4.366zm-6.109-5.905c-.33-2.566-1.727-4.479-1.817-4.6l-1.6 1.2c.026.035 2.609 3.545.905 6.953-.484.969-1.178 1.579-2.12 1.866-1.634.497-3.639-.064-4.985-.593v-8.941c1.325-.291 2.31-1.167 2.759-2.518.033-.1.128-.153.231-.15 1.217.129 2.226-.105 2.968-.654.156.093.309.178.446.252l3.083 1.786c.446.268.944.402 1.444.402.43 0 .86-.1 1.259-.299l.475-.303c.996 1.751 1.609 3.691 1.807 5.6h-4.855zm-15.059 1.73c-.106-.14-.226-.269-.363-.377-.421-.328-.945-.445-1.511-.302l-.803.267c-.204-1.196-.314-3.471.826-4.612l-1.414-1.414c-1.305 1.305-1.569 3.217-1.536 4.707h-.757c-1.412 0-2.547.627-2.92 1.604l-.238.476c-.128-3.005.173-9.065 4.251-11.997.233-.003.438-.016.611-.034.038.44.156.906.402 1.397.688 1.376 2.132 1.999 4.095 1.789.428 1.427 1.429 2.348 2.8 2.648v6.748c-.094-.113-.18-.226-.293-.34-.932-.928-2.245-.807-3.15-.56zm-26.314 5.206 3.131-4.697c6.205 3.308 14.248 2.792 14.696 2.758l.568-.04 1.255-2.51.053-.127c.04-.082.378-.32 1.053-.32v2.388l4.001-1.337.057 2.876c-8.69 2.942-18.29 3.28-24.814 1.009zm13.756-8.936h1.967c-.247 2.061-.174 3.905-.081 5.029-.549-.011-1.183-.037-1.886-.089zm19.371-27.071c.304.02.644.066.991.161 1.073.292 1.827.928 2.284 1.925-.05-.002-.096-.015-.146-.015-2.31 0-4.197 1.756-4.449 4h-2.101c-.252-2.244-2.139-4-4.449-4-.13 0-.253.028-.38.038.129-.637.399-1.436.982-1.918 1.978.814 4.647 2.042 5.191 2.586l.706.708.707-.707c.428-.428.921-1.408.664-2.778zm3.129 9.071c-1.378 0-2.5-1.122-2.5-2.5s1.122-2.5 2.5-2.5 2.5 1.122 2.5 2.5-1.122 2.5-2.5 2.5zm-11-5c1.378 0 2.5 1.122 2.5 2.5s-1.122 2.5-2.5 2.5-2.5-1.122-2.5-2.5 1.122-2.5 2.5-2.5zm-1.968 6.527c.597.293 1.259.473 1.968.473 1.953 0 3.602-1.258 4.224-3h2.553c.621 1.742 2.271 3 4.224 3 .708 0 1.37-.179 1.966-.472.211.862.329 2.085-.306 3.113-.955 1.543-3.431 2.359-7.161 2.359-3.723 0-6.197-.813-7.154-2.35-.645-1.034-.527-2.259-.314-3.123zm13.449 8.155c-.331.49-.375.941-.329 1.259.003.02.011.037.014.056-.344.209-.823.295-1.467.23-1.03-.117-2.012.525-2.339 1.509-.286.863-.877 1.264-1.86 1.264-1.011 0-1.61-.425-1.884-1.338-.289-.966-1.22-1.569-2.207-1.448-1.048.136-1.728-.087-2.015-.661-.458-.917-.064-1.659.484-2.385.202.076.43.134.647.199.17 1.431 1.345 3.633 4.975 3.633s4.805-2.202 4.975-3.634c.211-.063.432-.12.629-.193.235.486.34 1.097.377 1.509zm-8.731-.853c.846.108 1.754.171 2.75.171.995 0 1.902-.063 2.747-.171-.323.551-1.06 1.171-2.747 1.171-1.691 0-2.427-.612-2.75-1.171zm16.104 3.398-1.1.706c-.239.106-.513.088-.752-.056l-3.021-1.754-.125-.067c-.147-.08-.442-.24-.623-.375l1.001-1.001c.176-.022.547.044.71.153l3.922 1.967c.027.122.021.315-.012.427zm-24.647-15.934c-.138-.138-3.358-3.424-.907-6.693 2.741-3.654 5.455-4.6 13.2-4.6 4.331 0 7.623 1.202 9.27 3.385 1.242 1.646 1.5 3.779.769 6.34l-.207.781.708.382c.059.032 1.46.814 1.46 3.112s-1.401 3.08-1.447 3.105l-1.186.612.915.979c.029.031.718.785.718 2.304 0 1.342-1.438 2.101-1.447 2.105l.035.071-.093-.047c-.407-.253-.963-.419-1.504-.449-.521-.023-.964.085-1.315.298-.079-.246-.183-.492-.305-.734.614-.438 1.119-.951 1.491-1.552 1.295-2.096.672-4.487.274-5.563.538-.741.864-1.645.864-2.629 0-1.571-.812-2.953-2.036-3.758-.631-3.034-2.56-4.168-4.076-4.582-1.586-.432-3.023-.152-3.084-.141l-1.284.257.585 1.171c.19.38.283.698.319.957-1.731-.985-4.397-2.07-5.053-2.333l-.417-.167-.402.201c-2.175 1.088-2.496 3.82-2.544 4.651-1.208.808-2.008 2.184-2.008 3.744 0 .984.326 1.888.864 2.629-.398 1.076-1.021 3.468.274 5.563.339.549.78 1.03 1.322 1.443-.709.253-1.353.561-1.94.914-.457-.056-.92-.195-1.224-.501-.434-.438-.541-1.229-.316-2.353l.131-.733-.651-.351c-.059-.031-1.46-.813-1.46-3.111s1.401-3.08 1.447-3.105l1.241-.621zm-11.707 8.707c-1.305 0-2.455-.286-3.515-.875l-.971 1.749c.787.437 1.614.729 2.485.911v1.829c-.477.497-1.702 1.608-3.148 1.608-.003 0-.006 0-.009 0-.976-.004-1.931-.543-2.843-1.592v-9.63h-1c-.334 0-2-.096-2-2 0-1.827 1.537-1.993 2-2h1v-4.619c1.705.578 3.565.613 3.91.615.667.06 5.74.454 9.09-1.012v9.013c0 .246-.083 6.003-4.999 6.003zm-17-14c0-2.792.889-5.042 2.643-6.686 3.995-3.743 11.221-3.322 11.257-3.319 2.531.256 9.1 1.653 9.1 5.005 0 .585-.209 1.049-.659 1.46-1.943 1.775-7.337 1.717-9.34 1.54-1.632-.003-5.001-.496-5.001-2 0-.378.118-.458.169-.493.578-.394 2.38-.008 3.46.421l.742-1.857c-.593-.237-3.637-1.362-5.324-.221-.477.324-1.047.96-1.047 2.15 0 .978.397 1.716 1 2.274v3.852c-1.445.357-3 1.508-3 3.874s1.555 3.517 3 3.874v1.881c-2.228-.685-7-3.156-7-11.755zm2.176 23.701c1.358-2.627 4.262-4.025 5.516-4.526 1.259 1.359 2.656 2.048 4.16 2.048 2.187 0 3.897-1.501 4.593-2.223h11.735c-1.538 1.741-2.406 3.896-2.873 6h-2.307v-2h-2v8.733c-4.21-.56-9.555-2.108-12.152-6.263l-1.696 1.061c.936 1.497 2.153 2.694 3.521 3.658l-3.319 4.978c-.071-.034-.15-.063-.22-.098-2.696-1.34-4.441-3.151-5.185-5.385-.746-2.237-.669-4.249.227-5.983zm18.824 23.299h-17v-11.491c.675.49 1.421.942 2.244 1.351 3.422 1.7 7.976 2.55 12.94 2.55.6 0 1.206-.014 1.816-.039zm31.956 0h-23.939c.22-6.459 2.518-9.103 2.681-9.282.928-.248 1.851-.519 2.763-.823.939.999 4.687 4.518 10.891 4.518 1.198 0 2.487-.132 3.865-.438.803-.179 1.547-.43 2.245-.732 1.059 2.519 1.393 5.306 1.494 6.757zm-4.173-7.977c-7.567 1.684-12.023-2.594-12.866-3.499.048-.168.083-.342.083-.524v-2.313c.491-.142 1.064-.207 1.293.02.667.667.706 1.29.707 1.293v.581l.504.288c.15.085 3.09 1.738 6.097 1.738.66 0 1.323-.08 1.96-.273 1.478-.448 2.6-1.419 3.333-2.887.414-.829.641-1.653.739-2.447h4.89c-.063 1.119-.265 2.194-.653 3.159-1.013 2.523-3.118 4.205-6.087 4.864z"/><path d="m47.555 27.832-1.109-1.664c-2.389 1.594-4.793.063-4.895-.003l-1.105 1.667c.096.064 1.63 1.063 3.672 1.063 1.052 0 2.241-.266 3.437-1.063z"/></g></g></svg>