<svg id="_x33_0" enable-background="new 0 0 64 64" height="512" viewBox="0 0 64 64" width="512" xmlns="http://www.w3.org/2000/svg"><g><g><g><path d="m39.98 11.99c-.45.58-1.34 1.01-2.98 1.01-5 0-2-3-5-4-2.85-.95-4 1-4 1l-.02.12c-.3-.08-.62-.12-.98-.12-3 0-3 2-3 2s-2.41 11.24 5 13.58v4.42s-4.73.36-9.14 2.84c-.32-.36-1.09-1.3-1.86-2.84-1-2 3-4 3-6s-4-3-4-6 5-12 5-12 2-4 10-4 10 4 10 4 5 9 5 12-4 4-4 6 4 4 3 6c-.77 1.54-1.54 2.48-1.86 2.84-4.41-2.48-9.14-2.84-9.14-2.84v-4.42c7.41-2.34 5-13.58 5-13.58z" fill="#656d78"/></g><g><path d="m40.56 50 .15.4c9.7-3.84 3.37-10.37 2.41-11.29-.03 1.05-.34 2.33-1.12 3.89-1.01 2.02-1.45 4.49-1.44 7zm3.58-17.16c2.9 1.64 5.67 4.19 6.86 8.16 2.31 7.69-3.41 13.54-9.62 14.76l.05.24c.77 2.62 2.57 6 2.57 6h-12-12s1.8-3.38 2.57-6l.05-.24c-6.21-1.22-11.93-7.07-9.62-14.76 1.19-3.97 3.96-6.52 6.86-8.16 4.41-2.48 9.14-2.84 9.14-2.84s0 2 3 2 3-2 3-2 4.73.36 9.14 2.84zm-20.7 17.16c.01-2.51-.43-4.98-1.44-7-.78-1.56-1.09-2.84-1.12-3.89-.96.92-7.29 7.45 2.41 11.29z" fill="#b4dd7f"/></g><g><path d="m35.07 36c3 0 6 4 2 7s-5.07 4-5.07 4-1.07-1-5.07-4-1-7 2-7c1.07 0 3 2 3 2s2.07-2 3.14-2z" fill="#ff826e"/></g><g><path d="m39 51 .99 4.96c-.33.03-.66.04-.99.04-2.1 0-3.38-.28-4.11-.54-.54-.19-.89-.71-.89-1.28v-1.82c0-.75.61-1.36 1.36-1.36h.64c1-2 3 0 3 0z" fill="#f0d0b4"/></g><g><path d="m30 52.36v1.82c0 .57-.35 1.09-.89 1.28-.73.26-2.01.54-4.11.54-.33 0-.66-.01-.99-.04l.99-4.96s2-2 3 0h.64c.75 0 1.36.61 1.36 1.36z" fill="#f0d0b4"/></g><g><path d="m35 25.58v4.42s0 2-3 2-3-2-3-2v-4.42c.86.27 1.86.42 3 .42s2.14-.15 3-.42z" fill="#f0d0b4"/></g><g><path d="m40 12s2.41 11.24-5 13.58c-.86.27-1.86.42-3 .42s-2.14-.15-3-.42c-7.41-2.34-5-13.58-5-13.58s0-2 3-2c.36 0 .68.04.98.12l.02-.12s1.15-1.95 4-1c3 1 0 4 5 4 1.64 0 2.53-.43 2.98-1.01z" fill="#f0d0b4"/></g></g><g><path d="m35.072 35c-.997 0-2.255.894-3.122 1.631-.823-.741-2.018-1.631-3.022-1.631-2.038 0-4.062 1.462-4.708 3.4-.647 1.941.121 3.909 2.108 5.399 3.873 2.905 4.98 3.923 4.991 3.933l.682.629.68-.629c.011-.01 1.118-1.027 4.991-3.933 1.987-1.49 2.756-3.458 2.108-5.399-.646-1.938-2.67-3.4-4.708-3.4zm1.401 7.2c-2.399 1.799-3.759 2.889-4.473 3.482-.714-.594-2.073-1.684-4.473-3.482-1.29-.969-1.778-2.063-1.41-3.167.38-1.14 1.614-2.033 2.805-2.033.366.027 1.456.835 2.286 1.694l.694.718.72-.692c.908-.874 2.078-1.694 2.45-1.72 1.196 0 2.431.893 2.811 2.033.368 1.104-.12 2.198-1.41 3.167z"/><path d="m25.293 16.707c.619.619 1.643 1.177 2.776 1.177.859 0 1.781-.32 2.638-1.177l-1.414-1.414c-1.181 1.18-2.282.293-2.592-.006z"/><path d="m38.707 16.707-1.414-1.414c-1.182 1.18-2.281.293-2.592-.006l-1.408 1.42c.619.619 1.643 1.177 2.776 1.177.86 0 1.782-.321 2.638-1.177z"/><path d="m28.293 21.707c.755.755 2.174 1.637 3.812 1.637 1.145 0 2.396-.431 3.603-1.637l-1.414-1.414c-2.205 2.204-4.352.229-4.59-.004z"/><path d="m51.958 40.713c-1.149-3.829-3.619-6.411-6.324-8.155.374-.526.817-1.223 1.261-2.111.858-1.717-.486-3.229-1.566-4.445-.624-.7-1.329-1.493-1.329-2.002 0-.44.687-1.033 1.351-1.606 1.18-1.018 2.649-2.285 2.649-4.394 0-3.168-4.602-11.541-5.105-12.447-.093-.186-2.374-4.553-10.895-4.553s-10.802 4.367-10.874 4.515c-.524.944-5.126 9.317-5.126 12.485 0 2.109 1.469 3.376 2.649 4.394.664.573 1.351 1.166 1.351 1.606 0 .509-.705 1.302-1.328 2.002-1.08 1.216-2.425 2.729-1.566 4.445.444.888.887 1.585 1.261 2.111-2.705 1.744-5.175 4.326-6.324 8.155-1.146 3.819-.517 7.616 1.771 10.691 1.808 2.43 4.572 4.227 7.557 5.065-.819 2.355-2.237 5.031-2.253 5.06l-.784 1.471h27.332l-.783-1.471c-.016-.029-1.434-2.703-2.253-5.06 2.985-.838 5.749-2.635 7.557-5.065 2.288-3.075 2.917-6.872 1.771-10.691zm-33.063-11.16c-.234-.469.38-1.217 1.272-2.222.901-1.014 1.833-2.061 1.833-3.331 0-1.357-1.04-2.254-2.045-3.12-1.006-.867-1.955-1.687-1.955-2.88 0-2.01 2.915-7.987 4.889-11.542.075-.141 1.924-3.458 9.111-3.458s9.036 3.317 9.126 3.485c1.959 3.528 4.874 9.505 4.874 11.515 0 1.193-.949 2.013-1.955 2.88-1.005.866-2.045 1.763-2.045 3.12 0 1.27.932 2.317 1.833 3.331.893 1.005 1.507 1.753 1.272 2.222-.439.878-.877 1.545-1.213 2.003-3.18-1.621-6.362-2.232-7.892-2.446v-2.836c1.214-.502 2.24-1.261 3.064-2.281 3.163-3.912 2.257-10.308 1.98-11.854.795-1.565-.045-3.375-.149-3.585l-1.789.895c.121.242.5 1.267.138 1.853-.28.45-1.077.698-2.244.698-2.079 0-2.179-.418-2.377-1.25-.199-.835-.5-2.097-2.307-2.698-2.41-.806-4.047.12-4.827.978-.16-.015-.319-.03-.489-.03-3.047 0-3.936 1.82-3.996 2.882-.185.923-1.441 7.938 1.932 12.11.824 1.02 1.85 1.779 3.064 2.281v2.836c-1.53.215-4.712.825-7.893 2.446-.336-.458-.773-1.124-1.212-2.002zm15.106.419c-.012.171-.16 1.028-2.001 1.028s-1.989-.857-2-1v-3.166c.631.106 1.295.166 2 .166s1.369-.06 2-.166zm-3.949-16.656 1.896-.633c-.034-.102-.613-1.773-2.139-2.828.444-.142 1.049-.182 1.874.093.752.251.827.569.994 1.266.337 1.41.948 2.786 4.323 2.786.873 0 1.615-.118 2.236-.341.248 2.216.383 6.47-1.731 9.081-1.214 1.499-3.067 2.26-5.505 2.26s-4.291-.761-5.506-2.261c-2.939-3.631-1.53-10.462-1.517-10.53l.021-.181c.013-.171.161-1.028 2.002-1.028 2.224 0 3.021 2.227 3.052 2.316zm-9.777 28.028c.192.651.451 1.345.831 2.104.753 1.506 1.179 3.382 1.291 5.454-1.919-.971-3.068-2.135-3.354-3.438-.328-1.496.443-3.02 1.232-4.12zm5.639 10.184c.288-.229.681-.459.903-.414.123.02.252.26.288.333l.277.553h1.257c.199 0 .361.162.361.361v1.821c0 .156-.087.288-.225.337-.59.21-1.686.458-3.555.477zm16.981-8.081c.379-.758.639-1.453.831-2.104.789 1.1 1.56 2.625 1.233 4.119-.286 1.303-1.435 2.467-3.354 3.438.11-2.071.537-3.947 1.29-5.453zm-4.808 8.084.693 3.465c-1.869-.019-2.965-.267-3.557-.478-.136-.047-.223-.179-.223-.335v-1.821c0-.2.162-.362.361-.362h1.257l.276-.553c.036-.073.165-.313.287-.333.206-.042.594.17.906.417zm10.495-1.321c-1.812 2.436-4.745 4.133-7.795 4.627l-.635-3.176c3.936-1.369 6.224-3.305 6.761-5.779.696-3.2-1.786-6.149-2.821-7.213-.041-.983-.278-1.776-.573-2.366-.753-1.505-1.939-2.131-2.072-2.197l-.895 1.789c.007.003.723.392 1.178 1.303.672 1.343.455 3.195-.625 5.355-.992 1.986-1.516 4.474-1.538 7.2-.117.041-.222.085-.342.125-.531-.398-1.403-.892-2.362-.738-.411.067-.951.276-1.41.86h-.091c-1.302 0-2.362 1.06-2.362 2.361v1.821c0 .998.624 1.891 1.551 2.22 1.108.397 2.605.598 4.449.598.556 0 1.113-.041 1.668-.113.486 1.456 1.178 3.011 1.71 4.113h-20.756c.532-1.102 1.224-2.658 1.71-4.113.555.072 1.112.113 1.668.113 1.844 0 3.341-.201 4.447-.597.929-.33 1.553-1.222 1.553-2.22v-1.821c0-1.302-1.06-2.362-2.361-2.362h-.091c-.459-.584-.999-.793-1.41-.86-.961-.154-1.831.34-2.362.738-.12-.04-.226-.084-.342-.125-.023-2.726-.546-5.214-1.538-7.2-2.445-4.891.248-6.496.563-6.663l-.459-.89-.447-.895c-.133.066-1.319.692-2.072 2.197-.295.59-.532 1.383-.573 2.366-1.035 1.064-3.517 4.013-2.821 7.213.537 2.473 2.825 4.409 6.761 5.779l-.635 3.176c-3.05-.494-5.983-2.191-7.795-4.627-1.345-1.808-2.689-4.822-1.46-8.923 2.35-7.834 11.542-9.777 14.318-10.19.443.937 1.502 1.904 3.724 1.904s3.281-.967 3.724-1.903c2.776.412 11.968 2.356 14.318 10.19 1.229 4.101-.115 7.115-1.46 8.923z"/><path d="m8 23.185h2v10.63h-2z" transform="matrix(.659 -.753 .753 .659 -18.375 16.506)"/><path d="m6.5 34.95h2v5.099h-2z" transform="matrix(.196 -.981 .981 .196 -30.743 37.493)"/><path d="m2 52h10v1.999h-10z" transform="matrix(.8 -.6 .6 .8 -30.393 14.793)"/><path d="m49.685 27.5h10.63v2h-10.63z" transform="matrix(.753 -.658 .658 .753 -5.166 43.242)"/><path d="m53.95 36.5h5.099v2h-5.099z" transform="matrix(.981 -.196 .196 .981 -6.257 11.809)"/><path d="m56 48h1.999v10h-1.999z" transform="matrix(.6 -.8 .8 .6 -19.597 66.815)"/></g></g></svg>