<svg id="_x33_0" enable-background="new 0 0 64 64" height="512" viewBox="0 0 64 64" width="512" xmlns="http://www.w3.org/2000/svg"><g><g><g><path d="m58 50-1 8h-18l-1-8h7 6z" fill="#aab2bd"/></g><g><path d="m45 46h6v4h-6z" fill="#969faa"/></g><g><path d="m52 30c0-6 5-10 5-17s-6-8-9-8-9 1-9 8 5 11 5 17c0 5-3 7-3 7l2.22 5 1.78 4h6l1.78-4 2.22-5s-3-2-3-7z" fill="#d3a06c"/></g><g><path d="m23 6c-5-3-14 0-14 0l1 4-.12.52c-4.43-1.07-6.88-3.52-6.88-3.52s2-5 15-5 17 5 17 5c-3.5.78-7.15 1.1-10.3 1.21l-.01-.21c.03-.6-.47-1.27-1.69-2z" fill="#f0d0b4"/></g><g><path d="m24.69 8 .01.21c-4.96.16-8.7-.21-8.7-.21v2.95c-.66.03-1.33.05-2 .05-1.52 0-2.9-.19-4.12-.48l.12-.52-1-4s9-3 14 0c1.22.73 1.72 1.4 1.69 2z" fill="#ffeaa7"/></g><g><path d="m16 28 .19.51c-1.36.51-2.54 1.38-3.43 2.49h-5.76l-4-24s2.45 2.45 6.88 3.52c1.22.29 2.6.48 4.12.48.67 0 1.34-.02 2-.05z" fill="#ccd1d9"/></g><g><path d="m16 44 1 17.99c-12.1-.25-14-4.99-14-4.99l4-18h4.58c.84 2.07 2.51 3.71 4.61 4.49z" fill="#ccd1d9"/></g><g><path d="m31 39 4 18s-4 5-17 5c-.34 0-.68 0-1-.01l-1-17.99.19-.51c.87.33 1.82.51 2.81.51 3.36 0 6.23-2.07 7.42-5z" fill="#e6e9ed"/></g><g><path d="m35 7-4 24h-5.76c-1.46-1.83-3.71-3-6.24-3-.99 0-1.94.18-2.81.51l-.19-.51v-17.05-2.95s3.74.37 8.7.21c3.15-.11 6.8-.43 10.3-1.21z" fill="#e6e9ed"/></g><g><path d="m25.24 31c.91 1.13 1.51 2.5 1.7 4.01.04.32.06.66.06.99 0 1.06-.21 2.07-.58 3h4.58v-8z" fill="#ff826e"/></g><g><path d="m11.06 35c.19-1.5.8-2.88 1.7-4h-5.76v8h4.58c-.37-.93-.58-1.94-.58-3 0-.34.02-.67.06-1z" fill="#ff826e"/></g><g><path d="m25.24 31c.91 1.13 1.51 2.5 1.7 4.01.04.32.06.66.06.99 0 1.06-.21 2.07-.58 3-1.19 2.93-4.06 5-7.42 5-.99 0-1.94-.18-2.81-.51-2.1-.78-3.77-2.42-4.61-4.49-.37-.93-.58-1.94-.58-3 0-.34.02-.67.06-1 .19-1.5.8-2.88 1.7-4 .89-1.11 2.07-1.98 3.43-2.49.87-.33 1.82-.51 2.81-.51 2.53 0 4.78 1.17 6.24 3z" fill="#fc6e51"/></g><g><circle cx="19" cy="36" fill="#ff826e" r="4"/></g></g><g><path d="m52 49v-2.787l4.256-9.577-.701-.468c-.026-.017-2.555-1.754-2.555-6.168 0-2.658 1.097-4.958 2.258-7.392 1.348-2.825 2.742-5.747 2.742-9.608 0-8.351-7.654-9-10-9s-10 .649-10 9c0 3.861 1.394 6.783 2.742 9.608 1.161 2.434 2.258 4.734 2.258 7.392 0 4.354-2.457 6.101-2.555 6.168l-.701.468 4.256 9.577v2.787h-7.133l1.25 10h19.766l1.25-10zm-6.35-4-.889-2h6.478l-.889 2zm-.65-15c0-3.111-1.247-5.725-2.453-8.253-1.252-2.624-2.547-5.338-2.547-8.747 0-6.091 5.013-7 8-7s8 .909 8 7c0 3.409-1.295 6.123-2.547 8.747-1.206 2.528-2.453 5.142-2.453 8.253 0 2.797.864 4.74 1.727 6h-7.727v2h8.462l-1.334 3h-8.256l-1.655-3.724c1.003-.97 2.783-3.259 2.783-7.276zm1 17h4v2h-4zm10.117 10h-16.234l-.75-6h4.867 8 4.867z"/><path d="m52.052 12.316c.828 2.485-.868 5.105-.884 5.129l1.664 1.109c.093-.139 2.258-3.446 1.116-6.871-1.214-3.641-5.756-3.683-5.948-3.683v2c.033 0 3.288.026 4.052 2.316z"/><path d="m19 41c2.757 0 5-2.243 5-5s-2.243-5-5-5-5 2.243-5 5 2.243 5 5 5zm0-8c1.654 0 3 1.346 3 3s-1.346 3-3 3-3-1.346-3-3 1.346-3 3-3z"/><path d="m32 36v-1-3.917l4.06-24.358-.278-.349c-.177-.22-4.455-5.376-17.782-5.376-13.521 0-15.837 5.399-15.929 5.628l-.104.26 4.033 24.195v3.917 1 2.889l-4.043 18.196.114.286c.092.231 2.408 5.629 15.929 5.629 13.327 0 17.605-5.156 17.781-5.375l.299-.374-4.08-18.362zm-24.153-6-3.45-20.699c1.953 1.223 5.211 2.699 9.603 2.699.335 0 .666-.018 1-.027v15.977c-1.023.51-1.933 1.208-2.689 2.05zm2.356-23.312c2.311-.634 8.598-2.04 12.282.17.231.139.415.266.569.382-4.015.047-6.901-.23-6.954-.235l-1.1-.109v3.077c-.334.009-.665.027-1 .027-1.094 0-2.105-.111-3.041-.286zm15.486 23.312c-1.649-1.836-4.033-3-6.689-3-.688 0-1.356.085-2 .232v-18.148c2.684.187 9.804.493 16.775-.814l-3.622 21.73zm-17.689 2h2.95c-.314.629-.558 1.298-.718 2h-2.232zm11-3c3.859 0 7 3.14 7 7 0 3.859-3.141 7-7 7s-7-3.141-7-7c0-3.86 3.141-7 7-7zm11 3v2h-2.232c-.16-.702-.404-1.371-.718-2zm-2 4h2v2h-2.232c.147-.644.232-1.312.232-2zm-10-33c8.201 0 12.666 2.052 14.738 3.423-2.457.421-4.934.643-7.2.746-.278-.708-.942-1.377-2.023-2.026-5.335-3.2-14.446-.221-14.831-.092l-.878.293.951 3.804c-2.145-.723-3.65-1.731-4.432-2.337 1.01-1.177 4.315-3.811 13.675-3.811zm-8 33c0 .688.085 1.356.232 2h-2.232v-2zm-5.94 20.844 3.743-16.844h3.147c.876 1.755 2.304 3.182 4.06 4.055h-.008l.939 16.895c-8.724-.399-11.321-3.289-11.881-4.106zm13.94 4.156c-.019 0-.036-.001-.055-.001l-.901-16.219c.631.14 1.284.22 1.956.22 3.525 0 6.574-2.042 8.05-5h3.147l3.709 16.687c-1.148 1.045-5.566 4.313-15.906 4.313z"/></g></g></svg>