<svg id="_x33_0" enable-background="new 0 0 64 64" height="512" viewBox="0 0 64 64" width="512" xmlns="http://www.w3.org/2000/svg"><g><g><g><path d="m36 41.12v20.88h-8v-21h.03v.1c0 1.05.58 2.07 1.66 2.5.63.24 1.39.4 2.31.4s1.68-.16 2.31-.4c1.08-.43 1.66-1.44 1.66-2.48z" fill="#fcd770"/></g><g><path d="m36 19v12.3c-.3.13-.59.32-.84.57l-1.03 1.03c0-.01 0-.01-.01-.02l1.04-1.04c1.37-1.37.95-3.73-.85-4.44-.63-.24-1.39-.4-2.31-.4s-1.68.16-2.31.4c-1.08.43-1.66 1.44-1.66 2.48h-.03v-10.88z" fill="#fcd770"/></g><g><path d="m29.51 36.68c.22.32.49.59.81.81l-.32.51-1.16 1.16c-.52.52-.78 1.18-.81 1.84h-.03-9.86l-1.4-4.92.26-.08h1.01c1.1 0 1.99-.92 1.93-2.02-.02-.3-.03-.63-.06-.97l.12-.01h3l.28.09c-.17.55-.28 1.19-.28 1.94 0 .92.16 1.68.4 2.31.71 1.8 3.07 2.22 4.44.85l1.16-1.16z" fill="#ffeaa7"/></g><g><path d="m18.14 41h9.86v12h-15v-9l.02-.58c.49.07 1.15 0 1.98-.42l.22-.09.24.59c.3.84 1.21 1.28 2.05 1 .68-.23 1.12-.87 1.12-1.56 0-.15-.02-.3-.06-.45z" fill="#ffeaa7"/></g><g><path d="m13 53h15v9h-15z" fill="#ffeaa7"/></g><g><path d="m51 53v9h-15v-9h14z" fill="#ffeaa7"/></g><g><path d="m51 44v9h-1-14v-11.88-.12h9.8l-.43 1.49c-.04.15-.06.3-.06.45 0 .69.44 1.33 1.12 1.56.67.22 1.39-.01 1.81-.55z" fill="#ffeaa7"/></g><g><path d="m47.2 36.08-1.4 4.92h-9.8v.12h-.03c0-.7-.26-1.41-.81-1.96l-.48-.48.48-.49c1.37 1.37 3.73.95 4.44-.85.24-.63.4-1.39.4-2.31 0-.75-.11-1.39-.28-1.94l.28-.09h4 .06c-.02.35-.04.68-.06.98-.05 1.1.83 2.02 1.93 2.02h1.01z" fill="#ffeaa7"/></g><g><path d="m40 33-.28.09c-.03-.13-.07-.25-.12-.37-.58-1.47-2.26-2.02-3.6-1.42v-12.3h10l.68-.03.26 6.03c-1.97 0-2.64 4.74-2.88 8h-.06z" fill="#ffeaa7"/></g><g><path d="m28 29.88v2.12l-.01.02-.15-.15c-1.37-1.37-3.73-.95-4.44.85-.05.12-.09.24-.12.37l-.28-.09h-3l-.12.01c-.23-3.26-.91-8.01-2.88-8.01l.26-6.03.74.03h10z" fill="#ffeaa7"/></g><g><path d="m58.94 2-3 23h-9l-.26-6.03-.74-16.97h1.06z" fill="#75b1f2"/></g><g><path d="m18 2-.74 16.97-.26 6.03h-9l-3-23z" fill="#75b1f2"/></g><g><path d="m51.94 43s-1 1-3 0l-.21-.09-.24.59c-.06.17-.15.32-.25.45-.42.54-1.14.77-1.81.55-.68-.23-1.12-.87-1.12-1.56 0-.15.02-.3.06-.45l.43-1.49 1.4-4.92-.26-.08h-1.01c-1.1 0-1.98-.92-1.93-2.02.02-.3.04-.63.06-.98.24-3.26.91-8 2.88-8h9s3 2 1 7-5 11-5 11z" fill="#f0d0b4"/></g><g><path d="m18.14 41 .43 1.49c.04.15.06.3.06.45 0 .69-.44 1.33-1.12 1.56-.84.28-1.75-.16-2.05-1l-.24-.59-.22.09c-.83.42-1.49.49-1.98.42-.68-.08-1.02-.42-1.02-.42s-3-6-5-11 1-7 1-7h9c1.97 0 2.65 4.75 2.88 8.01.03.34.04.67.06.97.06 1.1-.83 2.02-1.93 2.02h-1.01l-.26.08z" fill="#f0d0b4"/></g><g><path d="m36 31.3c1.34-.6 3.02-.05 3.6 1.42.05.12.09.24.12.37.17.55.28 1.19.28 1.94 0 .92-.16 1.68-.4 2.31-.71 1.8-3.07 2.22-4.44.85l-1.06-1.06c.56-.53.9-1.29.9-2.13 0-.82-.33-1.56-.87-2.1l1.03-1.03c.25-.25.54-.44.84-.57z" fill="#ff826e"/></g><g><path d="m34.68 38.68.48.48c.55.55.81 1.26.81 1.96 0 1.04-.58 2.05-1.66 2.48-.63.24-1.39.4-2.31.4s-1.68-.16-2.31-.4c-1.08-.43-1.66-1.45-1.66-2.5 0-.03 0-.07 0-.1.03-.66.29-1.32.81-1.84l1.16-1.16.32-.51c.48.32 1.06.51 1.68.51.82 0 1.56-.33 2.1-.87l1.06 1.06z" fill="#ff826e"/></g><g><path d="m29.88 32.88c-.54.54-.88 1.29-.88 2.12 0 .62.19 1.2.51 1.68l-.51.35-1.16 1.16c-1.37 1.37-3.73.95-4.44-.85-.24-.63-.4-1.39-.4-2.31 0-.75.11-1.39.28-1.94.03-.13.07-.25.12-.37.71-1.8 3.07-2.22 4.44-.85l.15.15.01-.02v-2.12h.03c0 .7.26 1.41.81 1.96z" fill="#ff826e"/></g><g><path d="m35.16 31.84-1.04 1.04c-.54-.54-1.29-.88-2.12-.88s-1.58.34-2.12.88l-1.04-1.04c-.55-.55-.81-1.26-.81-1.96 0-1.04.58-2.05 1.66-2.48.63-.24 1.39-.4 2.31-.4s1.68.16 2.31.4c1.8.71 2.22 3.07.85 4.44z" fill="#ff826e"/></g><g><path d="m34.13 32.9c.54.54.87 1.28.87 2.1 0 .84-.34 1.6-.9 2.13-.54.54-1.28.87-2.1.87-.62 0-1.2-.19-1.68-.51-.32-.22-.59-.49-.81-.81-.32-.48-.51-1.06-.51-1.68 0-.83.34-1.58.88-2.12s1.29-.88 2.12-.88 1.58.34 2.12.88c.01.01.01.01.01.02z" fill="#fc6e51"/></g></g><path d="m60.08 1h-13.08-2.103-25.853-1.044-14.139l3.078 23.599c-.927.922-2.631 3.365-.868 7.772 1.992 4.981 5.004 11.016 5.034 11.076l.072.146.115.114c.159.159.403.324.707.459v18.834h15 5 5 15v-18.864c.273-.13.5-.281.648-.429l.115-.114.072-.146c.03-.061 3.042-6.095 5.034-11.076 1.763-4.407.059-6.851-.868-7.772zm-13.08 2h10.803l-2.74 21h-7.165l-.913-21zm-1.092 21.252c-1.462.774-2.374 3.334-2.769 7.748h-2.806c-.498-.941-1.37-1.633-2.441-1.857-.298-.062-.597-.086-.893-.077v-10.066h8.723zm-.864 15.748h-7.924c.257-.001.516-.027.774-.081 1.207-.253 2.191-1.081 2.634-2.214.313-.804.472-1.703.472-2.674 0-.355-.029-.697-.071-1.031h2.078c-.02.78.256 1.52.795 2.087.544.573 1.308.902 2.1.91zm-30.364 4.205c.465.859 1.353 1.378 2.305 1.378.279 0 .563-.045.845-.139 1.344-.448 2.091-1.866 1.702-3.227l-.063-.217h7.531v10h-13v-7.624c.217-.037.443-.093.68-.171zm3.538-24.205h8.782v10.231c-.602-.187-1.251-.223-1.893-.088-1.071.224-1.944.917-2.441 1.857h-1.864c-.395-4.415-1.308-6.974-2.769-7.748zm11.782 15c0-1.103.897-2 2-2s2 .897 2 2-.897 2-2 2-2-.897-2-2zm4.455-3.869-.436.436c-.595-.352-1.279-.567-2.019-.567s-1.424.215-2.019.567l-.436-.436c-.421-.421-.6-1.024-.476-1.612.115-.553.475-.983.984-1.183 1.139-.445 2.753-.445 3.894 0 .509.199.868.63.983 1.183.125.587-.054 1.191-.475 1.612zm-7.324 1.444 1.109 1.11c-.145.414-.24.852-.24 1.315 0 .481.099.935.255 1.362l-1.124 1.124c-.421.42-1.024.597-1.613.476-.552-.116-.983-.475-1.182-.983-.223-.572-.336-1.227-.336-1.948 0-.722.113-1.377.336-1.947.199-.51.63-.868 1.182-.984.586-.121 1.191.053 1.613.475zm.176 7.147c-.036.091-.063.185-.092.278h-1.315c.485-.001.962-.097 1.407-.278zm2.238.147 1.116-1.116c.421.15.867.247 1.339.247s.918-.097 1.339-.247l1.116 1.116c.421.421.6 1.024.476 1.612-.115.553-.475.983-.984 1.183-1.139.445-2.753.445-3.894 0-.789-.308-1.043-1.067-1.021-1.623.019-.443.2-.859.513-1.172zm5.877-2.83c.359-.599.578-1.291.578-2.039 0-.732-.212-1.409-.556-1.999l.425-.425c.421-.422 1.026-.598 1.613-.476.552.116.982.475 1.182.985.223.569.336 1.225.336 1.946s-.113 1.376-.336 1.947c-.198.509-.63.867-1.182.983-.593.12-1.193-.056-1.613-.476zm-.422-10.39c-.11-.057-.208-.131-.325-.177-1.605-.627-3.745-.627-5.349 0-.117.046-.216.12-.326.177v-6.649h6zm-14.861 9.438c.54-.567.816-1.307.795-2.087h1.137c-.042.335-.071.676-.071 1.031 0 .971.159 1.87.473 2.674.442 1.133 1.427 1.961 2.634 2.214.259.054.517.08.774.081h-6.983l-.858-3.003c.791-.008 1.555-.337 2.099-.91zm8.861 8.282c.107.055.212.114.325.158.803.314 1.703.473 2.675.473s1.872-.159 2.674-.473c.117-.046.216-.12.326-.177v7.65h-6zm7.799-4.369c-.003-.01-.008-.02-.011-.031.105.009.207.031.312.031zm8.185-37 .652 15h-8.636-10-8.695l.652-15zm-38.845 0h10.817l-.913 21h-7.165zm1.79 28.629c-1.376-3.438-.085-5.126.433-5.629h7.594 1.044c.498 0 1.628 1.963 1.939 8.03.014.254-.076.495-.251.68-.177.186-.418.29-.678.29h-.541l-1.507-5.274-1.924.549 3.57 12.493c.094.329-.087.672-.411.779-.334.11-.684-.061-.815-.422l-3.455-8.502-1.854.754 2.838 6.98c-.605.168-.972.053-1.123-.019-.551-1.113-3.109-6.333-4.859-10.709zm6.071 29.371v-7h13v7zm18 0h-3v-7h6v7zm18 0h-13v-7h13zm-13-9v-10h7.473l-.062.217c-.391 1.362.357 2.78 1.702 3.229.281.094.567.138.848.138.959 0 1.851-.524 2.302-1.377.257.084.503.145.737.181v7.612zm19.013-20.371c-1.746 4.365-4.296 9.57-4.854 10.7-.168.083-.535.191-1.127.027l2.837-6.98-1.854-.754-3.47 8.538c-.118.326-.472.496-.8.387-.325-.108-.506-.451-.411-.781l3.569-12.492-1.924-.549-1.506 5.275h-.541c-.26 0-.501-.104-.679-.29-.175-.185-.265-.426-.251-.68.312-6.067 1.441-8.03 1.939-8.03h1.044 7.598c.52.502 1.808 2.183.43 5.629z"/></g></svg>