<svg id="_x33_0" enable-background="new 0 0 64 64" height="512" viewBox="0 0 64 64" width="512" xmlns="http://www.w3.org/2000/svg"><g><g><g><path d="m54 35 2 27h-17l-1-5-.06-.04c1.06-1.47 1.06-3.96 1.06-3.96v-6l-.07-.07c5.81-5.46 5.28-9.87 2.32-11.93z" fill="#e6e9ed"/></g><g><path d="m54 31v4h-12.75c-.52-.37-1.12-.66-1.78-.87l.53-.13v-3h1 11z" fill="#ccd1d9"/></g><g><path d="m26 58-1 4h-17l2-27h12.75c-2.79 1.94-3.42 5.97 1.39 11l.28.51c-.83.71-1.42 1.55-1.42 2.49 0 3 3 9 3 9z" fill="#b4dd7f"/></g><g><path d="m24 34 .08.29c-.49.19-.93.43-1.33.71h-12.75v-4h2 11 1z" fill="#a0d468"/></g><g><path d="m38 57 1 5h-1-12-1l1-4h10c.88 0 1.5-.43 1.94-1.04z" fill="#75b1f2"/></g><g><path d="m41.25 35c2.96 2.06 3.49 6.47-2.32 11.93-1.72 1.6-4 3.31-6.93 5.07-1.34-.8-2.54-1.6-3.62-2.38l2.62-2.62c2-2 0-3-1-3-.69 0-3.74.95-5.58 2.51l-.28-.51c-4.81-5.03-4.18-9.06-1.39-11 .4-.28.84-.52 1.33-.71.29-.11.6-.21.92-.29 4-1 7 3 7 3s3-4 7-3c.16.04.32.08.47.13.66.21 1.26.5 1.78.87z" fill="#ff826e"/></g><g><path d="m49 18c.72.36 1.44.85 2.07 1.33l-.07.09c-1.13.85-2.39 1.71-3.79 2.58-4.33-2.7-7.32-5.27-9.25-7.63-5.25-6.39-2.78-11.17 1.76-12.35 4.28-1.11 7.49 3.33 7.49 3.33s3.21-4.44 7.48-3.33c5.05 1.31 7.55 7.07-.28 14.54-2.04-.77-4.39-1.56-5.41-1.56-2 0-2 2 0 3z" fill="#ff826e"/></g><g><path d="m26.18 14.2c-1.93 2.4-4.96 5.04-9.39 7.8-1.4-.87-2.66-1.73-3.79-2.58l-.07-.09c.63-.48 1.35-.97 2.07-1.33 2-1 2-3 0-3-1.02 0-3.37.79-5.41 1.56-7.83-7.47-5.33-13.23-.28-14.54 4.27-1.11 7.48 3.33 7.48 3.33s3.21-4.44 7.49-3.33c4.5 1.17 6.97 5.88 1.9 12.18z" fill="#ff826e"/></g><g><path d="m28.38 49.62c1.08.78 2.28 1.58 3.62 2.38 2.93-1.76 5.21-3.47 6.93-5.07l.07.07v6s0 2.49-1.06 3.96c-.44.61-1.06 1.04-1.94 1.04-3 0-10 0-10 0s-3-6-3-9c0-.94.59-1.78 1.42-2.49 1.84-1.56 4.89-2.51 5.58-2.51 1 0 3 1 1 3-.94.94-1.89 1.89-2.62 2.62z" fill="#f0d0b4"/></g><g><path d="m47.21 22c1.4-.87 2.66-1.73 3.79-2.58l.07-.09c-.63-.48-1.35-.97-2.07-1.33-2-1-2-3 0-3 1.02 0 3.37.79 5.41 1.56.5.19.97.37 1.4.54 1.3.52 2.1 1.83 1.96 3.22l-.77 7.68s-1 3-5 3h-11s-2.03-.12-3-4c-.88-3.52-.21-10.89-.04-12.63 1.93 2.36 4.92 4.93 9.25 7.63z" fill="#f0d0b4"/></g><g><path d="m13 19.42c1.13.85 2.39 1.71 3.79 2.58 4.43-2.76 7.46-5.4 9.39-7.8.59 1.35.73 9.17-.18 12.8-.97 3.88-3 4-3 4h-11c-4 0-5-3-5-3l-.77-7.68c-.14-1.39.66-2.7 1.96-3.22.43-.17.9-.35 1.4-.54 2.04-.77 4.39-1.56 5.41-1.56 2 0 2 2 0 3-.72.36-1.44.85-2.07 1.33z" fill="#f0d0b4"/></g></g><g><circle cx="13" cy="41" r="1"/><circle cx="13" cy="46" r="1"/><path d="m56.189 16.178c4.465-4.763 4.482-8.376 4.028-10.193-.606-2.424-2.528-4.223-5.272-4.935-3.571-.927-6.41 1.378-7.737 2.763-1.326-1.386-4.166-3.69-7.737-2.763-2.964.77-4.98 2.838-5.392 5.534-.263 1.718.013 4.535 2.846 8.119-.222 2.327-.759 9.082.106 12.54.489 1.955 1.245 3.106 1.97 3.785v1.954c-3.213-.676-5.766 1.291-7 2.52-1.233-1.23-3.787-3.197-7-2.52v-1.95c.721-.678 1.48-1.829 1.97-3.789.759-3.037.931-9.998.298-12.788 2.652-3.466 2.91-6.193 2.653-7.871-.412-2.696-2.427-4.764-5.392-5.534-3.57-.925-6.41 1.378-7.737 2.763-1.327-1.386-4.168-3.69-7.737-2.763-2.745.712-4.666 2.511-5.273 4.935-.454 1.817-.437 5.43 4.027 10.193-1.698.68-2.756 2.422-2.574 4.243l.769 7.679.046.217c.037.11.722 2.058 2.949 3.075v3.573l-2.077 28.035h16.796 2.281 12 2.22 16.857l-2.077-28.035v-3.573c2.227-1.016 2.912-2.965 2.949-3.076l.814-7.896c.182-1.82-.876-3.562-2.574-4.242zm-20.133-9.293c.291-1.908 1.719-3.329 3.917-3.9 3.553-.918 6.397 2.912 6.424 2.948l.811 1.122.811-1.122c.028-.039 2.847-3.873 6.424-2.948 2.014.523 3.412 1.793 3.834 3.485.628 2.511-.831 5.657-4.113 8.933-2.521-.926-4.262-1.403-5.164-1.403-1.516 0-2.257.85-2.445 1.645-.284 1.204.519 2.51 1.998 3.25.273.136.546.296.816.466-.69.487-1.403.974-2.161 1.457-10.911-6.944-11.441-12.044-11.152-13.933zm-4.856 30.715.797 1.06.801-1.058c.026-.034 2.661-3.452 5.959-2.632 2.014.504 3.365 1.802 3.613 3.473.515 3.463-3.353 8.07-10.371 12.388-.727-.446-1.411-.896-2.07-1.346l1.777-1.777c1.325-1.324 1.27-2.407.99-3.082-.493-1.193-1.883-1.626-2.696-1.626-.728 0-3.299.732-5.334 2.092-2.453-2.639-3.5-5.169-2.929-7.146.415-1.438 1.693-2.522 3.505-2.977 3.296-.818 5.933 2.599 5.958 2.631zm6.8 15.4c0 .04-.086 4-2 4h-9.375c-.923-1.945-2.625-5.953-2.625-8 0-2.072 5.103-3.968 6-4 .315 0 .775.211.849.39.026.064-.02.366-.556.903l-4.793 4.793.878.697c.018.014 1.735 1.385 2.825 2.821l1.594-1.209c-.724-.954-1.657-1.855-2.325-2.453l.017-.017c.932.647 1.933 1.294 2.996 1.932l.515.309.515-.309c2.201-1.321 4.004-2.589 5.485-3.795zm-32.276-46.53c.423-1.691 1.82-2.961 3.834-3.484 3.56-.92 6.397 2.912 6.424 2.948l.811 1.122.811-1.122c.028-.039 2.853-3.87 6.424-2.948 2.198.571 3.626 1.992 3.917 3.9.289 1.889-.242 6.989-11.152 13.933-.758-.483-1.471-.97-2.161-1.457.27-.17.543-.33.816-.466 1.479-.74 2.282-2.045 1.998-3.25-.189-.796-.93-1.646-2.446-1.646-.902 0-2.644.477-5.164 1.403-3.281-3.276-4.74-6.422-4.112-8.933zm2.257 21.295-.754-7.543c-.094-.941.455-1.842 1.334-2.191 4.755-1.885 6.13-2.031 6.439-2.031.342 0 .483.088.498.104.029.097-.133.595-.945 1.001-2.121 1.061-4.173 3.101-4.26 3.188l-.981.981 1.241.621c.034.017 3.447 1.788 3.447 4.105h2c0-2.417-1.994-4.216-3.344-5.158.086-.074.19-.157.284-.235 1.034.75 2.137 1.503 3.324 2.242l.528.329.529-.33c3.681-2.292 6.327-4.439 8.219-6.398.197 2.715.163 7.61-.511 10.307-.695 2.78-1.917 3.195-2.106 3.243h-10.923c-2.879 0-3.837-1.82-4.019-2.235zm15.019 4.235v1.681c-.19.097-.366.208-.543.319h-11.457v-2zm-13.923 29 1.852-25h9.508c-.265.432-.478.895-.621 1.391-.768 2.657.422 5.837 3.322 8.988-.686.757-1.138 1.632-1.138 2.621 0 2.809 2.296 7.771 2.941 9.111l-.722 2.889zm17.204 0 .5-2h9.219c.5 0 .936-.103 1.326-.271l.454 2.271zm13.539 0-.781-3.903c.714-1.263.961-2.901.961-4.097v-5.713c4.191-4.088 4.622-7.302 4.349-9.14-.116-.783-.4-1.499-.799-2.147h9.522l1.852 25zm13.18-29v2h-11.47c-.172-.107-.345-.212-.53-.307v-1.693h11zm3.773-11.778-.754 7.544c-.179.413-1.13 2.234-4.019 2.234h-10.923c-.189-.048-1.412-.463-2.106-3.243-.619-2.474-.421-7.082-.208-10 1.869 1.876 4.427 3.918 7.917 6.092l.529.33.528-.329c1.187-.739 2.291-1.492 3.324-2.242.095.079.198.161.284.235-1.351.941-3.345 2.74-3.345 5.157h2c0-1.942 2.49-3.623 3.449-4.106l1.236-.623-.978-.978c-.086-.086-2.139-2.127-4.26-3.188-.813-.406-.975-.904-.949-.994.019-.023.16-.111.502-.111.309 0 1.684.146 6.438 2.031.88.348 1.429 1.249 1.335 2.191z"/><circle cx="51" cy="41" r="1"/><circle cx="51" cy="46" r="1"/></g></g></svg>