<svg id="_x33_0" enable-background="new 0 0 64 64" height="512" viewBox="0 0 64 64" width="512" xmlns="http://www.w3.org/2000/svg"><g><g><g><path d="m58 31-1.61.81c-.15-.1-.3-.2-.44-.28-2.56-1.53-4.95-1.53-4.95-1.53v-4.41-.01c4.36-1.02 5-3.58 5-3.58v-5.5-4.5s0-2-3-2c0 0-5.58.62-7.95-1.07l-.05.07c-6 0-6 3-6 3v4.5 5.5s0 2.92 5 3.77v4.23s-1.85 0-3.98 1.26c-.35.2-.7.44-1.06.73l-2.96-.99c-2-1-1.54-2.92-1-4l1-2c.31-.92-.31-2.31-1-3l-1-1c-.74-.99-.64-2.94 0-4l1-1c.66-.99 1-2-1-4-.31-.31-.42-.71-.42-1.15 0-.61.22-1.28.42-1.85.85-2.36 4-6 13-6 8.54 0 11.76 3.46 13.07 6.14.65 1.33.59 3.53-.07 4.86-.38.76-.57 1.58-.57 2.41 0 .58.09 1.15.28 1.71l.29.88c.46 1.14 1 3 0 4l-1 1c-.6.6-1.31 1.21-1 2l1 2c.65 1.3.3 2.35-1 3z" fill="#656d78"/></g><g><path d="m15 53v8l-13 1v-10z" fill="#b4dd7f"/></g><g><path d="m26 34 .29.59c-3.17 1.93-5.29 5.42-5.29 9.41 0 2.21.65 4.27 1.78 6h-4.78c-.92 0-1.56.28-2 .68v-18.68-.11c.92.02 1.96-.2 3-.89 0 0 5 0 7 3z" fill="#b4dd7f"/></g><g><path d="m15 53-13-1s0-1 0-11 11-10 11-10 1.28.85 3 .89v.11 18.68c-1 .88-1 2.32-1 2.32z" fill="#b4dd7f"/></g><g><path d="m62 52v10l-13-1v-8z" fill="#ff826e"/></g><g><path d="m56.39 31.81c2.79 1.84 5.61 5.59 5.61 13.19v7l-13 1s0-3-3-3h-4.78c1.13-1.73 1.78-3.79 1.78-6 0-4.31-2.47-8.04-6.08-9.84l.08-.16c.62-.83 1.29-1.49 1.96-2.01.36-.29.71-.53 1.06-.73.08.86.6 3.58 3.98 2.74 0 0 1 3 4 3s4-3 4-3c3.07.77 3.79-1.42 3.95-2.47.14.08.29.18.44.28z" fill="#ff826e"/></g><g><path d="m55.95 31.53c-.16 1.05-.88 3.24-3.95 2.47 0 0-1 3-4 3s-4-3-4-3c-3.38.84-3.9-1.88-3.98-2.74 2.13-1.26 3.98-1.26 3.98-1.26s3.5 3 7 0c0 0 2.39 0 4.95 1.53z" fill="#fc6e51"/></g><g><path d="m51 25.59v4.41c-3.5 3-7 0-7 0v-4.23c.85.15 1.84.23 3 .23 1.6 0 2.92-.16 4-.42z" fill="#f0d0b4"/></g><g><path d="m49 16.5c0 1.93 1.57 3.5 3.5 3.5s3.5-1.57 3.5-3.5v5.5s-.64 2.56-5 3.58c-1.08.26-2.4.42-4 .42-1.16 0-2.15-.08-3-.23-5-.85-5-3.77-5-3.77v-5.5c0 1.93 1.57 3.5 3.5 3.5s3.5-1.57 3.5-3.5c0-.17-.01-.33-.04-.49l.04-.01h3l.04.01c-.03.16-.04.32-.04.49z" fill="#f0d0b4"/></g><g><path d="m45.05 8.93c2.37 1.69 7.95 1.07 7.95 1.07 3 0 3 2 3 2v4.5c0-1.93-1.57-3.5-3.5-3.5-1.76 0-3.23 1.31-3.46 3.01l-.04-.01h-3l-.04.01c-.23-1.7-1.7-3.01-3.46-3.01-1.93 0-3.5 1.57-3.5 3.5v-4.5s0-3 6-3z" fill="#f0d0b4"/></g><g><path d="m52.5 13c1.93 0 3.5 1.57 3.5 3.5s-1.57 3.5-3.5 3.5-3.5-1.57-3.5-3.5c0-.17.01-.33.04-.49.23-1.7 1.7-3.01 3.46-3.01z" fill="#69d6f4"/></g><g><path d="m45.96 16.01c.03.16.04.32.04.49 0 1.93-1.57 3.5-3.5 3.5s-3.5-1.57-3.5-3.5 1.57-3.5 3.5-3.5c1.76 0 3.23 1.31 3.46 3.01z" fill="#69d6f4"/></g><g><path d="m43 44c0 2.21-.65 4.27-1.78 6h-.52c-.94 0-1.7.76-1.7 1.7v1.3h-2c-.95 0-1.77.7-1.96 1.6l-.04-.01c-.95.27-1.96.41-3 .41s-2.05-.14-3-.41l-.04.01c-.19-.9-1.01-1.6-1.96-1.6h-2v-1.3c0-.94-.76-1.7-1.7-1.7h-.52c-1.13-1.73-1.78-3.79-1.78-6 0-3.99 2.12-7.48 5.29-9.41 1.67-1.01 3.62-1.59 5.71-1.59 1.77 0 3.44.42 4.92 1.16 3.61 1.8 6.08 5.53 6.08 9.84z" fill="#fcd770"/></g><g><path d="m40.7 50h.52 4.78c3 0 3 3 3 3v8h-12c-1.09 0-2-.91-2-2v-4c0-.14.01-.27.04-.4.19-.9 1.01-1.6 1.96-1.6h2v-1.3c0-.94.76-1.7 1.7-1.7z" fill="#f0d0b4"/></g><g><path d="m25 53h2c.95 0 1.77.7 1.96 1.6.03.13.04.26.04.4v4c0 1.09-.91 2-2 2h-12v-8s0-1.44 1-2.32c.44-.4 1.08-.68 2-.68h4.78.52c.94 0 1.7.76 1.7 1.7z" fill="#f0d0b4"/></g><g><path d="m26.16 15.84c.48.44.84 1.12.84 2.16 0 3-3 3-3 3 0-2.81 0-4.74 0-6 0 0 1.28 0 2.16.84z" fill="#f0d0b4"/></g><g><path d="m19 26.57v4.43c-1.04.69-2.08.91-3 .89-1.72-.04-3-.89-3-.89v-4.43c1.62.43 3 .43 3 .43s1.38 0 3-.43z" fill="#f0d0b4"/></g><g><path d="m24 21c0 3.51-2.73 4.96-5 5.57-1.62.43-3 .43-3 .43s-1.38 0-3-.43c-2.27-.61-5-2.06-5-5.57 0-2.81 0-4.74 0-6 0-1.43 0-2 0-2s0-6 8-6 8 6 8 6 0 .57 0 2z" fill="#f0d0b4"/></g><g><path d="m8 15v6s-3 0-3-3c0-.38.05-.7.13-.99.57-2.01 2.87-2.01 2.87-2.01z" fill="#f0d0b4"/></g><g><path d="m23.8 4.75c.87-.06 1.85.47 2.2 1.25l2 5c.46 1.08.83 2.17 0 3l-1.84 1.84c-.88-.84-2.16-.84-2.16-.84 0-1.43 0-2 0-2s0-6-8-6-8 6-8 6 0 .57 0 2c0 0-2.3 0-2.87 2.01l-.13-.01-1.59-3.17c-.24-.5-.15-1.09.24-1.48l1.35-1.35-.79-3.17c-.13-.5.06-1.03.47-1.34l3.32-1.49c0-.77.25-1.86 1-2 1.57-.3 4.72-1 8-1 4.11 0 6.2 2.03 6.8 2.75z" fill="#e6e9ed"/></g><g><path d="m16 19h3c.55 0 1 .45 1 1v3l-3-1c-.81-.2-1.19-.2-2 0l-3 1v-3c0-.55.45-1 1-1z" fill="#e6e9ed"/></g></g><g><path d="m33 49h4v-6h-8v-2h8v-2h-4v-2h-2v2h-4v6h8v2h-8v2h4v2h2z"/><path d="m50.895 22.447-1.789-.895c-.478.954-2.854.726-3.864.477l-.483 1.94c.219.056 1.208.285 2.352.285 1.409.001 3.054-.349 3.784-1.807z"/><path d="m58.239 31.999.208-.104c1.785-.893 2.34-2.557 1.447-4.342l-.972-1.935c.02-.156.421-.552.637-.765l1.147-1.146c1.067-1.067 1.143-2.776.241-5.023l-.293-.879c-.371-1.114-.286-2.307.239-3.357.816-1.634.848-4.158.073-5.748-1.487-3.056-5.12-6.7-13.966-6.7-10.41 0-13.217 4.657-13.94 6.66-.303.838-1.014 2.8.233 4.047 1.549 1.549 1.316 2.068.929 2.656l-.929.93-.15.192c-.812 1.352-.981 3.729.058 5.115l1.093 1.106c.498.498.878 1.46.772 1.927l-.96 1.919c-1.121 2.245-.553 4.342 1.447 5.342l1.496.503c-.154.165-.305.338-.456.519-1.416-.588-2.966-.916-4.593-.916-1.909 0-3.709.46-5.313 1.256-1.744-2.391-5.029-3.031-6.687-3.197v-2.743c2.345-.81 4.575-2.446 4.941-5.442 1.462-.339 3.059-1.475 3.059-3.874 0-.838-.209-1.509-.525-2.061l1.232-1.232c1.378-1.377.591-3.217.222-4.078l-2.015-5.034c-.357-.806-1.133-1.45-2.074-1.724-.196-.057-.393-.09-.588-.111-.981-1.006-3.261-2.76-7.252-2.76-2.982 0-5.848.562-7.561.896l-.625.122c-1.1.208-1.611 1.265-1.761 2.311l-2.782 1.248-.191.112c-.735.553-1.067 1.487-.844 2.378l.656 2.626-.946.947c-.696.696-.868 1.755-.428 2.634l1.547 3.095c-.026.205-.065.403-.065.631 0 2.399 1.597 3.535 3.059 3.875.366 2.995 2.596 4.632 4.941 5.441v2.73c-4.292.341-11 2.908-11 10.954v9.92 1.08 11.08l14-1.08h12c1.626 0 3-1.374 3-3v-3.174c.659.111 1.327.174 2 .174s1.341-.063 2-.173v3.173c0 1.626 1.374 3 3 3l11.923-.003 14.077 1.083v-11.08-1.08-5.92c0-6.846-2.226-10.76-4.761-13.001zm-18.24-19.966c.051-.695 1.139-2.003 4.873-2.032 2.657 1.504 7.37 1.086 8.18.999 1.792.017 1.938.858 1.948 1v.762c-.716-.48-1.575-.762-2.5-.762-1.953 0-3.602 1.258-4.224 3h-1.553c-.621-1.742-2.271-3-4.224-3-.925 0-1.785.282-2.501.762zm15.001 4.467c0 1.379-1.121 2.5-2.5 2.5s-2.5-1.121-2.5-2.5 1.121-2.5 2.5-2.5 2.5 1.121 2.5 2.5zm-10 0c0 1.379-1.121 2.5-2.5 2.5s-2.5-1.121-2.5-2.5 1.121-2.5 2.5-2.5 2.5 1.121 2.5 2.5zm-2.5 4.5c2.31 0 4.197-1.756 4.449-4h1.101c.252 2.244 2.139 4 4.449 4 .925 0 1.784-.282 2.5-.762v1.598c-.221.553-1.606 3.164-7.999 3.164-6.77 0-6.994-2.9-7-3v-1.762c.716.48 1.575.762 2.5.762zm4.5 6c1.121 0 2.114-.079 3-.212v2.728c-2.127 1.535-4.196.506-5-.022v-2.596c.617.06 1.269.102 2 .102zm-3.314 4.023c.894.651 2.317 1.307 3.931 1.307 1.179 0 2.46-.358 3.709-1.316.608.044 1.966.228 3.48.982-.113.314-.289.636-.57.856-.438.34-1.107.398-1.993.179l-.89-.217-.3.865c-.032.094-.829 2.321-3.053 2.321s-3.021-2.227-3.052-2.316l-.292-.878-.898.225c-.883.22-1.55.162-1.987-.175-.335-.259-.529-.676-.64-1.062 1.123-.551 2.08-.721 2.555-.771zm-7.791-3.576 1-2 .055-.131c.479-1.439-.438-3.22-1.242-4.023l-.94-.94c-.392-.596-.37-1.958.037-2.742l.903-.903.125-.152c1.175-1.764.849-3.288-1.125-5.262-.23-.23-.152-.888.233-1.953.453-1.254 2.66-5.341 12.059-5.341 6.272 0 10.366 1.876 12.17 5.576.506 1.037.476 2.896-.064 3.977-.765 1.528-.888 3.264-.347 4.885l.313.934c.571 1.427.651 2.492.222 2.922l-1.139 1.137c-.605.599-1.62 1.599-1.049 3.018l1 2c.403.806.253 1.255-.553 1.658l-1.135.568c-1.736-1.025-3.401-1.422-4.417-1.575v-2.756c4.192-1.269 4.933-3.952 4.97-4.1l.017-5.607c0-.048.012-.091.012-.137 0-.044-.012-.084-.013-.128l.013-4.372c0-1.038-.836-3-4-3l-.11.006c-2.161.241-6.102.168-7.446-1.036-.307-.275-.444-.574-.444-.97h-2c0 .387.063.755.184 1.101-5.119.604-5.184 3.752-5.184 3.899v10c0 .167.078 3.415 5 4.583v2.521c-.986.166-2.575.603-4.222 1.768l-2.388-.797c-.949-.504-1.115-1.388-.495-2.628zm-10.941 6.86c-2.996 2.184-4.954 5.71-4.954 9.693 0 1.74.374 3.44 1.09 5h-3.09c-.365 0-.691.048-1 .116v-16.289c.716-.105 1.473-.365 2.238-.817 1.33.047 4.293.53 5.716 2.297zm.046-14.541v-3.536c.505.241 1 .732 1 1.77 0 1.031-.49 1.523-1 1.766zm-20.64-6.712 1.747-1.747-.931-3.724c-.021-.087 0-.176.054-.244l1.77-.795v.456h2v-2c0-.55.159-.966.185-1.018l.64-.123c1.64-.321 4.387-.859 7.175-.859 2.496 0 4.131.807 5.089 1.516l-.796.777 1.414 1.414.909-.909c.167-.078.409-.08.666-.006.365.106.688.353.789.579l2.01 5.022c.531 1.243.484 1.627.212 1.899l-1.247 1.247c-.341-.187-.694-.313-1.046-.4v-1.139c0-.07-.103-7-9-7s-9 6.93-9 7v1.14c-.638.158-1.285.473-1.823.977l-.869-1.738c-.055-.108-.034-.239.052-.325zm1.64 4.946c0-1.03.489-1.522 1-1.765v3.535c-.505-.241-1-.732-1-1.77zm3 3v-8c0-.204.079-5 7-5 6.738 0 6.993 4.494 7 5v8c0 4.922-6.716 4.999-6.998 5-.286-.001-7.002-.078-7.002-5zm7 7c.587 0 1.273-.052 2-.174v2.604c-1.654.85-3.248.329-4-.022v-2.581c.727.121 1.413.173 2 .173zm-13 13c0-8.192 8.175-8.927 9.743-8.992.41.226 1.222.601 2.257.781v17.499c-.424.494-.706 1.073-.856 1.643l-5.144-.395v-11.536h-2v11.382l-4-.308zm0 12.08 11 .846v6.148l-11 .846zm25 5.92c0 .532-.468 1-1 1l-11 .003v-5.923-1.08c0-.334.097-2 2-2h5.303c.385 0 .697.313.697.697v.303h-2v2h2 1 2c.532 0 1 .468 1 1zm1.685-5.29c-.493-.999-1.52-1.71-2.685-1.71h-1v-.303c0-1.464-1.175-2.654-2.63-2.69-.883-1.521-1.37-3.234-1.37-5.007 0-5.514 4.486-10 10-10s10 4.486 10 10c0 1.773-.487 3.486-1.37 5.007-1.456.037-2.63 1.226-2.63 2.69v.303h-1c-1.165 0-2.192.711-2.685 1.71-1.513.357-3.112.357-4.63 0zm6.315 5.29v-4c0-.532.468-1 1-1h2 1 2v-2h-2v-.303c0-.384.313-.697.697-.697h5.303c1.826 0 1.992 1.536 2 2v1.08 5.92h-11c-.532 0-1-.468-1-1zm25 1.92-11-.843v-6.15l11-.846zm-3.929-9.544c.812-7.705-1.092-11.654-1.177-11.824l-1.791.891c.018.037 1.784 3.781.941 11.089l-5.188.399c-.376-1.425-1.528-2.931-3.856-2.931h-3.09c.716-1.56 1.09-3.26 1.09-5 0-4.261-2.238-8-5.594-10.13.328-.363.662-.682.997-.959.226.534.578 1.085 1.131 1.516.769.601 1.739.833 2.883.696.593 1.087 1.965 2.877 4.583 2.877s3.99-1.79 4.583-2.876c1.144.137 2.114-.096 2.883-.696.493-.385.817-.865 1.044-1.343 2.32 1.847 4.49 5.332 4.49 11.915v6.074z"/><circle cx="12" cy="15" r="1"/><circle cx="20" cy="15" r="1"/><path d="m21 24.388v-4.388c0-1.103-.897-2-2-2h-6c-1.103 0-2 .897-2 2v4.388l4.243-1.418c.651-.162.864-.161 1.44-.021zm-6.316-3.336-1.684.56v-1.612h6v1.614l-1.757-.584c-.478-.12-.85-.181-1.228-.181-.394.001-.795.067-1.331.203z"/></g></g></svg>