<svg id="_x33_0" enable-background="new 0 0 64 64" height="512" viewBox="0 0 64 64" width="512" xmlns="http://www.w3.org/2000/svg"><g><g><g><path d="m23 36c0 1.06.18 2.06.51 3h-8.51v8 4h2v5l-.11.35c2.29.65 4.11.65 4.11.65v5s-19 0-19-14 7-17 7-17c4 4 7 0 7 0s4 1 7 5z" fill="#75b1f2"/></g><g><path d="m49 39h-8l-.46-.14c.3-.89.46-1.85.46-2.86 1.45-1.93 2.9-3.16 4-3.92v1.92c0 1.21.79 2 2 2h6c1.21 0 2-.79 2-2v-3l.06-.21c.29.08.6.15.94.21.96.94 2.32 2.71 3.5 5.24 1.37 2.94 2.5 6.9 2.5 11.76 0 14-19 14-19 14v-5s1.82 0 4.11-.65l-.11-.35v-5h2v-4z" fill="#ff826e"/></g><g><path d="m52.55 25c1-15-6.55-9-9.55-11-.46-.3-.8-.63-1.04-.97-.15.15-.9.82-1.97 1.13-1.11.34-2.55.28-3.99-1.16-3-3 1-11 11-11s11 9 11 9 .96 4.78.06 9.67c.9-.02 1.92.31 2.94 1.33 3 3-1 6-1 6s4 4 0 8l-.5.24c-1.18-2.53-2.54-4.3-3.5-5.24-.34-.06-.65-.13-.94-.21-4.78-1.34-2.51-5.79-2.51-5.79z" fill="#656d78"/></g><g><path d="m13.47 9.89-.47.11c-4 0-4 4-4 4s-3 0-3 3 3 3 3 3v7s-7-4-7-14 8-11 11-11 11 0 11 10h-3-5s-1.69 0-2.53-2.11z" fill="#b27946"/></g><g><path d="m17 51h30v5l.11.35c-2.29.65-4.11.65-4.11.65v-2c0-.63-.37-1-1-1h-2c-.63 0-1 .37-1 1v2h-3c-.63 0-1 .37-1 1v4h-6v-4c0-.64-.36-1-1-1h-3v-2c0-.64-.36-1-1-1h-2c-.64 0-1 .36-1 1v2s-1.82 0-4.11-.65l.11-.35z" fill="#d3a06c"/></g><g><path d="m49 47v4h-2-30-2v-4z" fill="#dfb28b"/></g><g><path d="m15 39h34v8h-34z" fill="#ecc19c"/></g><g><path d="m43 57v5h-8v-4c0-.63.37-1 1-1h3v-2c0-.63.37-1 1-1h2c.63 0 1 .37 1 1z" fill="#f0d0b4"/></g><g><path d="m29 58v4h-8v-5-2c0-.64.36-1 1-1h2c.64 0 1 .36 1 1v2h3c.64 0 1 .36 1 1z" fill="#f0d0b4"/></g><g><path d="m43 14c3 2 10.55-4 9.55 11 0 0-2.27 4.45 2.51 5.79l-.06.21v3c0 1.21-.79 2-2 2h-6c-1.21 0-2-.79-2-2v-1.92c1.2-.81 2-1.08 2-1.08v-4l-.18-.4c-1.44.62-3.18 1.21-4.82 1.4-.56.06-1-.44-1-1v-3-2h-2c-.53 0-1.2-.51-1-1 .58-1.41 1.95-4.12 1.99-6.84 1.07-.31 1.82-.98 1.97-1.13.24.34.58.67 1.04.97z" fill="#f0d0b4"/></g><g><path d="m21 18 2 3c.44.59-.27 1-1 1h-1v2 4s-2.45.49-4.95-.24l-.05.24v3s-3 4-7 0v-4-7s-3 0-3-3 3-3 3-3 0-4 4-4l.47-.11c.84 2.11 2.53 2.11 2.53 2.11h5z" fill="#f0d0b4"/></g><g><path d="m37.66 43h-11.31l-.35-.29c-1.11-1-1.98-2.27-2.49-3.71-.33-.94-.51-1.94-.51-3 0-4.97 4.03-9 9-9s9 4.03 9 9c0 1.01-.16 1.97-.46 2.86-.55 1.65-1.56 3.07-2.88 4.14z" fill="#fcd770"/></g></g><g><path d="m61.384 28.089c.696-.724 1.617-1.944 1.722-3.417.087-1.227-.384-2.364-1.399-3.379-.828-.829-1.677-1.282-2.499-1.491.624-4.618-.188-8.798-.214-8.913-.011-.098-1.223-9.889-11.994-9.889-7.067 0-11.114 3.716-12.432 6.898-.932 2.251-.661 4.423.725 5.809 1.201 1.202 2.446 1.627 3.587 1.63-.274 1.716-.986 3.378-1.497 4.559-.116.268-.221.511-.309.726-.192.471-.131.997.169 1.443.376.56 1.082.935 1.757.935h1v4c0 .588.247 1.146.678 1.531.347.31.775.475 1.225.475.069 0 .139-.004.209-.012 1.315-.149 2.663-.536 3.887-.989v2.338c-.883.428-2.516 1.4-4.297 3.282-1.069-4.369-5.007-7.625-9.702-7.625-4.716 0-8.669 3.284-9.718 7.683-2.043-2.011-4.177-3.005-5.282-3.41v-1.284c.734.122 1.436.173 2.043.173 1.209 0 2.065-.164 2.153-.182l.804-.16v-5.82c.714 0 1.61-.268 1.985-1.018.251-.502.182-1.094-.153-1.537l-1.832-2.748v-4.697h3v-1c0-11-9.032-11-12-11-2.815 0-12 .865-12 12 0 8.998 5.316 13.379 7 14.542v2.865c-1.813 1.115-7 5.373-7 17.593 0 14.829 19.8 15 20 15h22c.2 0 20-.171 20-15 0-4.53-.974-8.359-2.241-11.35 3.145-3.199 2.032-6.637.625-8.561zm-24.968-19.425c1.082-2.613 4.503-5.664 10.584-5.664 8.955 0 9.968 7.782 10.02 8.195.009.045.81 4.185.178 8.555-1.245.243-2.293.932-2.905 1.543l1.414 1.414c.235-.234 2.358-2.227 4.586 0 .593.593.861 1.188.818 1.817-.081 1.19-1.264 2.336-1.711 2.676l-.912.689.802.815c.314.318 2.826 3.033.537 5.985-1.07-2.025-2.221-3.521-3.129-4.406l-.225-.219-.309-.051c-1.516-.253-2.494-.792-2.907-1.602-.646-1.267.178-2.945.184-2.958l.093-.183.014-.205c.349-5.237-.272-8.476-1.955-10.195-1.575-1.608-3.701-1.51-5.413-1.432-1.067.05-2.076.096-2.625-.271-2.037-1.358-.957-3.252-.723-3.613l-1.664-1.109c-.064.097-.635.981-.785 2.181-.095.758.011 1.474.286 2.13-.239.151-.52.307-.86.42-1.118.374-2.133.084-3.102-.883-.794-.795-.903-2.151-.291-3.629zm10.9 23.285.684-.228v-4.549c1.438-.666 2.435-1.266 2.52-1.317l-1.04-1.708c-.04.024-3.992 2.41-7.48 2.847v-1.767c.198.02.4.034.606.034 1.25 0 2.592-.42 3.288-1.813l-1.789-.895c-.378.755-1.407.748-2.105.645v-2.198h-2.915c.042-.099.087-.202.134-.31.627-1.45 1.535-3.554 1.737-5.803.332-.147.636-.318.91-.501.179.156.37.306.579.445 1.096.73 2.483.667 3.827.605 1.512-.07 2.943-.136 3.892.834 1.205 1.23 1.676 4.083 1.401 8.479-.283.65-1.027 2.708-.097 4.554.49.972 1.342 1.698 2.532 2.178v2.519c0 .664-.336 1-1 1h-6c-.664 0-1-.336-1-1v-1.369c.795-.495 1.307-.679 1.316-.682zm-31.316 18.051v-2h32v2zm32-4h-32v-6h6.843c.31.707.702 1.377 1.169 2h-2.012v2h19v-2h-1.009c.468-.621.856-1.292 1.165-2h6.844zm-16-18c4.411 0 8 3.589 8 8 0 2.315-.995 4.478-2.726 6h-4.274v-2h3v-5h-6v-1h6v-2h-3v-2h-2v2h-3v5h6v1h-6v2h3v2h-4.289l-.044-.037c-1.695-1.517-2.667-3.691-2.667-5.963 0-4.411 3.589-8 8-8zm-10.2-7h-1.8v2.167c-1.139.157-2.722.152-3.105-.615l-1.789.895c.729 1.458 2.375 1.808 3.785 1.808.398 0 .775-.029 1.109-.067v1.931c-1.417.116-4.38.087-6.293-1.826l-1.414 1.414c.817.817 1.755 1.365 2.707 1.738v2.178c-.356.369-1.164 1.072-2.221 1.147-.894.07-1.828-.362-2.779-1.222v-11.548h-1c-.334 0-2-.096-2-2 0-1.827 1.537-1.993 2-2l.989-.006.011-.989c.006-.496.178-2.946 2.912-3 1.172 1.961 3.06 1.995 3.088 1.995h4v5.303zm-18.8-8c0-9.025 6.993-10 10-10 2.877 0 9.466 0 9.969 8h-6.947c-.207-.01-2.022-.207-2.022-4h-2c0 .793.075 1.475.198 2.072-2.734.35-3.832 2.42-4.116 4.034-1.468.334-3.082 1.483-3.082 3.894 0 2.366 1.555 3.517 3 3.874v4.12c-1.922-1.718-5-5.481-5-11.994zm0 35c0-10.815 4.34-14.723 5.867-15.765 1.201 1.023 2.447 1.542 3.718 1.542.111 0 .223-.004.334-.012 1.589-.113 2.758-1.014 3.378-1.619 1.088.397 3.625 1.557 5.722 4.228.021.549.079 1.093.188 1.625h-8.207v14h2v3c-2.309-.854-4.813-2.434-6.081-5.394-1.288-3.006-1.172-5.575-.927-7.478l-1.983-.256c-.256 1.987-.423 5.032 1.073 8.522 2.642 6.165 9.364 7.332 11.919 7.553v3.019c-3.817-.21-17.001-1.753-17.001-12.965zm19 13 .009-6 1.991.009v2.991l4 .009v2.991zm8 0v-3c0-1.196-.804-2-2-2h-2v-1c0-1.196-.804-2-2-2h-2c-1.196 0-2 .804-2 2v.93c-.522-.055-1.211-.155-2-.333v-3.597h28v3.596c-.789.179-1.478.279-2 .333v-.929c0-1.178-.822-2-2-2h-2c-1.178 0-2 .822-2 2v1h-2c-1.178 0-2 .822-2 2v3zm6 0 .008-3h3.992l.008-3 1.992.008v5.992zm8-.034v-3.019c2.555-.221 9.277-1.388 11.919-7.553 1.219-2.844 1.196-5.336 1.08-7.449l-1.997.11c.104 1.887.128 4.104-.92 6.551-1.269 2.96-3.773 4.54-6.082 5.394v-3h2v-14h-8.21c.108-.532.169-1.077.189-1.629.697-.901 1.389-1.632 2.034-2.219.071 1.682 1.273 2.848 2.987 2.848h6c1.767 0 3-1.233 3-3v-1.523c2.121 2.522 5 7.924 5 15.523 0 11.212-13.184 12.755-17 12.966z"/><path d="m14.707 15.293-1.414 1.414c.856.856 1.778 1.177 2.637 1.177 1.134 0 2.158-.558 2.777-1.177l-1.408-1.42c-.311.299-1.413 1.184-2.592.006z"/><circle cx="43" cy="18" r="1"/></g></g></svg>