<svg id="_x33_0" enable-background="new 0 0 64 64" height="512" viewBox="0 0 64 64" width="512" xmlns="http://www.w3.org/2000/svg"><g><g><g><path d="m38 2s-8 12-24 3v24s0 3.29 1.49 8v.02l4.48 9.18.03.3c3.52 5.39 9.12 11.06 18 15.5 24-12 24-33 24-33v-24c-16 9-24-3-24-3z" fill="#ccd1d9"/></g><g><circle cx="38" cy="22" fill="#fcd770" r="11"/></g><g><path d="m22 38v8l-2.03.2-17.97 1.8v-13l13.49 2.02z" fill="#b4dd7f"/></g><g><path d="m37 38 5-.2c1.13 0 1.89 1.17 1.41 2.2-1.62 3.47-6.76 9.66-21.41 6v-8s1-2 5-2h8.53c.81 0 1.47.66 1.47 1.47z" fill="#f0d0b4"/></g></g><g><path d="m38 10c-6.617 0-12 5.383-12 12s5.383 12 12 12 12-5.383 12-12-5.383-12-12-12zm0 22c-5.514 0-10-4.486-10-10s4.486-10 10-10 10 4.486 10 10-4.486 10-10 10z"/><path d="m39 15h-2v2h-4v6h8v2h-8v2h4v2h2v-2h4v-6h-8v-2h8v-2h-4z"/><path d="m61.51 4.129c-14.964 8.415-22.371-2.229-22.678-2.684l-.829-1.239-.833 1.237c-.309.457-7.716 11.103-22.68 2.686l-1.49-.839v25.71c0 .125.017 2.812 1.096 6.803l-13.096-1.964v15.267l18.322-1.832c4.287 6.455 10.414 11.712 18.231 15.621l.447.223.447-.224c24.272-12.135 24.553-33.678 24.553-33.894v-25.71zm-58.51 32.032 18 2.7v6.233l-18 1.8zm32.534 4.839c1.214 0 2.226-.882 2.429-2.038l4.037-.161c.275 0 .42.18.469.258.06.094.143.285.034.518-1.301 2.78-5.793 8.799-19.503 5.631v-6.892c.307-.374 1.34-1.316 4-1.316h8.534c.257 0 .466.209.466.466v1.068c0 .257-.209.466-.466.466h-6.534v2zm25.466-12.001c0 .202-.316 20.28-23 31.881-6.927-3.542-12.421-8.199-16.392-13.835l.32-.032c15.619 3.84 20.858-3.32 22.388-6.589.37-.79.311-1.702-.158-2.438-.471-.741-1.276-1.184-2.194-1.184 0 0-.001 0-.002 0l-4.012.16c-.235-1.119-1.229-1.962-2.416-1.962h-8.534c-3.191 0-4.759 1.158-5.445 1.922l-5.288-.793c-1.241-4.184-1.267-7.1-1.267-7.129v-22.337c12.807 6.392 20.563-.356 23-3.078 2.436 2.722 10.191 9.469 23 3.078z"/></g></g></svg>