<svg id="_x33_0" enable-background="new 0 0 64 64" height="512" viewBox="0 0 64 64" width="512" xmlns="http://www.w3.org/2000/svg"><g><g><g><path d="m58 45.8 4-.8v7l-4-.67-1.03-.17.03-.16v-5z" fill="#75b1f2"/></g><g><path d="m24 52.25v9.75h-16v-15c2.31 5.2 9.95 5.73 16 5.25z" fill="#b4dd7f"/></g><g><path d="m24 42v5l-.02.8c1.97.07 4.29-.16 7.02-.8l1 4s-3.57.9-8 1.25c-6.05.48-13.69-.05-16-5.25-3.53-7.93-1.61-11.98 3-14.2.62-.3 1.29-.56 2-.8 1.41-.47 2.76-.44 4-.07 4.07 1.24 7 6.24 7 10.07z" fill="#b4dd7f"/></g><g><path d="m23 13.32c-2.84.85-6.21 1.36-8-1.32-5 0-4 5-4 5s-3 0-3 3 3 3 3 3v5s-9-4-9-11 2-15 15-15 10 10 7 11c-.32.11-.66.21-1 .32z" fill="#656d78"/></g><g><path d="m48 47.71v1.58 7.71h-4v-21h4z" fill="#ffeaa7"/></g><g><path d="m48 32v4h-4v-4h2z" fill="#fcd770"/></g><g><path d="m46 32c1-7 8-10 8-6s-6 6-6 6z" fill="#ff826e"/></g><g><path d="m46 32h-2s-6-2-6-6 7-1 8 6z" fill="#ff826e"/></g><g><path d="m58 51.33v5.67h-10v-7.71c0 .94.77 1.71 1.71 1.71h6.29l.97.16z" fill="#dfb28b"/></g><g><path d="m58 36v9.8l-1 .2-.46-.91c-.33-.67-1.01-1.09-1.76-1.09h-1.13c-.91 0-1.65.74-1.65 1.65v.35h-2.29c-.94 0-1.71.77-1.71 1.71v-11.71z" fill="#dfb28b"/></g><g><path d="m39.22 46.11c-.12-.59-.72-.94-1.3-.75l-1.92.64-.48-.96c-.33-.66-.82-1.27-1.52-1.04v-8h10v21h-10v-5l-.01-.72c1.53 0 3.18-.38 4.36-.73.95-.27 1.51-1.23 1.32-2.2z" fill="#dfb28b"/></g><g><path d="m60 32v4h-2-10v-4z" fill="#cf9e76"/></g><g><path d="m44 32v4h-10-2v-4z" fill="#cf9e76"/></g><g><path d="m57 46v5l-.03.16-.97-.16h-6.29c-.94 0-1.71-.77-1.71-1.71v-1.58c0-.94.77-1.71 1.71-1.71h2.29v-.35c0-.91.74-1.65 1.65-1.65h1.13c.75 0 1.43.42 1.76 1.09z" fill="#f0d0b4"/></g><g><path d="m39.67 48.35c.19.97-.37 1.93-1.32 2.2-1.18.35-2.83.73-4.36.73-.71 0-1.39-.08-1.99-.28l-1-4s-1-1 1-2c.7-.35 1.55-.85 2-1 .7-.23 1.19.38 1.52 1.04l.48.96 1.92-.64c.58-.19 1.18.16 1.3.75z" fill="#f0d0b4"/></g><g><path d="m23 19 1 1c.36.36 2 2 1 2h-2v2h-4s0 2.96 3.92 3c-.3 1.14-1.34 1.98-2.57 2-1.11.01-2.29-.01-3.28-.28l-.07.28v2.93c-1.24-.37-2.59-.4-4 .07-.71.24-1.38.5-2 .8v-4.8-5s-3 0-3-3 3-3 3-3-1-5 4-5c1.79 2.68 5.16 2.17 8 1.32z" fill="#f0d0b4"/></g><g><path d="m23 24v2.34c0 .23-.03.45-.08.66-3.92-.04-3.92-3-3.92-3z" fill="#ff826e"/></g></g><g><path d="m21.707 17.707-1.408-1.42c-.311.299-1.413 1.185-2.592.006l-1.414 1.414c.856.856 1.778 1.177 2.637 1.177 1.134 0 2.158-.558 2.777-1.177z"/><path d="m63 43.78-4 .8v-7.58h2v-6h-8.985c1.544-1.139 2.985-2.788 2.985-5 0-1.613-.906-2.68-2.365-2.783-2-.144-5.016 1.815-6.634 5.303-1.612-3.484-4.618-5.438-6.636-5.303-1.459.103-2.365 1.17-2.365 2.783 0 2.212 1.441 3.861 2.985 5h-8.985v6h2v6.348c-.231.115-.477.246-.731.382-.242.13-.487.262-.716.376-1.053.526-1.652 1.19-1.779 1.973-.009.056 0 .106-.003.161-1.714.352-3.311.552-4.771.58v-4.82c0-3.493-2.15-7.579-5.113-9.715-.613-.442-1.244-.787-1.887-1.051v-1.334c.647.078 1.284.101 1.836.101.187 0 .363-.001.528-.003 2.005-.02 3.636-1.66 3.636-3.655v-3.343h1c.85 0 1.154-.575 1.228-.751.352-.852-.291-1.729-1.521-2.956l-.707-.707v-4.533c.108-.036.219-.072.316-.105 1.928-.643 3.705-3.703 3.196-6.838-.297-1.837-1.919-6.11-10.512-6.11-10.767 0-16 5.233-16 16 0 6.553 6.9 10.558 9 11.626v3.574c-1.996 1.075-3.362 2.449-4.121 4.168-1.22 2.767-.848 6.315 1.121 10.828v15.804h18v-9.832c3.442-.335 6.203-.95 7.016-1.144.318.084.643.153.984.19v5.786h10 6 10v-5.486l4 .667zm-14 3.93c0-.392.318-.71.71-.71h3.29v-1.349c0-.359.292-.651.651-.651h1.13c.371 0 .704.206.869.537l.35.699v3.777l-6.29-.013c-.392 0-.71-.318-.71-.71zm8-3.713c-.555-.626-1.352-.997-2.219-.997h-1.13c-1.237 0-2.279.852-2.57 2h-1.371c-.247 0-.482.044-.71.106v-8.106h8zm2-8.997h-10v-2h10zm-12-2v2h-2v-2zm5.493-7.789c.202.015.507.036.507.789 0 2.599-3.608 4.439-5.174 5h-.6c.983-3.774 3.844-5.867 5.267-5.789zm-13.493.789c0-.753.305-.774.507-.789 1.417-.097 4.283 2.011 5.267 5.789h-.597c-.809-.306-5.177-2.09-5.177-5zm-6 7h10v2h-10zm-.553 12.895c.245-.122.508-.264.767-.402.392-.21.88-.472 1.023-.553.001.001.157.084.389.549l.868 1.734 2.749-.914.447 2.238c.092.459-.18.919-.62 1.047-2.14.625-3.972.831-5.243.589l-.974-3.897c.094-.093.266-.228.594-.391zm-12.09-20.895h1.643v.915c-.872-.163-1.365-.537-1.643-.915zm-17.357-8c0-6.519 1.591-14 14-14 5.042 0 8.075 1.573 8.539 4.432.362 2.23-.987 4.33-1.855 4.62-3.013 1.004-6.302 1.718-7.852-.606-.31-.465-.643-1.126-.473-1.638.191-.573.958-.859.957-.859l-.633-1.896c-.172.057-1.701.604-2.213 2.099-.217.633-.186 1.312.037 2.021-1.048.232-1.9.71-2.517 1.462-.923 1.126-1.085 2.556-1.069 3.513-1.422.377-2.921 1.529-2.921 3.852 0 2.366 1.555 3.517 3 3.874v2.469c-2.392-1.389-7-4.67-7-9.343zm8 5c-.334 0-2-.097-2-2 0-1.826 1.537-1.992 2-2h1.22l-.239-1.196c-.003-.018-.333-1.817.557-2.902.419-.511 1.101-.794 2.002-.869 1.959 2.36 5.07 2.165 7.461 1.597v4.784l1.293 1.294c.105.104.2.202.286.292h-1.58v2h-4v1c0 1.137.71 3.104 3.157 3.77-.241.139-.516.225-.813.228-2.368.024-4.021-.192-4.395-1.314l-1.897.633c.347 1.041 1.08 1.667 1.949 2.059v1.337c-1.096-.133-2.209-.03-3.316.34-.239.08-.457.168-.684.253v-9.306zm12 39h-14v-10.951c2.797 2.583 7.344 3.34 11.688 3.34.782 0 1.556-.026 2.313-.068v7.679zm-14.086-14.406c-1.784-4.016-2.189-7.185-1.204-9.419.82-1.859 2.654-3.242 5.607-4.227.625-.208 1.222-.296 1.783-.296 1.501 0 2.749.629 3.618 1.256 2.441 1.76 4.282 5.238 4.282 8.092v4.747c-2.167-.206-3.991-.838-5.457-1.895-3.182-2.293-3.544-5.903-3.547-5.939l-1.993.17c.015.184.419 4.521 4.338 7.368 3.291 2.392 7.971 2.973 13.924 1.736l.515 2.061c-3.956.833-18.725 3.414-21.866-3.654zm26.086 9.406v-3.775c1.289-.111 2.575-.402 3.631-.711 1.45-.424 2.318-1.868 2.02-3.359l-.447-2.238c-.112-.563-.461-1.051-.958-1.339s-1.094-.351-1.638-.167l-1.101.367-.091-.184c-.439-.875-.946-1.294-1.416-1.488v-6.106h8v19zm10 0v-19h2v10.71 1.58 6.71zm12 0h-8v-4.106c.228.062.463.106.71.106h6.208l1.082.18zm4-5.181-3-.5v-3.5l3-.6z"/></g></g></svg>