<svg id="_x33_0" enable-background="new 0 0 64 64" height="512" viewBox="0 0 64 64" width="512" xmlns="http://www.w3.org/2000/svg"><g><g><g><path d="m18 7h18.78c-.79 1.2-1.34 2.57-1.6 4.03l-.18-.03h-17z" fill="#e6e9ed"/></g><g><path d="m48 24v38h-40v-41h10v-2h18.78c1.96 3.01 5.36 5 9.22 5 .67 0 1.33-.06 1.97-.18z" fill="#e6e9ed"/></g><g><path d="m35 13c0 2.22.65 4.28 1.78 6h-18.78v-8h17l.18.03c-.12.64-.18 1.3-.18 1.97z" fill="#ffeaa7"/></g><g><path d="m40 31v19h-24v-19z" fill="#f0d0b4"/></g><g><path d="m16 26h24v5h-24z" fill="#b4dd7f"/></g><g><path d="m18 19v2h-10l10-14v4z" fill="#b4dd7f"/></g><g><path d="m36.78 19c-1.13-1.72-1.78-3.78-1.78-6 0-.67.06-1.33.18-1.97.26-1.46.81-2.83 1.6-4.03 1.96-3.01 5.36-5 9.22-5 6.08 0 11 4.92 11 11 0 5.41-3.89 9.9-9.03 10.82-.64.12-1.3.18-1.97.18-3.86 0-7.26-1.99-9.22-5z" fill="#fcd770"/></g><g><path d="m31.07 35c3 0 6 4 2 7s-5.07 4-5.07 4-1.07-1-5.07-4-1-7 2-7c1.07 0 3 2 3 2s2.07-2 3.14-2z" fill="#ff826e"/></g></g><g><path d="m46 1c-4.004 0-7.546 1.978-9.727 5h-18.788l-10.485 14.68v42.32h42v-38.395c5.167-1.337 9-6.026 9-11.605 0-6.617-5.383-12-12-12zm-27 7h16.105c-.294.639-.531 1.307-.71 2h-15.395zm0 4h15.051c-.028.331-.051.662-.051 1 0 1.786.403 3.476 1.105 5h-16.105zm-2-1.88v9.88h-7.057zm30 50.88h-38v-39h10v-2h17.273c2.181 3.022 5.723 5 9.727 5 .338 0 .669-.023 1-.051zm-1-38c-5.514 0-10-4.486-10-10s4.486-10 10-10 10 4.486 10 10-4.486 10-10 10z"/><path d="m47 6h-2v2h-4v6h8v2h-8v2h4v2h2v-2h4v-6h-8v-2h8v-2h-4z"/><path d="m15 51h26v-26h-26zm2-24h22v3h-22zm0 5h22v17h-22z"/><path d="m15 53h12v2h-12z"/><path d="m29 53h12v2h-12z"/><path d="m15 57h14v2h-14z"/><path d="m31.072 34c-.997 0-2.255.894-3.122 1.631-.823-.741-2.018-1.631-3.022-1.631-2.038 0-4.062 1.462-4.708 3.4-.647 1.941.121 3.909 2.108 5.399 3.873 2.905 4.98 3.923 4.991 3.933l.682.629.68-.629c.011-.01 1.118-1.027 4.991-3.933 1.987-1.49 2.756-3.458 2.108-5.399-.646-1.938-2.67-3.4-4.708-3.4zm1.401 7.2c-2.399 1.799-3.759 2.889-4.473 3.482-.714-.594-2.073-1.684-4.473-3.482-1.29-.969-1.778-2.063-1.41-3.167.38-1.14 1.614-2.033 2.805-2.033.366.027 1.456.835 2.286 1.694l.694.718.72-.692c.908-.874 2.078-1.694 2.45-1.72 1.196 0 2.431.893 2.811 2.033.368 1.104-.12 2.198-1.41 3.167z"/><path d="m31 57h10v2h-10z"/><path d="m21 14h11v2h-11z"/></g></g></svg>