<svg id="_x33_0" enable-background="new 0 0 64 64" height="512" viewBox="0 0 64 64" width="512" xmlns="http://www.w3.org/2000/svg"><g><g><g><path d="m47 38.55c1.04-.95 2.35-1.55 4-1.55.34 0 .67.02.99.05 7.01.72 6.97 9.17 6.01 13.95-1 5-6 11-12 11s-10-11-11-16l5-1s.44 3.52 2.79 6.18l.21-.18s0-8.82 4-12.45z" fill="#75b1f2"/></g><g><path d="m21.21 51.18c2.35-2.66 2.79-6.18 2.79-6.18l5 1c-1 5-5 16-11 16s-11-6-12-11c-.56-2.81-.81-6.87.5-9.9.64-1.5 1.67-2.74 3.22-3.45.9-.42 1.99-.65 3.28-.65.35 0 .68.03.99.08 7.01 1.1 7.01 13.92 7.01 13.92z" fill="#ff826e"/></g><g><path d="m40.02 16.88c-2.26-.31-2.44-1.27-.02-2.88 3-2 10-2 10-2s10 0 10 10-8 12-8 12v-5s2 0 2-2-2-2-2-2v-4h-6.45c-1.01.81-2.74 1.29-4.52 1.25-.68 0-1.37-.08-2.03-.25-4-1 1-5 1-5z" fill="#656d78"/></g><g><path d="m20 20-.25.19c-.32-.56-1.06-1.19-2.75-1.19-3 0-2 2-6 2-.38 0-.7-.04-.97-.1l-.03.1s-1 .98-1 3c0 3 2 3 2 8 0 2.5-1.25 3.5-2.38 3.5l1.1 2.15c-1.55.71-2.58 1.95-3.22 3.45l-.5-.1s-3 0-3-4 1-4 1-8-1-4-1-10 5-8 10-8 9 2 9 5-2 4-2 4z" fill="#fcd770"/></g><g><path d="m52 37-.01.05c-.32-.03-.65-.05-.99-.05-1.65 0-2.96.6-4 1.55v-4.55l-.06-.07c-1.05.9-2.66 1.56-3.94 2.07-.93.37-2 0-2-1v-4s-2 0-2-1 2-3 2-3v-4l.03-.75c1.78.04 3.51-.44 4.52-1.25h6.45v4s2 0 2 2-2 2-2 2v5z" fill="#f0d0b4"/></g><g><path d="m40 45-5 1s-2-2-2-4 5-2 6-1 1 4 1 4z" fill="#f0d0b4"/></g><g><path d="m25 41c1-1 6-1 6 1s-2 4-2 4l-5-1s0-3 1-4z" fill="#f0d0b4"/></g><g><path d="m20 21v5s2 2 2 3-2 1-2 1v2c0 1.31-.75 2.42-2 2l-4-1v4l-.01.08c-.31-.05-.64-.08-.99-.08-1.29 0-2.38.23-3.28.65l-1.1-2.15c1.13 0 2.38-1 2.38-3.5 0-5-2-5-2-8 0-2.02 1-3 1-3l.03-.1c.27.06.59.1.97.1 4 0 3-2 6-2 1.69 0 2.43.63 2.75 1.19.25.43.25.81.25.81z" fill="#f0d0b4"/></g></g><g><path d="m53 36.197v-1.487c2.119-.83 8-3.924 8-12.71 0-10.874-10.89-11-11-11-.298 0-7.34.024-10.555 2.168-1.103.735-2.522 1.865-2.123 3.187.127.418.396.746.82.998-.937.985-1.929 2.384-1.643 3.697.143.654.65 1.519 2.258 1.92.408.102.824.174 1.242.222v3.402c-.769.812-2 2.287-2 3.406 0 1.126.939 1.698 2 1.906v3.094c0 .716.329 1.351.904 1.739.392.266.875.401 1.379.401.361 0 .733-.07 1.088-.211.768-.307 1.724-.69 2.629-1.181v2.35c-2.666 2.718-3.557 7.455-3.853 10.378-.866-1.713-1.112-3.291-1.149-3.556-.005-.694-.101-3.435-1.292-4.626-1.117-1.117-4.289-1.206-6.004-.495-1.479.613-1.701 1.642-1.701 2.201 0 2.005 1.496 3.839 2.079 4.479.983 4.586 5.029 16.521 11.921 16.521 6.353 0 11.841-6.104 12.98-11.804.391-1.952 1.416-8.623-1.774-12.515-1.07-1.304-2.482-2.133-4.206-2.484zm-13.758-15.167c-.543-.136-.769-.317-.788-.406-.1-.456.849-1.722 1.991-2.689.466.04.972.065 1.555.065v-2c-1.5 0-2.236-.146-2.58-.258.171-.188.501-.488 1.135-.91 2.25-1.5 7.581-1.831 9.445-1.832.367 0 9 .103 9 9 0 6.807-3.923 9.569-6 10.554v-2.72c1.006-.333 2-1.195 2-2.833s-.994-2.5-2-2.833v-4.168h-5.637c.202-.824.03-1.713-.531-2.555l-1.664 1.109c.439.659.288 1.038.107 1.294-.76 1.079-3.501 1.815-6.033 1.182zm3.387 14.041c-.283.114-.521.069-.629-.071v-5h-1c-.293 0-.714-.064-.949-.151.199-.463.915-1.398 1.656-2.142l.293-.293v-4.188c1.479-.118 2.855-.549 3.853-1.225h5.147l.014 3.975.974.024c.462.012 1.012.195 1.012 1s-.55.988-1 1h-1v8c-1.142 0-2.129.252-3 .666v-2.383c.602-.638 1-1.388 1-2.284h-2c0 1.327-2.952 2.506-4.371 3.072zm-8.629 6.929c0-.098.198-.232.395-.322 1.233-.562 3.483-.33 3.898.029.356.356.582 1.484.667 2.481l-3.596.719c-.56-.673-1.364-1.862-1.364-2.907zm23.02 8.804c-.965 4.822-5.728 10.196-11.02 10.196-4.89 0-8.571-9.146-9.802-14.22l3.021-.604c.583 2.363 2.59 7.95 8.639 8.814l.967.138.161-.962c.01-.059 1.009-5.88 3.871-10.65l-1.715-1.029c-2.354 3.925-3.505 8.375-3.93 10.337-1.344-.355-2.403-1.021-3.237-1.823h.025c0-.13.08-13 7-13 2.06 0 3.584.638 4.659 1.95 2.093 2.551 2.075 7.279 1.361 10.853z"/><path d="m30.297 39.798c-1.716-.711-4.887-.621-6.004.495-1.191 1.191-1.287 3.934-1.292 4.626-.032.219-.282 1.794-1.153 3.518-.39-3.828-1.806-10.697-6.848-12.148v-2.009l2.684.669c.772.258 1.53.158 2.139-.28.737-.532 1.177-1.529 1.177-2.669v-1.094c1.061-.208 2-.78 2-1.906 0-1.119-1.231-2.594-2-3.406v-4.594c0-.133-.015-.282-.046-.44.746-.575 2.046-1.95 2.046-4.56 0-3.477-4.206-6-10-6-6.888 0-11 3.364-11 9 0 3.404.316 4.955.596 6.322.217 1.063.404 1.981.404 3.678 0 1.877-.229 2.791-.47 3.757-.26 1.042-.53 2.12-.53 4.243 0 3.244 1.759 4.528 3.155 4.886-1.089 3.638-.432 7.83-.136 9.31 1.14 5.7 6.628 11.804 12.981 11.804 6.892 0 10.938-11.935 11.921-16.521.583-.64 2.079-2.474 2.079-4.479 0-.559-.222-1.588-1.703-2.202zm-26.297-2.798c0-1.877.229-2.791.47-3.757.26-1.042.53-2.12.53-4.243 0-1.899-.216-2.957-.444-4.078-.274-1.337-.556-2.72-.556-5.922 0-6.318 6.294-7 9-7 4.561 0 8 1.72 8 4 0 1.62-.69 2.476-1.122 2.858-.618-.492-1.526-.858-2.878-.858-1.747 0-2.51.619-3.122 1.116-.584.474-1.089.884-2.878.884-.412 0-1.139-.056-1.374-.434-.295-.474-.014-1.546.269-2.119l-1.789-.895c-.123.247-1.176 2.455-.182 4.063.174.282.408.506.669.703-.306.615-.593 1.505-.593 2.682 0 1.552.469 2.46.922 3.338.53 1.026 1.078 2.087 1.078 4.662 0 1.239-.372 2.143-.994 2.418-.317.141-.688.096-.92-.115-.296-.269-.238-.685-.138-.986l-1.896-.633c-.396 1.188-.139 2.347.688 3.099.52.472 1.192.718 1.883.718.401 0 .808-.083 1.192-.253.657-.291 2.185-1.287 2.185-4.248 0-3.061-.722-4.458-1.301-5.58-.406-.786-.699-1.354-.699-2.42 0-1.041.313-1.706.524-2.041.16.013.305.041.476.041 2.498 0 3.407-.738 4.139-1.331.513-.417.824-.669 1.861-.669 1.841 0 1.989.857 2 1v5.414l.293.292c.747.749 1.468 1.692 1.659 2.14-.223.084-.626.152-.952.154h-1v3c0 .547-.18.925-.347 1.046-.034.023-.111.081-.411-.016l-5.242-1.311v4.281c-2.659 0-4.747.902-6.206 2.682-.335.409-.614.853-.862 1.315-.346-.028-1.932-.297-1.932-2.997zm14 24c-5.292 0-10.055-5.374-11.02-10.196-.715-3.573-.732-8.301 1.36-10.854 1.076-1.312 2.6-1.95 4.66-1.95 6.89 0 6.999 12.805 7 12.999-.831.802-1.884 1.468-3.214 1.822-.425-1.962-1.574-6.412-3.929-10.336l-1.715 1.029c2.862 4.77 3.861 10.592 3.871 10.65l.161.963.967-.138c6.049-.864 8.056-6.451 8.639-8.814l3.021.604c-1.23 5.075-4.911 14.221-9.801 14.221zm10.636-16.093-3.596-.719c.085-.996.311-2.124.663-2.477.421-.364 2.669-.597 3.902-.033.197.09.395.224.395.322 0 1.045-.805 2.234-1.364 2.907z"/><path d="m47.684 24.771c-2.051.685-2.729-.392-2.799-.517l-1.779.913c.37.74 1.468 1.829 3.336 1.829.557 0 1.181-.096 1.875-.328z"/><path d="m17.895 23.447-1.789-.895c-.006.012-.637 1.216-2.789.499l-.633 1.897c.694.231 1.318.328 1.875.328 1.867 0 2.965-1.089 3.336-1.829z"/><path d="m22 3.469h2v8.062h-2z" transform="matrix(.868 -.496 .496 .868 -.691 12.399)"/><path d="m36.969 6.5h8.062v2h-8.062z" transform="matrix(.496 -.868 .868 .496 14.147 39.377)"/><path d="m31 2h2v8h-2z"/></g></g></svg>