<svg id="_x33_0" enable-background="new 0 0 64 64" height="512" viewBox="0 0 64 64" width="512" xmlns="http://www.w3.org/2000/svg"><g><g><g><path d="m45 62h-5v-6.88c1.41-.41 2.61-.87 3.61-1.37.77 2.02 1.39 4.74 1.39 8.25z" fill="#e6e9ed"/></g><g><path d="m24 56.19v5.81h-5c0-3.05.47-5.5 1.09-7.41 1.1.66 2.4 1.21 3.91 1.6z" fill="#e6e9ed"/></g><g><path d="m43.77 32.78c2.72 2.43 5.23 6.28 5.23 12.22 0 2.9-.53 6.33-5.39 8.75-1 .5-2.2.96-3.61 1.37-1.17.33-2.49.63-3.98.88v-3c0-.53-.48-1-1-1 .26-.06 2.78-.66 5.09-1.78l-.11-.22v-8h-6-4-6v9l-.01.03c1.04.42 2.36.76 4.03.97v4.87c-1.48-.13-2.82-.35-4.02-.68-1.51-.39-2.81-.94-3.91-1.6-3.54-2.13-5.09-5.52-5.09-9.59 0-6.32 2.83-10.27 5.75-12.67 1.53-1.26 3.08-2.09 4.25-2.6v.27s0 8 5 8c.81 0 1.47-.09 2-.26.53.16 1.19.26 2 .26 5 0 5-8 5-8v-.27c1.31.57 3.08 1.53 4.77 3.05z" fill="#e6e9ed"/></g><g><path d="m32 37.74c-1.47-.42-2-1.33-2-2.08 0-1.26.67-1.85.77-1.93.34.17.75.27 1.23.27 3 0 3-4 3-4v-.31c.76-.17 1.42-.4 2-.69 0 0 .81.2 2 .73v.27s0 8-5 8c-.81 0-1.47-.1-2-.26z" fill="#ccd1d9"/></g><g><path d="m30 35.66c0 .75.53 1.66 2 2.08-.53.17-1.19.26-2 .26-5 0-5-8-5-8v-.27c1.19-.53 2-.73 2-.73.58.29 1.24.52 2 .69v.31s0 2.81 1.77 3.73c-.1.08-.77.67-.77 1.93z" fill="#ccd1d9"/></g><g><path d="m28.02 56.87c.93.09 1.93.13 2.98.13 4 0 5.02-1 5.02-1 1.49-.25 2.81-.55 3.98-.88v6.88h-8-8v-5.81c1.2.33 2.54.55 4.02.68z" fill="#b4dd7f"/></g><g><path d="m40.11 50.22c-2.31 1.12-4.83 1.72-5.09 1.78-.01 0-.02 0-.02 0h-1.98v-1c0-.55-.45-1-1-1h-2c-2 0-2 2-2 2-1.67-.21-2.99-.55-4.03-.97l.01-.03v-9h6v3c0 .68.32 1 1 1h2c.68 0 1-.32 1-1v-3h6v8z" fill="#b4dd7f"/></g><g><path d="m34 42v3c0 .68-.32 1-1 1h-2c-.68 0-1-.32-1-1v-3z" fill="#fc6e51"/></g><g><path d="m39 29.73c-1.19-.53-2-.73-2-.73 4-1.92 4-6 4-6v-9s-3 1-8 1c-2.63 0-4.11-.96-4.94-2.04-1.06-1.39-1.06-2.96-1.06-2.96h14l1.14-2.28.55.28s8.94 3.97 1.08 24.78c-1.69-1.52-3.46-2.48-4.77-3.05z" fill="#b27946"/></g><g><path d="m27 10s0 1.57 1.06 2.96l-.06.04c-2 2-5 1-5 1v9s0 4.08 4 6c0 0-.81.2-2 .73-1.17.51-2.72 1.34-4.25 2.6-7.56-20.42 1.25-24.33 1.25-24.33l1 2z" fill="#b27946"/></g><g><path d="m32 2c10 0 11 4 11 4l-.86 1.72-1.14 2.28h-14-4l-1-2-1-2s1-4 11-4z" fill="#e6e9ed"/></g><g><path d="m36.02 56s-1.02 1-5.02 1c-1.05 0-2.05-.04-2.98-.13v-4.87s0-2 2-2h2c.55 0 1 .45 1 1v1h1.98.02c.52 0 1 .47 1 1z" fill="#f0d0b4"/></g><g><path d="m35 30s0 4-3 4c-.48 0-.89-.1-1.23-.27-1.77-.92-1.77-3.73-1.77-3.73v-.31c.87.2 1.86.31 3 .31s2.13-.11 3-.31z" fill="#f0d0b4"/></g><g><path d="m35 29.69c-.87.2-1.86.31-3 .31s-2.13-.11-3-.31c-.76-.17-1.42-.4-2-.69-4-1.92-4-6-4-6v-9s3 1 5-1l.06-.04c.83 1.08 2.31 2.04 4.94 2.04 5 0 8-1 8-1v9s0 4.08-4 6c-.58.29-1.24.52-2 .69z" fill="#f0d0b4"/></g><g><path d="m32 24h3s0 3-3 3-3-3-3-3z" fill="#ff826e"/></g></g><g><path d="m31 8h2v-1h1v-2h-1v-1h-2v1h-1v2h1z"/><circle cx="28" cy="19" r="1"/><circle cx="36" cy="19" r="1"/><path d="m28 24c0 1.607 1.065 4 4 4s4-2.393 4-4v-1h-4-4zm4 1h1.779c-.24.505-.741 1-1.779 1-1.031 0-1.533-.49-1.776-1z"/><path d="m50 45c0-5.907-2.375-9.873-5.075-12.477 6.886-18.744.278-24.181-1.453-25.231l.588-1.176-.09-.358c-.121-.487-1.491-4.758-11.97-4.758s-11.849 4.271-11.97 4.758l-.09.358.763 1.526c-2.19 1.66-7.174 7.555-1.115 24.406-2.905 2.588-5.588 6.673-5.588 12.952 0 2.989.842 7.221 4.935 10.036-.609 2.122-.935 4.452-.935 6.964v1h28v-1c0-2.837-.413-5.428-1.184-7.754 4.411-2.506 5.184-5.965 5.184-9.246zm-6.697-13.862c-1.496-1.136-2.966-1.903-4.086-2.389 2.732-2.348 2.783-5.697 2.783-5.749l-.002-10.382-1.313.433c-.029.01-2.934.949-7.685.949-3.409 0-4.491-1.804-4.836-3h13.454l.951-1.903c1.341.939 6.507 5.802.734 22.041zm-15.347-16.822c1.082.973 2.693 1.684 5.044 1.684 3.21 0 5.621-.398 7-.706v7.706c0 .245-.091 6-8 6-7.847 0-7.997-5.76-8-6v-7.789c1.06.109 2.595.031 3.956-.895zm2.14 16.573c.592.07 1.222.111 1.904.111s1.312-.041 1.904-.111c-.166.886-.626 2.111-1.904 2.111-1.279 0-1.738-1.225-1.904-2.111zm-3.188-.823c.347.15.716.288 1.114.406.084 1.076.459 2.49 1.373 3.451-.217.431-.395.999-.395 1.736 0 .372.097.82.336 1.266-2.809-.628-3.252-5.201-3.322-6.548.375-.144.679-.245.894-.311zm4.092 5.593c0-.335.071-.573.149-.756.264.058.544.097.851.097 2.896 0 3.839-2.737 3.979-4.528.398-.119.767-.256 1.114-.406.215.066.519.167.895.311-.073 1.446-.568 6.623-3.988 6.623-2.062 0-3-.695-3-1.341zm1-32.659c7.345 0 9.397 2.212 9.891 2.981l-1.509 3.019h-16.764l-1.507-3.013c.511-.797 2.58-2.987 9.889-2.987zm-10.372 6.493.754 1.507h3.722c.106.551.3 1.149.615 1.738-1.494.908-3.385.319-3.403.314l-1.316-.44v10.388c0 .052.051 3.401 2.783 5.749-.983.427-2.237 1.071-3.542 1.991-5.003-14.352-1.356-19.658.387-21.247zm-.915 46.567c.693.333 1.45.635 2.287.893v4.047h-2.982c.063-1.76.3-3.41.695-4.94zm10.287-13.06h2v2h-2zm0 4h2c1.233 0 2-.767 2-2v-2h4v6.628c-1.552.678-3.173 1.154-4.12 1.372h-.863c0-1.103-.897-2-2-2h-2c-1.57 0-2.427.913-2.789 1.875-.859-.144-1.59-.328-2.229-.538v-7.337h4v2c.001 1.233.768 2 2.001 2zm-1.982 5.012c.012-.462.194-1.012 1-1.012h2v2h3v2.428c-.522.222-1.709.572-4.018.572-.685 0-1.342-.023-1.982-.06zm1.982 5.988c3.331 0 4.835-.674 5.425-1.061.918-.159 1.775-.335 2.575-.528v4.589h-14v-3.544c1.725.348 3.711.544 6 .544zm12.982 3h-2.982v-5.14c.727-.229 1.394-.475 2.011-.735.561 1.783.895 3.744.971 5.875zm-6.964-6.201v-1.799c0-.168-.029-.329-.07-.486 2.851-.86 8.052-2.919 8.052-6.514 0-5.353-2.199-7.613-2.293-7.707l-1.423 1.405c.018.019 1.716 1.853 1.716 6.302 0 .966-.839 1.84-2 2.583v-7.583h-18v8.4c-1.998-1.347-2-3.149-2-4.4 0-2.661 1.813-5.417 1.832-5.445l-1.663-1.11c-.089.131-2.169 3.279-2.169 6.555 0 1.987.025 6.537 8.018 7.852v2.897c-7.221-.94-11.018-4.602-11.018-10.749 0-6.359 3.01-10.16 5.917-12.35l.018-.007c-.001-.002-.001-.004-.002-.005.739-.555 1.469-1.004 2.143-1.367.241 2.484 1.294 7.729 5.924 7.729.728 0 1.375-.09 1.966-.232.573.145 1.243.232 2.034.232 4.63 0 5.684-5.245 5.925-7.729 3.329 1.791 8.075 5.742 8.075 13.729 0 2.697-.002 7.64-10.982 9.799z"/></g></g></svg>