<svg id="_x33_0" enable-background="new 0 0 64 64" height="512" viewBox="0 0 64 64" width="512" xmlns="http://www.w3.org/2000/svg"><g><g><g><path d="m7.04 44.98c2 3.41 5.29 6.02 8.96 6.02h6v11h-6-9v-17z" fill="#969faa"/></g><g><path d="m9 28.81c1.25-.53 2.88-.81 5-.81.35 0 .68.02.99.06 7.01.7 7.01 8.94 7.01 8.94v9.77c2.15.23 4 .23 4 .23v3 1s-1.49 0-4 0c-1.62 0-3.66 0-6 0-3.67 0-6.96-2.61-8.96-6.02-1.28-2.16-2.04-4.65-2.04-6.98 0-4.41.54-7.74 4-9.19z" fill="#75b1f2"/></g><g><path d="m12 9c-3 0-3 3-3 3v3s-2 0-2 2 2 2 2 2v6s-7-3-7-10 2-13 12-13 9 7 7 8c-.63.32-1.68.74-2.86.97-2.05.4-4.54.23-6.14-1.97z" fill="#656d78"/></g><g><path d="m62 62h-24c0-6.32 3.26-10.19 3.89-10.89 3.61.01 9.73-.41 13.11-3.11.37-.3.72-.62 1.04-.96 5.96 6 5.96 14.96 5.96 14.96z" fill="#d3a06c"/></g><g><path d="m50.87 39.98c-.46 3.32-2.35 5.93-7.81 6.75.62-2.91-.28-6.33-1.06-8.73-.15-.46-1-2-1-4 0-4 5-6 5-6l6-1s3.85 2.09 5 4c.38.63.71 1.3.97 2.01.98 2.47 1.33 5.34.89 8.03-3.01.9-7.86-1.04-7.86-1.04z" fill="#e6e9ed"/></g><g><path d="m62 30c0 3-4 3-4 3l-.03.01c-.26-.71-.59-1.38-.97-2.01-1.15-1.91-5-4-5-4v-3.33c-.74-.12-1.47-.62-2-1.67-2-4 3-4 1-8s-4 0-6-2c-.37-.37-.61-.74-.74-1.1l-.26.1s-1.99.22-4 .04c-2.25-.21-4.53-.92-4-3.04 1-4 5-6 10-6s12 1 12 7 0 5 2 9-1 4-1 7 3 2 3 5z" fill="#fcd770"/></g><g><path d="m38 38s0 6-7 6v-2s1-4 7-4z" fill="#b4dd7f"/></g><g><path d="m31 41v1c-6 1-6-4-6-4 4-1 6 3 6 3z" fill="#a0d468"/></g><g><path d="m38 29c0 4.06-7 8-7 8s-7-3.94-7-8 4.56-5.25 7-2c2.44-3.25 7-2.06 7 2z" fill="#ff826e"/></g><g><path d="m50 22c.53 1.05 1.26 1.55 2 1.67v3.33l-6 1v-2.88c-1.22.49-2.78.76-4 .88-1.15.11-2-.84-2-2v-1.25-1.75s-2 0-2-1 2-3 2-3v-5.96c2.01.18 4-.04 4-.04l.26-.1c.13.36.37.73.74 1.1 2 2 4-2 6 2s-3 4-1 8z" fill="#f0d0b4"/></g><g><path d="m34 49c0-1.09-.91-2-2-2h-1s1-1 2-1 3 1 3 1c0-2 1-2 1-2 1 0 2 2 2 2 1.53 0 2.88-.09 4.06-.27 5.46-.82 7.35-3.43 7.81-6.75l.13.02s4.85 1.94 7.86 1.04c-.37 2.24-1.27 4.35-2.82 6-.32.34-.67.66-1.04.96-3.38 2.7-9.5 3.12-13.11 3.11-1.74-.01-2.89-.11-2.89-.11s-3 2-5 0l-.25-.06c.16-.28.25-.6.25-.94z" fill="#f0d0b4"/></g><g><path d="m30 47h1 1c1.09 0 2 .91 2 2v1c0 .34-.09.66-.25.94-.34.63-1.01 1.06-1.75 1.06-3 0-4.74-.11-6-2v-3s2-2 4-2c1 0 0 2 0 2z" fill="#f0d0b4"/></g><g><path d="m12 9c1.6 2.2 4.09 2.37 6.14 1.97l1.86.03v4s2 2 2 3-2 1-2 1v2 2.07c0 1.09-.92 2.06-2 1.93-.94-.11-2.05-.34-3-.75v3.75l-.01.06c-.31-.04-.64-.06-.99-.06-2.12 0-3.75.28-5 .81v-3.81-6s-2 0-2-2 2-2 2-2v-3s0-3 3-3z" fill="#f0d0b4"/></g></g><g><path d="m59.337 33.855c1.692-.348 3.663-1.398 3.663-3.855 0-2.035-1.125-2.785-1.945-3.332-.702-.468-1.055-.703-1.055-1.668 0-.886.33-1.393.747-2.034.72-1.104 1.615-2.479.147-5.414-.289-.578-.536-1.052-.749-1.458-1.145-2.197-1.145-2.197-1.145-7.094 0-3.649-2.255-8-13-8-5.812 0-9.912 2.526-10.97 6.757-.32 1.282.134 2.148.571 2.648.747.855 2.038 1.301 3.399 1.523v4.666c-.769.812-2 2.287-2 3.406 0 1.126.94 1.698 2 1.906v2.094c0 .894.358 1.732.983 2.299.509.463 1.152.709 1.836.709.092 0 .184-.004.277-.013.851-.082 1.891-.232 2.904-.497v.863c-1.473.74-5 2.9-5 6.639 0 1.827.628 3.308.931 4.02.053.125.096.222.118.29.668 2.053 1.462 4.957 1.146 7.513-.794.092-1.649.157-2.609.173-.493-.808-1.416-1.996-2.586-1.996-.065 0-1.307.022-1.8 1.551-.706-.279-1.56-.551-2.2-.551-.35 0-.688.076-1 .19v-.246c6.899-.567 7-6.877 7-6.944v-1h-1c-2.935 0-4.806.877-6 1.876v-1.305c1.769-1.075 7-4.591 7-8.571 0-2.224-1.186-4.001-3.094-4.637-1.685-.564-3.513-.108-4.906 1.157-1.394-1.264-3.222-1.717-4.906-1.157-1.908.636-3.094 2.413-3.094 4.637 0 3.981 5.231 7.496 7 8.571v.67c-1.265-1.029-3.042-1.762-5.243-1.211l-.757.189v.781c0 .098.021 2.414 1.796 3.918 1.057.896 2.469 1.291 4.204 1.194v.888c-1.921 0-3.676 1.367-4.384 1.996-.784-.01-1.683-.049-2.616-.125v-8.871c0-3.107-1.531-8.686-7-9.792v-1.566c.715.185 1.39.293 1.882.351.106.012.211.019.316.019.653 0 1.28-.242 1.793-.698.641-.569 1.009-1.388 1.009-2.246v-3.162c1.06-.208 2-.78 2-1.906 0-1.119-1.231-2.594-2-3.406v-3.492c.197-.086.351-.16.447-.208 1.417-.708 2.187-2.905 1.716-4.897-.354-1.502-1.957-4.997-9.163-4.997-11.652 0-13 7.99-13 14 0 6.402 5.2 9.679 7 10.622v2.596c-3.588 1.909-4 5.806-4 9.782 0 2.349.737 4.877 2 7.131v17.869h17v-11h3.582c1.488.998 3.348 1 5.418 1 .741 0 1.422-.295 1.952-.759.708.462 1.481.64 2.236.639 1.175 0 2.303-.425 3.058-.857.164.012.4.026.666.039-1.257 1.902-2.912 5.288-2.912 9.938v1h26v-1c0-.37-.083-8.8-5.627-14.98 2.897-3.646 3.289-8.823 1.964-13.165zm-32.235 6.548c-.544-.455-.82-1.066-.959-1.559 2.049-.063 3.312 1.56 3.771 2.275-1.211.075-2.155-.167-2.812-.716zm9.868-32.16c.821-3.283 4.197-5.243 9.03-5.243 5.018 0 11 1.041 11 6 0 5.186 0 5.388 1.373 8.02.208.398.45.862.732 1.428.955 1.91.583 2.481-.034 3.428-.477.732-1.071 1.644-1.071 3.124 0 2.035 1.125 2.785 1.945 3.332.702.468 1.055.703 1.055 1.668 0 1.42-1.51 1.83-2.39 1.95-.229-.506-.475-1-.753-1.464-1.024-1.705-3.69-3.388-4.857-4.068v-1.768c1.372-.241 2.558-1.266 2.861-2.518.273-1.128-.215-2.235-1.306-2.962l-1.109 1.664c.579.386.501.707.472.828-.107.441-.677.965-1.355 1.042-.843.099-1.378-.571-1.667-1.149-.724-1.447-.299-2.014.405-2.953.79-1.053 1.871-2.495.595-5.047-1.515-3.029-3.445-2.477-4.598-2.147-.917.261-1.193.285-1.59-.113-1.179-1.18-.294-2.282.006-2.592l-.714-.703-.707-.707c-.62.619-1.176 1.645-1.175 2.78-2.236.147-5.191-.046-6.011-.983-.134-.154-.255-.374-.137-.847zm12.03 14.757h-2c0 .863-2.191 1.725-5.096 2.004-.226.024-.417-.041-.576-.186-.184-.167-.286-.434-.31-.72.154.018.308.035.472.035.982 0 2.136-.346 3.216-1.427l-1.414-1.414c-.913.913-1.775.908-2.293.782v-2.074h-1c-.292 0-.714-.064-.949-.151.198-.463.914-1.398 1.656-2.142l.294-.293v-5.3c1.135.036 2.143-.028 2.737-.083.154.228.334.454.556.676 1.274 1.274 2.646.881 3.553.622 1.053-.302 1.488-.425 2.259 1.118.724 1.447.299 2.014-.405 2.953-.79 1.053-1.871 2.495-.595 5.047.468.936 1.124 1.6 1.895 1.958v1.747l-4 .667v-1.06c1.16-.605 2-1.483 2-2.759zm-6.049 14.69c-.034-.105-.097-.259-.179-.452-.27-.635-.772-1.818-.772-3.238 0-3.002 3.658-4.756 4.283-5.033l5.536-.923c1.173.671 3.569 2.213 4.324 3.471 1.473 2.455 2.148 5.673 1.807 8.7-1.914.272-4.566-.433-6.001-.93.033-.413.051-.841.051-1.285 0-4.26.754-5.344.762-5.354l-.762-.646-.707-.707c-.303.303-1.293 1.683-1.293 6.707 0 3.242-.825 6.289-5.774 7.474.191-2.779-.595-5.692-1.275-7.784zm-6.097 1.368c-.328 1.347-1.4 3.531-4.854 3.888v-.792c.173-.496 1.149-2.71 4.854-3.096zm-11.854-10.058c0-1.355.646-2.38 1.726-2.74.267-.089.542-.132.818-.132.966 0 1.948.528 2.656 1.472l.8 1.066.8-1.066c.911-1.214 2.276-1.741 3.474-1.34 1.08.36 1.726 1.385 1.726 2.74 0 2.616-3.958 5.586-6 6.839-2.042-1.251-6-4.217-6-6.839zm-22-14c0-8.523 3.187-12 11-12 4.068 0 6.698 1.26 7.217 3.457.317 1.341-.272 2.453-.664 2.649-1.604.801-4.145 1.462-6.028.683-1.204-.499-2.046-1.514-2.576-3.104l-1.897.633c.115.346.25.667.392.977-1.752.671-2.444 2.426-2.444 3.705v2.167c-1.006.333-2 1.194-2 2.833s.994 2.5 2 2.833v3.466c-1.881-1.217-5-3.895-5-8.299zm6.986 3.025-.974-.025c-.462-.012-1.012-.195-1.012-1s.55-.988 1-1h1v-4c0-.305.097-1.705 1.559-1.95.612.699 1.346 1.231 2.201 1.585 1.792.741 3.738.542 5.24.157v3.622l.292.292c.748.749 1.468 1.692 1.66 2.14-.222.084-.625.152-.952.154h-1v2.19c-.836.119-2.262.134-3.293-.897l-1.414 1.414c1.235 1.236 2.749 1.543 3.951 1.543.271 0 .524-.016.756-.041v.858c0 .283-.126.563-.337.751-.115.102-.306.219-.544.188-1.984-.235-4.119-.964-4.119-2.006h-2c0 1.374.881 2.281 2 2.886v2.114c-1.572 0-2.881.168-4 .457v-8.457zm11.014 42.975h-4v-6h-2v6h-7v-13.057c2.121 2.4 4.917 4.057 8 4.057h5zm4-11h-9c-5.386 0-10-6.599-10-12 0-6.224 1.155-9 8-9 6.891 0 6.999 7.675 7 8v8.652c-1.915-.269-3.64-.706-4.293-1.359-.563-.563-1.051-2.547-1.48-4.297-.921-3.748-1.965-7.996-5.227-7.996v2c1.694 0 2.576 3.589 3.284 6.473.563 2.295 1.05 4.276 2.009 5.234 1.851 1.851 7.251 2.212 9.707 2.278zm8 0c0 .532-.467 1-1 1-2.828 0-4.072-.133-5-1.34v-2.219c.514-.442 1.403-1.084 2.295-1.335-.055.151-.121.31-.19.447l-.717 1.447h3.612c.542 0 1 .458 1 1zm6.09.004-.352-.031-.293.195c-.022.015-2.085 1.363-3.497.328.029-.162.052-.327.052-.496v-1c0-.569-.168-1.096-.445-1.55.367.148.724.309.998.445l1.447.721v-1.616c0-.48.068-.753.126-.898.285.238.711.813.98 1.347l.278.551h.616c7.415 0 11.433-2.104 12.617-6.719 1.219.4 3.371.994 5.407.994.18 0 .352-.024.53-.034-.551 1.94-1.58 3.698-3.179 4.977-4.624 3.701-15.178 2.795-15.285 2.786zm-.061 10.996c.279-4.708 2.462-7.826 3.327-8.888 3.789-.024 9.785-.545 13.269-3.331.129-.103.24-.219.363-.327 3.889 4.42 4.763 10.24 4.957 12.546z"/><circle cx="43" cy="15" r="1"/><circle cx="16" cy="15" r="1"/></g></g></svg>