<svg id="_x33_0" enable-background="new 0 0 64 64" height="512" viewBox="0 0 64 64" width="512" xmlns="http://www.w3.org/2000/svg"><g><g><g><path d="m48 40v22h-2-11v-22h11z" fill="#cf9e76"/></g><g><path d="m16 40v22h2 14 3v-22z" fill="#d3a06c"/></g><g><path d="m29 40v2.51c0 .82-.67 1.49-1.49 1.49h-4.02c-.82 0-1.49-.67-1.49-1.49v-2.51z" fill="#b27946"/></g><g><path d="m50 17-7 9h3v14h2v23h6v-37h3z" fill="#ffeaa7"/></g><g><path d="m32 2 10 11.32h-5v23.68h-10v-23.68h-5z" fill="#ffeaa7"/></g><g><path d="m14 22-7 9h3v32h6v-23h2v-9h3z" fill="#ffeaa7"/></g></g><g><path d="m26 37h2v-24.676h-3.783l7.783-8.813 7.783 8.813h-3.783v24.676h2v-22.676h6.217l-12.217-13.835-12.217 13.835h6.217z"/><path d="m15 63h34v-24h-34zm32-2h-11v-20h11zm-24-20h5v1.508c0 .271-.221.492-.492.492h-4.016c-.271 0-.492-.221-.492-.492zm-6 0h4v1.508c0 1.374 1.118 2.492 2.492 2.492h4.016c1.374 0 2.492-1.118 2.492-2.492v-1.508h4v20h-17z"/><path d="m18.955 30h-1.955v7h2v-5h4.045l-9.045-11.629-9.045 11.629h4.045v31h2v-33h-1.955l4.955-6.371z"/><path d="m50 15.371-9.045 11.629h4.045v10h2v-12h-1.955l4.955-6.371 4.955 6.371h-1.955v38h2v-36h4.045z"/></g></g></svg>