<svg id="_x33_0" enable-background="new 0 0 64 64" height="512" viewBox="0 0 64 64" width="512" xmlns="http://www.w3.org/2000/svg"><g><g><g><path d="m38.2 33c-.13 0-.2 0-.2 0s-1 3-3 4c0 0-1-3-3-3s-3 3-3 3c-2-1-3-4-3-4s-.07 0-.2 0c-3.82 1.99-11.04 7.05-8.8 16 1 4 2.89 5.67 5.01 5.85l-.01.15v7h21v-7l-.11-.32c1.74-.54 3.26-2.25 4.11-5.68 2.24-8.95-4.98-14.01-8.8-16z" fill="#b4dd7f"/></g><g><path d="m38 33s-1 3-3 4c0 0-1-3-3-3s-3 3-3 3c-2-1-3-4-3-4s-.07 0-.2 0c1.3-.68 2.2-1 2.2-1s4 3 8 0c0 0 .9.32 2.2 1-.13 0-.2 0-.2 0z" fill="#a0d468"/></g><g><path d="m52 22.69c.72-.41 1.68-.69 3-.69 5 0 5 5 5 5s1 6-6 6c-6.39 0-14.44 0-15.8 0-1.3-.68-2.2-1-2.2-1v-3.5c5-1.45 5-5.5 5-5.5s3 0 3-3l-.02-9h.02s8 0 8 6z" fill="#e6e9ed"/></g><g><path d="m12 22.69c0-.52 0-1.92 0-5.69 0-6 8-6 8-6v9c0 3 3 3 3 3s0 4.05 5 5.5v3.5s-.9.32-2.2 1c-1.36 0-9.41 0-15.8 0-7 0-6-6-6-6s0-5 5-5c1.32 0 2.28.28 3 .69z" fill="#e6e9ed"/></g><g><path d="m20 20v-9s-1-8.99 11.98-9h.02c12.98.01 11.98 9 11.98 9l.02 9c0-3-3-3-3-3v-4h-7c-3-3-7-3-7-3-4 0-4 3-4 3v4s-3 0-3 3z" fill="#b27946"/></g><g><path d="m28 42s1-3 4-2c0 0 4.88 1.95.17 5.86-.07-.29-.13-.58-.17-.86-.04.28-.09.55-.16.84z" fill="#f0d0b4"/></g><g><path d="m41 17s3 0 3 3-3 3-3 3z" fill="#f0d0b4"/></g><g><path d="m36 28.5v3.5c-4 3-8 0-8 0v-3.5c1.08.31 2.4.5 4 .5s2.92-.19 4-.5z" fill="#f0d0b4"/></g><g><path d="m34 13h7v4 6s0 4.05-5 5.5c-1.08.31-2.4.5-4 .5s-2.92-.19-4-.5c-5-1.45-5-5.5-5-5.5v-6-4s0-3 4-3c0 0 4 0 7 3z" fill="#f0d0b4"/></g><g><path d="m23 17v6s-3 0-3-3 3-3 3-3z" fill="#f0d0b4"/></g><g><path d="m32 22h4s0 3-4 3-4-3-4-3z" fill="#ff826e"/></g></g><g><path d="m9 38h-2v3h-3v2h3v3h2v-3h3v-2h-3z"/><path d="m57 50h-2v3h-3v2h3v3h2v-3h3v-2h-3z"/><path d="m37.168 12.555 1.664-1.109c-2.189-3.284-6.411-4.371-6.589-4.415l-.487 1.939c.036.009 3.658.954 5.412 3.585z"/><path d="m30.707 16.707-1.414-1.414c-1.179 1.179-2.281.293-2.592-.006l-1.408 1.42c.619.619 1.643 1.177 2.777 1.177.859 0 1.781-.321 2.637-1.177z"/><path d="m34.701 15.287-1.408 1.42c.619.619 1.643 1.177 2.777 1.177.859 0 1.781-.32 2.637-1.177l-1.414-1.414c-1.18 1.179-2.281.293-2.592-.006z"/><path d="m41.666 34h12.334c2.542 0 4.45-.73 5.67-2.17 1.619-1.912 1.396-4.394 1.33-4.904-.03-2.093-1.31-5.926-6-5.926-.755 0-1.413.09-2 .236v-4.236c0-5-4.795-6.673-8.018-6.951-.078-1.252-.484-3.401-2.197-5.314-2.215-2.475-5.844-3.731-10.785-3.734v-.001c-.003 0-.006 0-.009 0s-.006 0-.009 0v.001c-4.941.003-8.57 1.259-10.785 3.734-1.713 1.914-2.118 4.063-2.197 5.316-3.222.282-8 1.958-8 6.949v4.236c-.587-.146-1.245-.236-2-.236-4.69 0-5.97 3.833-6 5.926-.066.511-.29 2.992 1.33 4.904 1.22 1.44 3.128 2.17 5.67 2.17h12.334c-3.887 2.822-8.173 7.766-6.304 15.242 1.102 4.409 3.2 5.961 4.97 6.437v7.321h23v-7.702c1.507-.762 3.071-2.458 3.97-6.056 1.869-7.476-2.416-12.42-6.304-15.242zm-9.666-4c1.123 0 2.115-.093 3-.252v1.717c-2.563 1.632-5.048.541-6-.01v-1.707c.885.159 1.877.252 3 .252zm-4.121 3.12c.502.307 1.141.607 1.872.832-.496.46-.88 1.015-1.154 1.51-.598-.611-1.061-1.43-1.356-2.065.249-.113.466-.206.638-.277zm8.252.003c.171.07.385.161.63.272-.293.636-.756 1.455-1.357 2.068-.265-.48-.636-1.016-1.11-1.468.61-.191 1.226-.476 1.837-.872zm14.869-16.123v5.139c-1.513 1.11-2 2.784-2 3.861h2c0-.122.045-3 4-3 3.853 0 3.997 3.595 4 4l.014.164c.003.02.294 1.999-.87 3.373-.822.971-2.217 1.463-4.144 1.463h-15.587c-.569-.293-1.055-.517-1.413-.672v-2.112c3.56-1.312 4.588-3.946 4.882-5.327 1.478-.322 3.118-1.457 3.118-3.889 0-.001 0-.001 0-.002l-.016-7.933c1.931.206 6.016 1.091 6.016 4.935zm-9 1.23c.505.241 1 .732 1 1.77 0 1.031-.49 1.523-1 1.766zm-19.312-12.162c1.82-2.034 4.951-3.066 9.303-3.068 4.334.001 7.457 1.026 9.281 3.043 1.961 2.17 1.718 4.825 1.716 4.847l-.006.056.011 5.56c-.324-.172-.66-.284-.993-.366v-3.14h-2v9.992c-.003.204-.175 5.008-8 5.008s-7.997-4.804-8-5v-10c0-.082.034-2 3-2 .036 0 3.617.031 6.293 2.707l1.414-1.414c-3.255-3.256-7.527-3.293-7.707-3.293-3.955 0-5 2.616-5 4v3.14c-.335.083-.674.197-1 .37v-5.51l-.006-.11c-.003-.027-.267-2.631 1.694-4.822zm-.688 15.702c-.505-.241-1-.732-1-1.77 0-1.03.489-1.522 1-1.765zm-12 10.23c-1.919 0-3.31-.488-4.134-1.451-1.179-1.378-.882-3.369-.88-3.385l.014-.164c0-.163.045-4 4-4 3.834 0 3.995 2.701 4 3.009l1-.009h1c0-1.077-.487-2.751-2-3.861v-5.139c0-3.833 4.063-4.725 6-4.933v7.933c0 2.432 1.64 3.567 3.118 3.889.294 1.381 1.322 4.015 4.882 5.327v2.112c-.358.155-.844.378-1.413.672zm32 29h-19v-5.174c3.623-.359 7.258-3.886 9-7.573 1.788 3.785 5.573 7.417 9.29 7.609.094.005.192.008.293.008.133 0 .273-.006.417-.017zm-8.789-18.488c.083.577-.332 1.315-1.167 2.118l-2.843-2.843c.347-.566 1.08-1.308 2.423-.861.402.166 1.47.772 1.587 1.586zm12.819 6.246c-.602 2.407-1.877 5.212-4.637 5.106-3.053-.158-6.88-3.936-8.083-7.674 1.236-1.151 1.877-2.299 1.91-3.425l.408.164c4.523 1.809 6.425 6.398 6.444 6.444l1.856-.744c-.056-.138-.923-2.238-2.874-4.311.084-.683.297-1.784.84-2.871l-1.789-.895c-.382.764-.626 1.521-.79 2.193-.748-.568-1.597-1.089-2.555-1.511-.172-.353-.469-.857-.928-1.316-1.014-1.015-2.366-1.342-3.832-.952-1.467-.392-2.818-.063-3.833.952-.459.459-.756.964-.928 1.316-.958.422-1.807.943-2.555 1.511-.164-.672-.408-1.429-.79-2.193l-1.789.895c.543 1.087.756 2.188.84 2.871-1.952 2.073-2.819 4.173-2.874 4.311l1.857.742c.017-.044 1.735-4.215 5.853-6.176l2.928 2.928c-1.179 3.76-5.032 7.582-8.103 7.741-2.735.116-4.035-2.698-4.637-5.106-1.94-7.761 3.784-12.358 7.49-14.453.516 1.096 1.529 2.808 3.092 3.59l1.031.516.365-1.094c.165-.49.991-2.317 2.053-2.317 1.034 0 1.848 1.717 2.051 2.316l.365 1.094 1.031-.516c1.566-.783 2.579-2.499 3.095-3.594 3.707 2.089 9.433 6.679 7.488 14.458z"/><path d="m27 22c0 1.384 1.045 4 5 4s5-2.616 5-4v-1h-10zm7.635 1c-.372.5-1.122 1-2.635 1-1.521 0-2.272-.496-2.643-1z"/><path d="m55 38h2v10h-2z"/><path d="m7 48h2v10h-2z"/></g></g></svg>