<svg id="_x33_0" enable-background="new 0 0 64 64" height="512" viewBox="0 0 64 64" width="512" xmlns="http://www.w3.org/2000/svg"><g><g><g><path d="m31 48v14h-17v-14h-7v-1s0-8 5-12c1.84-1.47 3.14-2.67 4.05-3.7l.95 5.7 5-3 5 3 .97-5.85c.31.28.65.57 1.03.85 3.57 2.68 5.55 5.36 7.36 10.88l-.36.12-5 2z" fill="#75b1f2"/></g><g><path d="m27.97 31.15-.97 5.85-5-3 4.92-3.93c.3.35.64.71 1.05 1.08z" fill="#5d9cec"/></g><g><path d="m22 34-5 3-.95-5.7c.4-.46.72-.88.98-1.28z" fill="#5d9cec"/></g><g><path d="m30 10.4c-.74.91-1.97 1.6-4 1.6-2.02 0-3.14-.46-3.73-1.06l-.27.06s-2 2-4 0v4s-3 0-3 3 3 3 3 3 0 2.9 0 5c0 0-10-5-10-14s9-10 16-10 7 4 7 4 .44 2.63-1 4.4z" fill="#656d78"/></g><g><path d="m53 27-.81.02c-.07-.01-.13-.02-.19-.02h-3-1c-1.05 0-2.73 0-4 0l-3-3s1-2 6-2 8 1 8 1z" fill="#d3a06c"/></g><g><path d="m52.99 33.11c3.78 2.78 6.01 10.69 6.01 14.89 0 5.25-3.75 9-9 9-3.42 0-6.21-1.59-7.73-4.16-.81-1.37-1.27-3.02-1.27-4.84 0-4.05 2.03-11.57 5.6-14.57l.01-.01c.36.37.85.58 1.39.58h4c.55 0 .95-.36.99-.89z" fill="#cf9e76"/></g><g><path d="m59 10s0 8-9 8h-1v-1-2s2-6 10-5z" fill="#b4dd7f"/></g><g><path d="m49 15v2c-11 1-9-9-9-9 8-1 9 7 9 7z" fill="#b4dd7f"/></g><g><path d="m52.99 33.11c-.04.53-.44.89-.99.89h-4c-.54 0-1.03-.21-1.39-.58-.38-.35-.61-.86-.61-1.42v-1-1h2c.67 0 1-.33 1-1v-2h3c.06 0 .12.01.19.02.43.1.81.54.81.98v5c0 .04 0 .08-.01.11z" fill="#f0d0b4"/></g><g><path d="m7 48h7v14h-7z" fill="#f0d0b4"/></g><g><path d="m46 30v1 1c0 .56.23 1.07.61 1.42l-.01.01c-3.57 3-5.6 10.52-5.6 14.57 0 1.82.46 3.47 1.27 4.84l-.27.16s-1 2-5 2-6-7-6-7v-3l5-2 .36-.12c.2.64.41 1.31.61 2.03l6.03-12.91s-1-5 1-5h4 1v2c0 .67-.33 1-1 1z" fill="#f0d0b4"/></g><g><path d="m30 15 2 4h-2v2h-4s0 3 4 3v2s-2.76 0-5 0c0 0 0 1.84 1.92 4.07l-4.92 3.93-4.97-3.98c.75-1.14.97-2.08.97-3.02 0-.3 0-.64 0-1 0-2.1 0-5 0-5s-3 0-3-3 3-3 3-3v-4c2 2 4 0 4 0l.27-.06c.59.6 1.71 1.06 3.73 1.06 2.03 0 3.26-.69 4-1.6z" fill="#f0d0b4"/></g><g><path d="m30 21v3c-4 0-4-3-4-3z" fill="#ff826e"/></g></g><g><path d="m51 39h-2v2h-4v6h8v2h-8v2h4v2h2v-2h4v-6h-8v-2h8v-2h-4z"/><path d="m24.707 14.293-1.414 1.414c.856.856 1.778 1.177 2.638 1.177 1.133 0 2.157-.558 2.776-1.177l-1.408-1.42c-.311.299-1.411 1.187-2.592.006z"/><path d="m60 10v-.883l-.876-.109c-5.354-.673-8.294 1.596-9.775 3.463-1.173-2.933-3.978-6.149-9.473-5.463l-.715.089-.141.707c-.038.192-.909 4.734 1.807 7.757 1.499 1.668 3.744 2.51 6.688 2.51.156 0 .327-.018.486-.023v2.966c-.326-.009-.658-.014-1.001-.014-5.46 0-6.764 2.291-6.895 2.553l-.322.645 2.625 2.625c-.956 1.299-.654 3.881-.45 5.046l-4.795 10.276c-1.776-5.273-3.803-8.125-7.563-10.945-2.176-1.633-3.037-3.215-3.377-4.2h4.777v-7h2.618l-2.618-5.236v-4.07c1.305-1.916 1.06-4.343.997-4.79-.042-.715-.605-4.904-7.997-4.904-4.649 0-17 0-17 11 0 8.354 7.81 13.357 10 14.596v.404c0 1.376-.435 3.066-5.625 7.219-5.313 4.252-5.375 12.434-5.375 12.781v16h7 1 18v-10.42c1.139 1.773 2.785 3.42 5 3.42 2.782 0 4.328-.88 5.134-1.611 1.786 2.244 4.567 3.611 7.866 3.611 5.794 0 10-4.206 10-10 0-4.331-2.135-12.079-6-15.352v-4.648c0-.193-.042-.38-.101-.561l2.511-5.023-1.094-.364c-.101-.034-2.028-.66-5.316-.93v-2.122c9.886 0 10-8.91 10-9zm-10 5.185c.319-.764 2.201-4.565 7.917-4.278-.299 1.899-1.666 6.093-7.917 6.093zm-23.1 16.328-.646 3.874-2.507-1.504 3.069-2.456c.03.029.055.057.084.086zm2.1-8.598c-.872-.163-1.365-.537-1.643-.915h1.643zm0-4.915v2h-4v1c0 1.258.872 3.528 4 3.931v.069h-6c-.806 0-.988-.55-1-1.012l-1 .012h-1c0 1.206.799 3 3 3h1.149c.174.71.555 1.741 1.373 2.901l-3.522 2.818-3.676-2.941c.466-.928.676-1.828.676-2.778v-7h-1c-.334 0-2-.097-2-2 0-1.826 1.536-1.992 2-2h1v-3.264c.314.09.627.148.931.148.86 0 1.655-.322 2.26-.748.896.57 2.164.864 3.809.864 1.155 0 2.153-.206 3-.6v2.837l1.382 2.763zm-11.777 13.459 3.029 2.424-2.507 1.504-.632-3.793c.037-.046.074-.091.11-.135zm-8.223-19.459c0-6.225 4.626-9 15-9 5.819 0 5.995 2.895 6 3l.014.164c.004.022.34 2.272-.834 3.658-.662.782-1.732 1.178-3.18 1.178-1.652 0-2.771-.332-3.15-.936-.404-.643.043-1.614.048-1.624l-.898-.44-.895-.447c-.312.625-.65 1.884-.211 3.046-.5.312-1.321.561-2.187-.306-1.18-1.18-.294-2.282.006-2.592l-.713-.701-.707-.707c-1.029 1.029-1.885 3.178-.293 5.089v2.744c-1.445.357-3 1.508-3 3.874s1.555 3.517 3 3.874v2.37c-2.646-1.726-8-5.989-8-12.244zm-1 49v-12h5v12zm22 0h-15v-20h-2v6h-5c0-.075.053-7.562 4.625-11.219 1.077-.861 1.987-1.643 2.763-2.374l.867 5.206 5.745-3.447 5.745 3.447.933-5.598c3.132 2.412 4.871 4.847 6.418 9.269l-3.096 1.239v-2.523h-2zm7-7c-2.595 0-4.45-4.325-5-6.148v-2.174l3.718-1.487c.063.208.127.427.19.643l-.814 1.744 1.813.846 7.139-15.297-.064-.321c-.324-1.626-.303-3.519.018-3.806h4v1h-3v1 1 1c0 .46.112.891.298 1.281-3.418 3.525-5.298 10.745-5.298 14.719 0 1.709.374 3.274 1.039 4.64-.261.338-1.273 1.36-4.039 1.36zm10-22v-1h1c1.215 0 2-.785 2-2v-1h2v5h-4c-.552 0-1-.448-1-1zm11 16c0 4.71-3.29 8-8 8s-8-3.29-8-8c0-3.705 1.779-10.279 4.711-13.303.392.188.826.303 1.289.303h4c.457 0 .864-.142 1.194-.381 2.957 3.006 4.806 9.644 4.806 13.381zm-5.638-21.96c-.119-.024-.24-.04-.362-.04h-2-2-3.586l-2-2c.651-.434 1.998-1 4.586-1 3.016 0 5.288.379 6.553.658zm-10.041-11.809c-1.497-1.658-1.525-4.1-1.43-5.306 6.039-.289 7.025 5.57 7.108 6.149v.982c-2.587.092-4.5-.52-5.678-1.825z"/><path d="m43.5 10.379h2v4.243h-2z" transform="matrix(.707 -.707 .707 .707 4.195 35.127)"/><path d="m51.697 13h3.606v2h-3.606z" transform="matrix(.832 -.555 .555 .832 1.22 32.028)"/></g></g></svg>