<svg id="_x33_0" enable-background="new 0 0 64 64" height="512" viewBox="0 0 64 64" width="512" xmlns="http://www.w3.org/2000/svg"><g><g><g><path d="m61 52v8l-12-2v-5z" fill="#ff826e"/></g><g><path d="m16.78 9.97c-.21.57-.77 1.03-1.78 1.03-3 0-4 4-2 7 1.8 2.71 2.8 7.04.03 10.07-.3.32-.64.64-1.03.93-4 3-4 7-4 7v3l-3-2c-1.13-.68-1.45-1.92-.77-3.04l1.04-1.75c.43-.71.32-1.62-.27-2.21l-1-1c-1-1-.57-2.15 0-3l2-2c2-2 1-3 0-4-1.24-1.24-2-3.77-2-8 0-7 7-10 14-10s9 6 6 8c-1 .67-2.11.89-3.15.89-2.07 0-3.85-.89-3.85-.89z" fill="#b27946"/></g><g><path d="m31 62h-18c.6 0 1-.4 1-1v-5-7h9s8 7 8 13z" fill="#969faa"/></g><g><path d="m9 62h-7c1-8 6-12 6-12v6 5c0 .6.4 1 1 1z" fill="#969faa"/></g><g><path d="m14 49v7h-6v-6-11-3s0-4 4-7c.39-.29.73-.61 1.03-.93l.97 1.93c1 2 2.33 2 3 2h6l.36-.13c.93 1.07 1.64 2.1 1.64 3.13 0 .34-.03.67-.08.99-.35 2.44-1.92 4.01-1.92 4.01v9z" fill="#b4dd7f"/></g><g><circle cx="52" cy="12" fill="#fcd770" r="10"/></g><g><path d="m51 38c0 2.09-1.07 3.93-2.68 5h-.32-6.32c-1.61-1.07-2.68-2.91-2.68-5 0-1.09.29-2.12.8-3h3.2c.53 0 1-.47 1-1v-1h2c.43 0 .94-.29 1.03-.65 2.31.84 3.97 3.05 3.97 5.65z" fill="#fcd770"/></g><g><path d="m56 43s.76 7.6-7 9.55l-.06.01c-.13-.59-.55-1.56-1.94-1.56-2 0-2 0-2 0s-1.44 0-2 1h-3c-.31 0-.61.08-.84.23l-.16-.23c-5.62-2.63-5-9-5-9h7.68 6.32.32 2.68z" fill="#cf9e76"/></g><g><path d="m43 52c.56-1 2-1 2-1s0 0 2 0c1.39 0 1.81.97 1.94 1.56.06.25.06.44.06.44v5s-7.77 1.47-10-3c-.73-1.45-.48-2.38.16-2.77.23-.15.53-.23.84-.23z" fill="#f0d0b4"/></g><g><path d="m47 32c.07.12.07.24.03.35-.09.36-.6.65-1.03.65h-2v1c0 .53-.47 1-1 1h-3.2-1.8v-4s7.11-2.43 9 1z" fill="#f0d0b4"/></g><g><path d="m14 56v5c0 .6-.4 1-1 1h-4c-.6 0-1-.4-1-1v-5z" fill="#f0d0b4"/></g><g><path d="m23.97 19.51-.97.49v2 3h-4c0 1.92 1.38 3.6 2.81 5.17.53.58 1.07 1.14 1.55 1.7l-.36.13h-6c-.67 0-2 0-3-2l-.97-1.93c2.77-3.03 1.77-7.36-.03-10.07-2-3-1-7 2-7 1.01 0 1.57-.46 1.78-1.03l.22.03s1.78.89 3.85.89l2.15.11v3 3l1.19 1.19c.4.4.29 1.07-.22 1.32z" fill="#f0d0b4"/></g></g><g><path d="m56.995 42.9-.09-.9h-5.905-.256c.806-1.157 1.256-2.545 1.256-4 0-2.74-1.615-5.197-4.065-6.334-.021-.049-.032-.101-.059-.149-2.099-3.803-8.748-1.922-10.004-1.527l-15.761-.985c-.865-.979-1.615-1.979-1.936-3.005h3.825v-5.382l.419-.209c.524-.262.894-.764.988-1.342.094-.579-.098-1.171-.512-1.585l-.895-.897v-5.432c.187-.098.373-.2.555-.322 1.546-1.03 2.163-2.953 1.574-4.899-.69-2.274-3.232-4.932-8.129-4.932-7.466 0-15 3.401-15 11 0 4.316.75 7.164 2.293 8.707.387.386.786.786.852 1.114.09.45-.495 1.115-.852 1.472l-2 2-.125.152c-1.439 2.16-.539 3.597.125 4.262l1 1c.264.264.313.671.122.991l-1.046 1.743c-.466.775-.608 1.647-.402 2.454.205.801.744 1.498 1.479 1.937l2.554 1.703v10.013c-1.228 1.131-5.102 5.207-5.992 12.328l-.141 1.124h8.133 4 19v-1c0-5.732-6.44-12.007-8-13.443v-8.177c.457-.55 1.325-1.764 1.75-3.435l12.25-.945h.302c-.193.647-.302 1.319-.302 2 0 1.455.45 2.843 1.256 4h-6.164l-.088.902c-.007.068-.548 6.436 4.735 9.549-.257.64-.327 1.61.366 2.996 2.364 4.729 9.619 3.774 10.897 3.567l12.998 2.167v-10.268l-8.751.729c4.222-3.241 3.753-8.673 3.746-8.742zm-49.995 13.1v1 4h-3.835c.73-4.002 2.504-6.836 3.835-8.492zm15-36.618v1.785c-1.14.156-2.723.151-3.105-.614l-1.789.895c.729 1.458 2.375 1.808 3.785 1.808.398 0 .775-.029 1.109-.067v.811h-5v2h1.104c.377 1.909 1.764 3.535 3.114 5h-4.218c-.583 0-1.382 0-2.105-1.447l-.679-1.359c2.471-3.245 1.696-7.63-.383-10.749-.937-1.405-1.143-3.222-.502-4.419.363-.681.925-1.026 1.669-1.026.917 0 1.659-.308 2.173-.839.944.367 2.837.942 4.827.64v1.728c-.482.339-1.36.696-2.293-.236l-1.414 1.414c.856.856 1.778 1.177 2.638 1.177.375 0 .729-.077 1.069-.181v1.711l1.312 1.311zm-15 16.618v1.132l-1.485-.99c-.324-.194-.535-.451-.61-.743-.073-.289-.012-.61.18-.929l1.046-1.743c.665-1.108.491-2.521-.423-3.435l-1-1c-.212-.211-.601-.601.073-1.659l1.927-1.927c2.707-2.707.946-4.468 0-5.414-.779-.778-1.708-2.675-1.708-7.292 0-6.643 7.003-9 13-9 3.802 0 5.725 1.893 6.215 3.513.333 1.1.038 2.117-.77 2.655-1.959 1.305-4.551.515-5.563.122-.025-.716-.315-1.422-.829-1.89-.687-.624-1.621-.733-2.5-.294l.895 1.789c.179-.089.221-.05.26-.016.15.137.245.485.145.744-.098.25-.384.377-.853.377-1.474 0-2.726.759-3.434 2.083-.989 1.848-.747 4.449.602 6.472 1.395 2.091 3.028 6.798-.768 9.646-4.35 3.261-4.4 7.615-4.4 7.799zm6 25h-4v-4h4zm16.921 0h-14.921v-4-7h7.613c1.254 1.159 6.594 6.333 7.308 11zm-7.628-21.707-.293.293v8.414h-7v-13h-2v20h-4v-18.994c.002-.145.079-3.565 3.6-6.206.046-.035.083-.073.128-.108l.378.755c1.276 2.553 3.178 2.553 3.894 2.553h5.999c.581.727 1.001 1.418 1.001 2 0 2.526-1.693 4.278-1.707 4.293zm14.707-5.219-11.008.847c-.033-1.353-.878-2.568-1.949-3.791l12.957.809zm10.285-.515c1.645.848 2.715 2.553 2.715 4.441 0 1.587-.753 3.058-2.016 4h-5.969c-1.262-.942-2.015-2.413-2.015-4 0-.692.148-1.372.422-2h2.578c1.084 0 2-.916 2-2h1c.457 0 .913-.174 1.285-.441zm-8.285.443v-2.261c1.847-.507 5.313-1.081 6.747.259h-2.747v2zm9 20.085v3.042c-1.902.21-6.615.405-8.105-2.576-.38-.759-.387-1.234-.277-1.411.078-.128.293-.142.382-.142h1.796c.014.408.1.848.256 1.316l1.896-.633c-.109-.33-.261-.933-.033-1.253.224-.315.833-.426 1.085-.43h2c.806 0 .988.55 1 1zm-1-4.087h-2c-.17 0-1.584.03-2.493 1h-2.507c-.216 0-.423.026-.621.07-3.716-1.766-4.324-5.379-4.395-7.07h13.016 3 4.015c-.083 1.807-.819 5.798-5.488 7.349-.451-.742-1.25-1.349-2.527-1.349zm13 3.087v5.732l-10-1.667v-3.232z"/><path d="m51 19h2v-2h3v-6h-6v-2h6v-2h-3v-2h-2v2h-3v6h6v2h-6v2h3z"/><path d="m52 23c6.065 0 11-4.935 11-11s-4.935-11-11-11-11 4.935-11 11 4.935 11 11 11zm0-20c4.963 0 9 4.038 9 9s-4.037 9-9 9-9-4.038-9-9 4.037-9 9-9z"/></g></g></svg>