<svg id="_x33_0" enable-background="new 0 0 64 64" height="512" viewBox="0 0 64 64" width="512" xmlns="http://www.w3.org/2000/svg"><g><g><g><path d="m22 36c-5.63 4.5 1 14 10 16v10h-1.93-.07v-4l-3-1 1-1c.53-.53 0-2-1-2 0 0-1 0-3 1l-3 4s-14-5-15-16c-.72-7.91 4.25-12.72 7.1-14.79l1.9 3.79c.2.61.64.54 1 0l2.32-2.98c.36-.55 1.12-.66 1.64-.25l3.04 2.23c.51.41 1 0 1-1v-2.42c1.92.66 4.96 1.99 8 4.42v6s-5-6-10-2z" fill="#75b1f2"/></g><g><path d="m24 27.58v2.42c0 1-.49 1.41-1 1l-3.04-2.23c-.52-.41-1.28-.3-1.64.25l-2.32 2.98c-.36.54-.8.61-1 0l-1.9-3.79c1.11-.82 1.9-1.21 1.9-1.21 4 3 7 0 7 0s.77.15 2 .58z" fill="#5d9cec"/></g><g><path d="m40 27.67v2.33c0 1 .49 1.41 1 1l3.04-2.23c.52-.41 1.28-.3 1.64.25l2.32 2.98c.36.54.8.61 1 0l1.9-3.79c2.85 2.07 7.82 6.88 7.1 14.79-1 11-15 16-15 16l-3-4c-2-1-3-1-3-1-1 0-1.53 1.47-1 2l1 1-3 1v4h-2v-10c9-2 15.63-11.5 10-16-5-4-10 2-10 2v-6c3.03-2.42 6.05-3.74 7.97-4.41z" fill="#fcd770"/></g><g><path d="m42 27s3 3 7 0c0 0 .79.39 1.9 1.21l-1.9 3.79c-.2.61-.64.54-1 0l-2.32-2.98c-.36-.55-1.12-.66-1.64-.25l-3.04 2.23c-.51.41-1 0-1-1v-2.33l-.03-.08c1.25-.43 2.03-.59 2.03-.59z" fill="#ffc729"/></g><g><path d="m40.77 7.09c-.47.17-1.59.62-2.77 1.36-.69.42-1.39.94-2 1.55v-3h-2s2-5 10-5 11 7 11 11c0 3-3 9-6 9v-5s2 0 2-2-2-2-2-2v-3s-1-2-6-2c0 0-1.34 0-2.23-.91z" fill="#b27946"/></g><g><path d="m21.13 7.87-.13.13c-3.28.44-6 2-6 2v3s-2 0-2 2 2 2 2 2v5c-3 0-6-6-6-9 0-4 3-11 11-11 7 0 9 1 9 4 0 2.28-1.73 2.83-3 2.96-.41.04-.76.04-1 .04-.66 0-2.6 0-3.87-1.13z" fill="#656d78"/></g><g><path d="m30 58v4s-8 0-9-3l3-4c2-1 3-1 3-1 1 0 1.53 1.47 1 2l-1 1z" fill="#f0d0b4"/></g><g><path d="m40 55 3 4c-1 3-9 3-9 3v-4l3-1-1-1c-.53-.53 0-2 1-2 0 0 1 0 3 1z" fill="#f0d0b4"/></g><g><path d="m42 23.29c-1.92.71-4 .71-4 .71v-4-2h-.86c-1 0-1.37-.64-1-1l1.86-2v-6.55c1.18-.74 2.3-1.19 2.77-1.36.89.91 2.23.91 2.23.91 5 0 6 2 6 2v3s2 0 2 2-2 2-2 2v5 5c-4 3-7 0-7 0z" fill="#f0d0b4"/></g><g><path d="m26 20v4s-2.09 0-4-.76v3.76s-3 3-7 0v-5-5s-2 0-2-2 2-2 2-2v-3s2.72-1.56 6-2l.13-.13c1.27 1.13 3.21 1.13 3.87 1.13.24 0 .59 0 1-.04v.04 6l2 2c.36.36 0 1-1 1h-1z" fill="#f0d0b4"/></g><g><path d="m42 36c5.63 4.5-1 14-10 16-9-2-15.63-11.5-10-16 5-4 10 2 10 2s5-6 10-2z" fill="#ff826e"/></g></g><g><path d="m42.625 35.219c-4.043-3.236-8.346-.886-10.625 1.317-2.279-2.203-6.58-4.553-10.625-1.317-2.077 1.661-2.875 4.065-2.247 6.769 1.141 4.915 6.581 9.638 12.654 10.988l.218.048.217-.048c6.074-1.35 11.514-6.073 12.654-10.988.628-2.704-.17-5.108-2.246-6.769zm.298 6.317c-.833 3.59-5.133 8.066-10.923 9.438-5.79-1.373-10.09-5.848-10.923-9.438-.457-1.968.064-3.568 1.547-4.755 1.04-.832 2.084-1.146 3.071-1.146 2.968 0 5.403 2.846 5.538 3.006l.77.917.765-.918c.179-.214 4.42-5.207 8.607-1.859 1.484 1.187 2.005 2.787 1.548 4.755z"/><path d="m50 26.418v-3.591c3.315-1.025 6-6.831 6-9.827 0-4.983-3.723-12-12-12-8.579 0-10.836 5.399-10.929 5.628l-.548 1.372h2.477v4.414l1.707-1.707c.095-.095.193-.186.293-.276v4.175l-1.57 1.687c-.424.424-.545 1.029-.318 1.578.275.663.991 1.087 1.888 1.126v6.003h1c.101 0 1.438-.011 3-.378v1.596c-1.574.435-5.221 1.667-9 4.516-3.779-2.85-7.426-4.081-9-4.516v-1.614c1.561.386 2.901.396 3 .396h1v-6c.961 0 1.737-.433 2.026-1.129.228-.549.105-1.154-.319-1.578l-1.707-1.707v-4.811c2.559-.645 3-2.55 3-3.775 0-4.203-3.515-5-10-5-8.277 0-12 7.017-12 12 0 2.996 2.685 8.802 6 9.827v3.591c-2.166 1.3-9.904 6.679-8.996 16.672.963 10.593 12.915 15.781 15.27 16.704 1.651 3.038 8.34 3.206 9.726 3.206h.07.93 2 1c1.386 0 8.075-.168 9.726-3.206 2.355-.923 14.307-6.111 15.27-16.704.908-9.993-6.83-15.372-8.996-16.672zm-.946 1.761c.157.094.346.213.561.355l-1.192 2.383-1.413-1.812c.657-.179 1.342-.474 2.044-.926zm-13.191-22.179c1.158-1.285 3.561-3 8.137-3 7.556 0 10 6.737 10 10 0 2.261-2.01 6.494-4 7.677v-2.843c1.006-.333 2-1.195 2-2.833s-.994-2.5-2-2.833v-2.404l-.105-.211c-.131-.261-1.435-2.553-6.895-2.553-.334 0-2-.096-2-2h-2c0 .625.126 1.149.312 1.612-.661.305-1.482.73-2.312 1.291v-1.903zm8.981 16.707-1.414-1.414c-1.068 1.068-3.081 1.5-4.43 1.645v-1.697c.088.005.176.011.27.011.961 0 2.209-.316 3.437-1.544l-1.414-1.414c-.901.9-1.754 1.005-2.293.948v-2.242h-1.496l1.496-1.606v-6.377c.609-.345 1.176-.609 1.597-.787.763.53 1.663.77 2.403.77 3.4 0 4.658.979 5 1.327l.014 3.648.974.025c.462.012 1.012.195 1.012 1s-.55.988-1 1h-1v10.471c-2.445 1.589-4.295.595-5 .066v-2.59c.676-.312 1.318-.714 1.844-1.24zm-3.102 5.385c.236.182.508.359.817.523l-1.559 1.145v-1.452c.299-.093.549-.165.742-.216zm-26.801.084c.703.453 1.389.749 2.047.929l-1.41 1.814-1.198-2.395c.213-.138.403-.256.561-.348zm7.318-.085c.192.051.442.122.741.214v1.454l-1.559-1.144c.309-.164.582-.341.818-.524zm4.327-11.091h-1.586v2.241c-.534.056-1.391-.046-2.293-.948l-1.414 1.414c1.228 1.228 2.476 1.544 3.437 1.544.094 0 .182-.005.27-.011v1.695c-1.302-.146-3.229-.579-4.293-1.643l-1.414 1.414c.495.495 1.086.877 1.707 1.182v2.648c-.71.532-2.559 1.52-5-.066v-9.47l-.014-.975-.974-.025c-.462-.012-1.012-.195-1.012-1s.55-.988 1-1h1v-3.394c.881-.434 2.821-1.283 5.013-1.595.89.586 2.158.989 3.987.989v5.414zm-16.586-4c0-3.263 2.444-10 10-10 7.443 0 8 1.188 8 3 0 1.42-.869 2-3 2-3.585 0-4-1.712-4-3h-2c0 .568.084 1.419.479 2.26-2.774.622-4.876 1.815-4.978 1.874l-.501.287v2.745c-1.006.334-2 1.195-2 2.834s.994 2.5 2 2.833v2.843c-1.99-1.182-4-5.415-4-7.676zm19 47.974c-2.592-.128-5.846-.742-6.812-1.892l2.463-3.284c1.539-.74 2.34-.797 2.347-.799.079.025.199.234.211.376l-2.061 2.061 3.852 1.285zm6 0v-2.253l3.851-1.284-2.061-2.061c.012-.143.13-.352.189-.376.008 0 .811.05 2.37.799l2.463 3.284c-.966 1.147-4.22 1.761-6.812 1.891zm22.004-18.064c-.807 8.879-10.926 13.725-13.663 14.878l-1.918-2.557c2.361-1.678 8.772-6.526 10.506-10.859 2.17-5.426-.003-8.786-.097-8.926l-1.669 1.102c.069.108 1.667 2.687-.092 7.082-1.614 4.036-8.349 8.95-10.166 10.222-1.753-.799-2.717-.852-2.905-.852-.87 0-1.642.557-2.013 1.453-.316.763-.244 1.566.175 2.105l-2.162.721v3.721h-2v-3.721l-2.162-.721c.419-.539.491-1.342.175-2.105-.371-.896-1.143-1.453-2.013-1.453-.188 0-1.152.053-2.905.851-1.817-1.272-8.552-6.186-10.166-10.222-1.758-4.395-.161-6.974-.092-7.082l-.837-.547-.832-.555c-.094.14-2.267 3.5-.097 8.926 1.733 4.333 8.145 9.181 10.506 10.859l-1.918 2.558c-2.737-1.149-12.854-5.981-13.663-14.878-.606-6.665 3.05-10.961 5.748-13.184l1.334 2.667c.307.824.917.993 1.171 1.026.046.006.105.011.172.011.338 0 .908-.123 1.368-.816l2.36-3.036c.021-.031.05-.05.087-.056.039-.005.071.004.133.052l3.006 2.207c.496.396 1.101.483 1.624.234.636-.306 1.001-1.04 1.001-2.015v-.968c1.771.73 4.073 1.907 6.375 3.749l.625.5.625-.5c2.295-1.836 4.6-3.014 6.375-3.745v.964c0 .975.365 1.709 1.001 2.015.522.249 1.128.162 1.591-.209l3.072-2.256c.028-.024.063-.033.1-.027s.066.024.13.115l2.274 2.917c.498.747 1.078.875 1.416.875.066 0 .122-.004.167-.011.253-.034.864-.202 1.171-1.026l1.322-2.643c2.694 2.245 6.36 6.565 5.76 13.16z"/><path d="m40.441 11.103-.889 1.792c.066.033 1.122.549 2.528.549.725 0 1.543-.137 2.367-.549l-.895-1.789c-1.509.754-3.095.004-3.111-.003z"/><path d="m24.672 40.24c.076-.84.881-1.407.889-1.413l-.561-.827-.555-.832c-.162.108-1.588 1.106-1.762 2.862-.124 1.248.418 2.485 1.609 3.677l1.414-1.414c-.741-.743-1.089-1.433-1.034-2.053z"/><path d="m20.447 11.105-.895 1.789c.823.412 1.642.549 2.367.549 1.406 0 2.462-.516 2.528-.549l-.895-1.789c-.014.008-1.594.756-3.105 0z"/><path d="m26 43.586h2v2.828h-2z" transform="matrix(.707 -.707 .707 .707 -23.912 32.272)"/></g></g></svg>