<svg id="Capa_1" enable-background="new 0 0 512 512" height="512" viewBox="0 0 512 512" width="512" xmlns="http://www.w3.org/2000/svg"><g><path d="m484.959 347.674v-273.536h-457.918v273.536h-27.041v15.843c0 40.994 32.777 74.345 73.771 74.345h364.457c40.994 0 73.771-33.351 73.771-74.345v-15.843zm-427.918-243.536h397.918v243.536h-179.505v-11.958c0-35.203-21.099-65.569-51.313-79.124 10.099-9.566 15.992-22.984 15.992-36.916 0-28.3-23.483-51.323-52.349-51.323-28.859 0-52.339 23.023-52.339 51.323 0 13.945 5.894 27.336 15.99 36.917-30.214 13.555-51.312 43.92-51.312 79.123v11.958h-43.082zm147.063 130.11c-4.28 4.354-10.076 6.752-16.32 6.752-11.721 0-22.339-9.278-22.339-21.324 0-11.758 10.021-21.323 22.339-21.323 12.323 0 22.349 9.565 22.349 21.323 0 5.426-2.15 10.61-6.029 14.572zm-15.32 44.798c31.248 0 56.67 25.422 56.67 56.67v11.958h-115.33v-11.958c0-32.263 27.085-56.849 58.66-56.67zm249.445 128.816h-364.458c-19.505 0-36.107-12.656-42.028-30.188h448.514c-5.921 17.532-22.524 30.188-42.028 30.188z"/><path d="m421.758 140.692h-130.199v51.751l-22.435 57.405h152.634zm-30 79.157h-78.7l8.501-21.751v-27.405h70.199z"/></g></svg>