<svg id="Capa_1" enable-background="new 0 0 512.008 512.008" height="512" viewBox="0 0 512.008 512.008" width="512" xmlns="http://www.w3.org/2000/svg"><g><path d="m510.586 439.816c-.021-.067-.042-.133-.064-.2l-20.338-61.795v-151.325c0-24.813-20.187-45-45-45h-161.362v-103.37c0-24.813-20.187-45-45-45h-172c-24.813 0-45 20.187-45 45v152.329l-20.338 61.8c-.022.067-.043.135-.064.202-3.877 12.366.343 25.346 10.751 33.068 5.373 3.986 11.609 5.988 17.858 5.988 5.828 0 11.667-1.74 16.829-5.235l39.298-26.151h142.027v102.37c0 24.813 20.187 45 45 45h152.665l39.294 26.148c5.165 3.496 11.007 5.238 16.836 5.238 6.25 0 12.488-2.002 17.861-5.99 10.409-7.724 14.627-20.707 10.747-33.077zm-428.964-169.69c-2.957 0-5.848.874-8.31 2.512l-43.131 28.702c-.044.03-.089.06-.133.09l21.022-63.881c.498-1.513.752-3.096.752-4.689v-154.734c0-8.271 6.729-15 15-15h172c8.271 0 15 6.729 15 15v177c0 8.271-6.729 15-15 15zm400.335 178.673c-.044-.031-.089-.061-.134-.09l-43.13-28.7c-2.461-1.638-5.353-2.512-8.31-2.512h-157.2c-8.271 0-15-6.729-15-15v-106.756c15.149-7.251 25.638-22.73 25.638-40.615v-43.63h161.362c8.271 0 15 6.729 15 15v153.73c0 1.593.254 3.176.752 4.689l21.026 63.886c-.001 0-.002-.001-.004-.002z"/><path d="m208.67 205.294c6.785-10.777 10.727-23.516 10.727-37.164 0-38.583-31.39-69.973-69.973-69.973s-69.973 31.39-69.973 69.973 31.39 69.973 69.973 69.973c14.098 0 27.225-4.205 38.222-11.406l6.568 6.569c2.929 2.929 6.767 4.394 10.606 4.394 3.838 0 7.678-1.465 10.606-4.393 5.858-5.858 5.858-15.355 0-21.213zm-59.245 2.808c-22.041 0-39.973-17.932-39.973-39.973s17.932-39.973 39.973-39.973 39.973 17.932 39.973 39.973c0 5.293-1.043 10.344-2.92 14.971l-6.222-6.222c-5.858-5.858-15.355-5.858-21.213 0s-5.858 15.355 0 21.213l6.572 6.572c-4.953 2.204-10.429 3.439-16.19 3.439z"/><path d="m376.287 258.735c-.052-.137-.105-.274-.161-.41-2.711-6.592-9.03-10.876-16.195-10.839-7.127.007-13.476 4.274-16.174 10.87-.046.113-.091.227-.134.341l-41.307 108.458c-2.949 7.742.937 16.408 8.679 19.357 1.757.669 3.561.986 5.336.986 6.044 0 11.741-3.681 14.021-9.665l6.608-17.351h45.662l6.532 17.308c2.925 7.751 11.58 11.663 19.33 8.738s11.663-11.579 8.737-19.33zm-27.903 71.746 11.51-30.22 11.405 30.22z"/></g></svg>