<svg id="Capa_1" enable-background="new 0 0 512 512" height="512" viewBox="0 0 512 512" width="512" xmlns="http://www.w3.org/2000/svg"><g><path d="m467 0h-422c-24.813 0-45 20.187-45 45v293c0 24.813 20.187 45 45 45h160.819c-2.25 10.458-5.636 24.517-10.199 38.99-13.608 43.163-26.602 56.122-33.196 60.01h-42.424c-8.284 0-15 6.716-15 15s6.716 15 15 15h272c8.284 0 15-6.716 15-15s-6.716-15-15-15h-41.615c-6.575-3.878-19.523-16.782-33.099-59.701-4.602-14.548-8.023-28.748-10.292-39.3h160.006c24.813 0 45-20.187 45-45v-292.999c0-24.813-20.186-45-45-45zm-422 30h422c8.271 0 15 6.729 15 15v220h-452v-220c0-8.271 6.729-15 15-15zm243.577 401.01c6.654 21.105 13.961 38.049 22.019 50.99h-108.384c8.059-12.941 15.366-29.885 22.02-50.99 5.912-18.75 9.938-36.588 12.239-48.01h39.868c2.3 11.423 6.327 29.261 12.238 48.01zm178.423-78.01h-20v-9c0-8.284-6.716-15-15-15s-15 6.716-15 15v9h-372c-8.271 0-15-6.729-15-15v-43h452v43c0 8.271-6.728 15-15 15z"/><path d="m144 183h224c8.284 0 15-6.716 15-15s-6.716-15-15-15h-224c-8.284 0-15 6.716-15 15s6.716 15 15 15z"/><path d="m192 119h128c8.284 0 15-6.716 15-15s-6.716-15-15-15h-128c-8.284 0-15 6.716-15 15s6.716 15 15 15z"/></g></svg>