<svg id="Capa_1" enable-background="new 0 0 512 512" height="512" viewBox="0 0 512 512" width="512" xmlns="http://www.w3.org/2000/svg"><g><g id="XMLID_1_"><g><path d="m408.03 62.97c40.61 40.61 62.97 94.6 62.97 152.03s-22.36 111.42-62.97 152.03c-9.43 9.43-19.6 17.87-30.35 25.28l25.16 56.34c6.24 13.98 4.99 29.99-3.34 42.84-8.33 12.84-22.44 20.51-37.75 20.51h-211.5c-15.31 0-29.42-7.67-37.75-20.51-8.33-12.85-9.58-28.86-3.34-42.84l25.16-56.34c-10.75-7.41-20.91-15.85-30.35-25.28-40.61-40.61-62.97-94.6-62.97-152.03s22.36-111.42 62.97-152.03 94.6-62.97 152.03-62.97 111.42 22.36 152.03 62.97zm32.97 152.03c0-64.54-33.23-121.46-83.48-154.58-3.31 18.61-12.17 35.94-25.81 50 32.14 24.47 51.29 63.46 51.29 104.58 0 70.03-56.97 127-127 127s-127-56.97-127-127c0-41.12 19.15-80.11 51.29-104.58-13.63-14.04-22.52-31.36-25.83-49.98-50.24 33.11-83.46 90.02-83.46 154.56 0 102.01 82.99 185 185 185s185-82.99 185-185zm-66.67 260.16c2.82-4.34 3.23-9.55 1.11-14.28l-23.77-53.23c-29.36 14.62-61.92 22.35-95.67 22.35s-66.31-7.73-95.67-22.35l-23.77 53.23c-2.12 4.73-1.71 9.94 1.11 14.28 2.82 4.35 7.4 6.84 12.58 6.84h211.5c5.18 0 9.76-2.49 12.58-6.84zm-21.33-260.16c0-31.67-15.44-62.84-40.29-81.34-6.75-5.03-10.96-12.71-11.55-21.07-.59-8.39 2.51-16.61 8.52-22.55 12.21-12.35 19.01-28.29 19.29-45.03-22.4-9.65-47.07-15.01-72.97-15.01s-50.57 5.36-72.97 15.01c.28 16.74 7.08 32.68 19.26 44.99l.14.15c5.92 5.91 8.99 14.14 8.39 22.51-.61 8.34-4.82 16-11.55 21.02-24.84 18.5-40.27 49.66-40.27 81.32 0 53.49 43.51 97 97 97s97-43.51 97-97z"/><path d="m256 160c30.33 0 55 24.67 55 55s-24.67 55-55 55-55-24.67-55-55 24.67-55 55-55zm25 55c0-13.79-11.21-25-25-25s-25 11.21-25 25 11.21 25 25 25 25-11.21 25-25z"/></g></g></g></svg>