<svg id="Capa_1" enable-background="new 0 0 512 512" height="512" viewBox="0 0 512 512" width="512" xmlns="http://www.w3.org/2000/svg"><g><path d="m467 0h-422c-24.813 0-45 20.187-45 45v293c0 24.813 20.187 45 45 45h160.819c-2.249 10.458-5.636 24.517-10.199 38.99-13.608 43.163-26.602 56.122-33.196 60.011h-42.424c-8.284 0-15 6.716-15 15s6.716 15 15 15h272c8.284 0 15-6.716 15-15s-6.716-15-15-15h-41.614c-6.574-3.878-19.523-16.782-33.099-59.701-4.602-14.548-8.023-28.749-10.293-39.3h160.006c24.813 0 45-20.187 45-45v-293c0-24.813-20.187-45-45-45zm-422 30h422c8.271 0 15 6.729 15 15v220h-45.686l-21.844-37.089v-68.935c8.065-.25 14.53-6.851 14.53-14.976 0-8.284-6.716-15-15-15h-96c-8.284 0-15 6.716-15 15s6.716 15 15 15h1.61v68.542l-24.426 37.458h-73.703l-22.481-67.435v-102.565h17c8.284 0 15-6.716 15-15s-6.716-15-15-15h-128c-8.284 0-15 6.716-15 15s6.716 15 15 15h17v102.565l-22.481 67.435h-52.519v-220c0-8.271 6.729-15 15-15zm304.61 202v-73h34.86v73c0 2.677.716 5.306 2.075 7.612l14.953 25.388h-70.499l16.176-24.807c1.589-2.437 2.435-5.284 2.435-8.193zm-214.61-32v-105h34v105c0 1.612.26 3.214.77 4.744l20.088 60.256h-75.716l20.088-60.256c.51-1.53.77-3.132.77-4.744zm153.577 231.011c6.654 21.105 13.961 38.049 22.02 50.99h-108.385c8.059-12.941 15.366-29.885 22.02-50.99 5.911-18.75 9.938-36.588 12.239-48.011h39.868c2.3 11.423 6.327 29.261 12.238 48.011zm178.423-78.011h-20v-9c0-8.284-6.716-15-15-15s-15 6.716-15 15v9h-372c-8.271 0-15-6.729-15-15v-43h452v43c0 8.271-6.729 15-15 15z"/><circle cx="342" cy="88.001" r="15"/><circle cx="406" cy="72.001" r="15"/></g></svg>