<svg id="Capa_1" enable-background="new 0 0 512 512" height="512" viewBox="0 0 512 512" width="512" xmlns="http://www.w3.org/2000/svg"><g><path d="m467 0h-422c-24.813 0-45 20.187-45 45v293c0 24.813 20.187 45 45 45h160.819c-2.25 10.458-5.636 24.517-10.199 38.99-13.608 43.163-26.602 56.122-33.196 60.011h-42.424c-8.284 0-15 6.716-15 15s6.716 15 15 15h272c8.284 0 15-6.716 15-15s-6.716-15-15-15h-41.615c-6.575-3.878-19.523-16.782-33.099-59.701-4.602-14.548-8.023-28.749-10.292-39.3h160.006c24.813 0 45-20.187 45-45v-293c0-24.813-20.186-45-45-45zm15 45v220h-43v-49c0-12.97-6.335-25.477-17.38-34.313-.248-.199-.507-.385-.759-.579 6.34-8.012 10.139-18.122 10.139-29.108 0-25.916-21.084-47-47-47s-47 21.084-47 47c0 10.999 3.808 21.118 10.16 29.134-11.144 8.607-18.16 21.049-18.16 34.866v49h-58v-235h196c8.272 0 15 6.729 15 15zm-123 220v-49c0-9.056 11.683-17 25-17 7.142 0 14.023 2.228 18.879 6.113 2.286 1.828 6.121 5.675 6.121 10.887v49zm8-113c0-9.374 7.626-17 17-17s17 7.626 17 17-7.626 17-17 17-17-7.626-17-17zm-322-122h196v235h-58v-49c0-12.97-6.334-25.477-17.38-34.313-.248-.199-.507-.385-.759-.579 6.34-8.012 10.139-18.122 10.139-29.108 0-25.916-21.084-47-47-47s-47 21.084-47 47c0 10.999 3.808 21.118 10.16 29.134-11.144 8.607-18.16 21.049-18.16 34.866v49h-43v-220c0-8.271 6.729-15 15-15zm58 235v-49c0-9.056 11.682-17 25-17 7.142 0 14.023 2.228 18.879 6.113 2.286 1.828 6.121 5.675 6.121 10.887v49zm8-113c0-9.374 7.626-17 17-17s17 7.626 17 17-7.626 17-17 17-17-7.626-17-17zm177.577 279.011c6.654 21.105 13.961 38.049 22.019 50.99h-108.384c8.059-12.941 15.365-29.885 22.02-50.99 5.912-18.75 9.938-36.588 12.239-48.011h39.868c2.3 11.423 6.327 29.261 12.238 48.011zm178.423-78.011h-20v-9c0-8.284-6.716-15-15-15s-15 6.716-15 15v9h-372c-8.271 0-15-6.729-15-15v-43h452v43c0 8.271-6.728 15-15 15z"/></g></svg>