<svg id="Capa_1" enable-background="new 0 0 514 514" height="512" viewBox="0 0 514 514" width="512" xmlns="http://www.w3.org/2000/svg"><g><path d="m514 257v-181c0-41.355-33.645-75-75-75h-73c-41.355 0-75 33.645-75 75v181c0 56.119 41.863 102.637 96 109.983v116.017h-72.67c-8.284 0-15 6.716-15 15s6.716 15 15 15h166.966c8.284 0 15-6.716 15-15s-6.716-15-15-15h-64.296v-115.999c54.689-7.287 97-53.836 97-110.001zm-193-181c0-24.813 20.187-45 45-45h73c24.813 0 45 20.187 45 45v38h-163zm81 262c-39.537 0-72.528-28.481-79.585-66h23.585c8.284 0 15-6.716 15-15s-6.716-15-15-15h-25v-34h25c8.284 0 15-6.716 15-15s-6.716-15-15-15h-25v-34h163v34h-26c-8.284 0-15 6.716-15 15s6.716 15 15 15h26v34h-26c-8.284 0-15 6.716-15 15s6.716 15 15 15h24.567c-7.144 37.519-40.542 66-80.567 66z"/><path d="m240 174.798v-128.798c0-24.813-20.187-45-45-45h-150c-24.813 0-45 20.187-45 45v141c0 24.813 20.187 45 45 45h135.698l26.596 16.623c4.934 3.083 10.439 4.61 15.924 4.61 6.402 0 12.777-2.082 18.176-6.201 10.022-7.648 14.158-20.394 10.535-32.47zm-16.806 48.385-30.244-18.903c-2.384-1.49-5.139-2.28-7.95-2.28h-140c-8.271 0-15-6.729-15-15v-141c0-8.271 6.729-15 15-15h150c8.271 0 15 6.729 15 15v131c0 1.46.213 2.912.633 4.31z"/><path d="m137 138h-32c-8.284 0-15 6.716-15 15s6.716 15 15 15h32c8.284 0 15-6.716 15-15s-6.716-15-15-15z"/><path d="m161 66h-80c-8.284 0-15 6.716-15 15s6.716 15 15 15h80c8.284 0 15-6.716 15-15s-6.716-15-15-15z"/></g></svg>