<svg id="Capa_1" enable-background="new 0 0 512.275 512.275" height="512" viewBox="0 0 512.275 512.275" width="512" xmlns="http://www.w3.org/2000/svg"><g><path d="m467.137 57.275h-283.694c-4.762 0-9.273-2.286-12.09-6.121l-22.757-32.387c-.043-.061-.086-.121-.13-.181-8.443-11.645-22.053-18.586-36.431-18.586-.043 0-.087 0-.129 0l-66.896.189c-.001 0-.001 0-.001 0-24.742.071-44.871 20.258-44.871 45v422.086c0 24.813 20.187 45 45 45h422c24.813 0 45-20.187 45-45v-365c-.001-24.813-20.187-45-45.001-45zm-402 208h-35v-42h35zm0 30v42h-35v-42zm0-102h-35v-42h35zm-35 174h35v42h-35zm65-216h322v331h-322zm387 0v42h-35v-42zm-35 144h35v42h-35zm0-30v-42h35v42zm0 102h35v42h-35zm-402.043-337.086 66.897-.189h.043c4.763 0 9.272 2.284 12.091 6.122l22.756 32.386c.043.06.086.12.129.18 8.438 11.639 22.058 18.588 36.434 18.588h283.694c8.271 0 15 6.729 15 15v19h-452v-76.087c-.001-8.248 6.709-14.977 14.956-15zm-14.957 437.086v-28h35v43h-20c-8.271 0-15-6.729-15-15zm437 15h-20v-43h35v28c0 8.271-6.728 15-15 15z"/><path d="m326.727 296.068-86.523-59.85c-9.203-6.367-21.08-7.097-30.995-1.899-9.913 5.197-16.071 15.378-16.071 26.571v118.969c0 11.157 6.129 21.323 15.996 26.531 4.412 2.329 9.22 3.481 14.012 3.481 5.925 0 11.824-1.762 16.916-5.242l86.524-59.119c8.158-5.575 13.047-14.803 13.075-24.684s-4.807-19.137-12.934-24.758zm-103.59 83.784.006-118.958 86.518 59.846z"/></g></svg>