<svg id="Capa_1" enable-background="new 0 0 512 512" height="512" viewBox="0 0 512 512" width="512" xmlns="http://www.w3.org/2000/svg"><g><path d="m485 385h-16.58c1.665-4.695 2.58-9.742 2.58-15v-180c0-24.813-20.187-45-45-45h-91v-33-57h34v17c0 8.284 6.716 15 15 15s15-6.716 15-15v-32c0-8.284-6.716-15-15-15h-256c-8.284 0-15 6.716-15 15s6.716 15 15 15h49v57 33h-91c-24.813 0-45 20.187-45 45v180c0 5.258.915 10.305 2.58 15h-16.58c-14.888 0-27 12.112-27 27 0 41.355 33.645 75 75 75h362c41.355 0 75-33.645 75-75 0-14.888-12.112-27-27-27zm-59-210c8.271 0 15 6.729 15 15v180c0 8.271-6.729 15-15 15h-45.488c-4.118-20.23-14.13-60.565-33.851-95.676-.241-.503-.505-.999-.808-1.482-.058-.093-.126-.175-.186-.267-11.009-19.184-24.966-36.662-42.501-48.24 19.309-14.416 31.834-37.44 31.834-63.335v-1zm-263.796 210c3.288-14.727 9.189-36.986 18.601-59.133 1.278-3.008 2.579-5.918 3.901-8.737l56.294 35.184v32.686zm93.796-130c21.269 0 40.208 12.072 56.566 35.958l-56.566 35.353-56.567-35.354c16.356-23.884 35.294-35.957 56.567-35.957zm-49-79v-49h98v49c0 27.019-21.981 49-49 49s-49-21.981-49-49zm64 176.314 56.293-35.183c1.252 2.669 2.485 5.419 3.699 8.258 9.498 22.228 15.472 44.746 18.795 59.61h-78.787zm34-297.314v42h-98v-42zm-234 315v-180c0-8.271 6.729-15 15-15h91v1c0 25.895 12.525 48.919 31.834 63.335-17.536 11.578-31.492 29.057-42.502 48.241-.06.091-.128.173-.186.266-.302.484-.567.979-.808 1.482-19.721 35.11-29.733 75.445-33.851 95.676h-45.487c-8.271 0-15-6.729-15-15zm366 87h-362c-23.805 0-43.351-18.581-44.901-42h451.802c-1.55 23.419-21.096 42-44.901 42z"/></g></svg>