<svg id="Capa_1" enable-background="new 0 0 512 512" height="512" viewBox="0 0 512 512" width="512" xmlns="http://www.w3.org/2000/svg"><g><path d="m256 343c74.439 0 135-60.561 135-135s-60.561-135-135-135-135 60.561-135 135 60.561 135 135 135zm0-240c57.897 0 105 47.103 105 105s-47.103 105-105 105-105-47.103-105-105 47.103-105 105-105z"/><path d="m216.343 268.898c2.357 1.4 5.006 2.102 7.657 2.102 2.469 0 4.941-.609 7.182-1.832l88-48c4.991-2.722 8.014-8.032 7.808-13.714-.207-5.681-3.607-10.757-8.783-13.11l-88-40c-4.643-2.112-10.041-1.718-14.328 1.043-4.288 2.762-6.879 7.513-6.879 12.613v88c0 5.294 2.791 10.196 7.343 12.898zm22.657-77.603 39.437 17.926-39.437 21.511z"/><path d="m410 0h-308c-24.813 0-45 20.187-45 45v411c0 32.972 28.752 56 69.92 56h283.08c24.813 0 45-20.187 45-45v-422c0-24.813-20.187-45-45-45zm-308 30h308c8.271 0 15 6.729 15 15v356h-298.08c-15.117 0-28.742 2.908-39.92 8.462v-364.462c0-8.271 6.729-15 15-15zm308 452h-283.08c-18.416 0-39.92-6.809-39.92-26 0-7.438 3.112-13.148 9.519-17.458 7.223-4.863 18.02-7.542 30.401-7.542h298.08v36c0 8.271-6.729 15-15 15z"/></g></svg>