<svg id="Capa_1" enable-background="new 0 0 512 512" height="512" viewBox="0 0 512 512" width="512" xmlns="http://www.w3.org/2000/svg"><g><path d="m425.495 64.381c-37.529-39.463-86.188-62.058-137.778-64.198-.024 0-.048-.004-.073-.004-.003 0-.006 0-.009 0-2.658-.108-5.322-.179-7.994-.179-52.815 0-99.2 19.304-134.138 55.824-32.467 33.936-52.561 81.236-56.688 133.355-4.532 9.127-31.553 43.006-54.963 70.313-.463.54-.886 1.111-1.268 1.71-8.789 13.812-9.612 30.118-2.201 43.617 7.624 13.889 22.319 22.181 39.31 22.181 1.157 0 2.31-.134 3.436-.399l10.93-2.572 14.723 71.625c.487 13.495 6.86 25.845 17.655 34.09 10.866 8.299 24.565 11.183 37.795 8.001l54.413-5.234v34.489c0 24.813 20.187 45 45 45h116c24.813 0 45-20.187 45-45v-94.071c46.639-40.094 72.786-97.881 71.982-159.681-.711-54.5-22.992-108.76-61.132-148.867zm-102.471 160.975c-8.066-1.86-16.119 3.142-17.982 11.215-.397 1.661-5.053 20.052-19.501 38.565-9.177-8.91-14.896-21.364-14.896-35.135 0-27.019 21.981-49 49-49s49 21.981 49 49-21.981 49-49 49c-2.305 0-4.569-.172-6.79-.481 16.091-22.788 21.165-44.106 21.406-45.146 1.861-8.073-3.166-16.155-11.237-18.018zm-3.38-64.356c-5.837 0-11.521.655-17 1.862v-131.188c11.687 1.696 23.064 4.661 34 8.75v122.438c-5.48-1.207-11.163-1.862-17-1.862zm70.621 193.183c-3.985 3.195-5.908 8.008-5.583 12.745-.025.354-.038.712-.038 1.072v99c0 8.271-6.729 15-15 15h-116c-8.271 0-15-6.729-15-15v-51c0-4.228-1.784-8.26-4.914-11.103-2.772-2.519-6.373-3.897-10.085-3.897-.478 0-.958.023-1.438.069l-72 6.926c-.848.082-1.688.235-2.511.46-4.546 1.241-9.305.311-13.051-2.551-3.747-2.862-5.896-7.207-5.896-11.921 0-1.015-.103-2.026-.308-3.02l-18.106-88.089c-.815-3.969-3.202-7.439-6.617-9.621s-7.569-2.888-11.511-1.96l-24.021 5.652c-5.192-.387-9.429-2.778-11.506-6.562-2.002-3.647-1.732-7.985.743-12.297 3.246-3.807 15.884-18.689 28.442-34.325 31.952-39.782 32.37-45.572 32.738-50.68 6.86-94.974 68.397-159.596 154.041-162.935v146.4c-19.401 14.408-32 37.485-32 63.454 0 21.796 8.873 41.558 23.196 55.865-19.235 13.489-46.88 22.51-86.214 17.266-8.204-1.093-15.756 4.674-16.851 12.886-1.095 8.211 4.674 15.756 12.886 16.851 9.233 1.231 17.944 1.798 26.17 1.798 41.795 0 70.889-14.657 90.472-31.339 9.078 3.646 18.974 5.673 29.34 5.673 43.561 0 79-35.439 79-79 0-25.968-12.599-49.045-32-63.454v-121.455c52.503 32.197 89.117 91.907 89.984 158.547.717 54.935-23.472 106.162-66.362 140.545z"/></g></svg>