<svg id="Capa_1" enable-background="new 0 0 512 512" height="512" viewBox="0 0 512 512" width="512" xmlns="http://www.w3.org/2000/svg"><g><path d="m381.71 50.83c-10.823 0-21.497 1.46-31.861 4.351-28.838-35.209-69.422-55.181-112.899-55.181-29.128 0-57.432 9.082-81.854 26.265-21.091 14.838-38.49 35.109-50.722 58.994-26.956 2.708-51.99 15.637-71.312 37.022-21.32 23.585-33.062 54.688-33.062 87.579 0 30.685 10.406 60.241 29.303 83.223 18.973 23.076 44.852 37.677 72.87 41.115.499.062 1.001.098 1.504.108l17.323.374v102.32c0 41.355 33.645 75 75 75h120c41.355 0 75-33.645 75-75v-46.068c3.931-2.271 7.358-5.428 9.961-9.333l42.427-63.64c19.872-11.722 36.67-28.857 48.729-49.78 13.007-22.569 19.883-48.594 19.883-75.259 0-78.349-58.448-142.09-130.29-142.09zm-65.71 431.17h-120c-24.813 0-45-20.187-45-45v-185c0-24.813 20.187-45 45-45h120c4.483 0 8.829.647 13 1.907v48.093h-4.973c-11.085 0-21.22 6.071-26.45 15.844s-4.66 21.574 1.489 30.798l8.993 13.49c.033.049.065.099.099.148l42.881 64.32c2.603 3.905 6.03 7.063 9.961 9.333v46.067c0 24.813-20.187 45-45 45zm60-117.042-51.966-77.958h19.966c8.284 0 15-6.716 15-15v-105h34v105c0 8.284 6.716 15 15 15h19.973l-7.723 11.584c-.006.01-.013.019-.019.028zm77.343-93.966c-5.47-8.681-15.004-13.992-25.37-13.992h-4.973v-90c0-16.542-13.458-30-30-30h-34c-16.542 0-30 13.458-30 30v11.144c-4.282-.753-8.635-1.144-13-1.144h-120c-41.355 0-75 33.645-75 75v52.673l-15.888-.343c-42.176-5.592-75.112-46.931-75.112-94.47 0-25.443 8.991-49.401 25.32-67.464 15.906-17.605 36.827-27.431 58.91-27.667 5.859-.063 11.146-3.532 13.536-8.882 20.895-46.784 62.732-75.847 109.184-75.847 37.188 0 71.909 18.762 95.261 51.475 3.974 5.566 11.21 7.74 17.591 5.286 10.238-3.935 20.974-5.931 31.908-5.931 55.3 0 100.29 50.283 100.29 112.09 0 29.362-10.674 57.375-28.657 78.072z"/><path d="m312 393h-112c-8.284 0-15 6.716-15 15s6.716 15 15 15h112c8.284 0 15-6.716 15-15s-6.716-15-15-15z"/><path d="m200 359h24c8.284 0 15-6.716 15-15s-6.716-15-15-15h-24c-8.284 0-15 6.716-15 15s6.716 15 15 15z"/><path d="m200 295h24c8.284 0 15-6.716 15-15s-6.716-15-15-15h-24c-8.284 0-15 6.716-15 15s6.716 15 15 15z"/></g></svg>