<svg id="Capa_1" enable-background="new 0 0 512 512" height="512" viewBox="0 0 512 512" width="512" xmlns="http://www.w3.org/2000/svg"><g><path d="m417.558 287.187-60.334-32.488c-9.385-5.054-20.453-4.808-29.606.658-9.154 5.467-14.618 15.096-14.618 25.756v74.258c0 11.195 6.16 21.377 16.077 26.573 4.394 2.302 9.172 3.441 13.933 3.441 5.983 0 11.94-1.8 17.066-5.348l60.335-41.771c8.65-5.988 13.464-15.834 12.877-26.338-.586-10.504-6.467-19.753-15.73-24.741zm-74.558 68.178v-74.251l60.332 32.49z"/><path d="m176 241h-96c-8.284 0-15 6.716-15 15s6.716 15 15 15h96c8.284 0 15-6.716 15-15s-6.716-15-15-15z"/><path d="m176 305h-96c-8.284 0-15 6.716-15 15s6.716 15 15 15h96c8.284 0 15-6.716 15-15s-6.716-15-15-15z"/><path d="m176 369h-96c-8.284 0-15 6.716-15 15s6.716 15 15 15h96c8.284 0 15-6.716 15-15s-6.716-15-15-15z"/><path d="m467 41h-422c-24.813 0-45 20.187-45 45v340c0 24.813 20.187 45 45 45h422c24.813 0 45-20.187 45-45v-340c0-24.813-20.187-45-45-45zm-422 30h422c8.271 0 15 6.729 15 15v83h-452v-83c0-8.271 6.729-15 15-15zm422 370h-422c-8.271 0-15-6.729-15-15v-227h452v227c0 8.271-6.729 15-15 15z"/><circle cx="80" cy="120" r="15"/><circle cx="144" cy="120.001" r="15"/><circle cx="208" cy="120" r="15"/></g></svg>