<svg id="Capa_1" enable-background="new 0 0 512 512" height="512" viewBox="0 0 512 512" width="512" xmlns="http://www.w3.org/2000/svg"><g><path d="m503 191c0-105.318-85.683-191-191-191-57.081 0-108.385 25.177-143.415 65h-114.585c-24.813 0-45 20.187-45 45v341c0 16.003 6.185 31.19 17.415 42.765 11.408 11.759 26.532 18.235 42.585 18.235h213c24.813 0 45-20.187 45-45v-85.587c98.333-7.675 176-90.143 176-190.413zm-449-96h92.936c-16.479 28.224-25.936 61.027-25.936 96 0 6.071.298 12.073.854 18h-33.854c-8.284 0-15 6.716-15 15s6.716 15 15 15h39.111c3.069 11.814 7.247 23.185 12.409 34h-51.52c-8.284 0-15 6.716-15 15s6.716 15 15 15h69.385c31.984 44.031 82.282 73.938 139.615 78.413v14.587h-228c-11.008 0-21.226 2.769-30 7.632v-293.632c0-8.271 6.729-15 15-15zm228 387h-213c-15.506 0-28.708-12.91-29.902-28.678.606-15.657 13.254-27.322 29.902-27.322h228v41c0 8.271-6.729 15-15 15zm30-130c-88.776 0-161-72.224-161-161s72.224-161 161-161c88.775 0 161 72.224 161 161s-72.225 161-161 161z"/><path d="m389.616 169.347c-6.892-36.58-39.063-64.347-77.616-64.347s-70.724 27.767-77.616 64.347c-23.276 2.786-41.384 22.638-41.384 46.653 0 25.916 21.084 47 47 47h32c8.284 0 15-6.716 15-15v-64c0-8.284-6.716-15-15-15h-6.643c6.352-19.702 24.855-34 46.643-34s40.291 14.298 46.643 34h-6.643c-8.284 0-15 6.716-15 15v64c0 8.284 6.716 15 15 15h32c25.916 0 47-21.084 47-47 0-24.015-18.108-43.867-41.384-46.653zm-132.616 63.653h-17c-9.374 0-17-7.626-17-17s7.626-17 17-17h17zm127 0h-17v-34h17c9.374 0 17 7.626 17 17s-7.626 17-17 17z"/></g></svg>