<svg id="Capa_1" enable-background="new 0 0 512 512" height="512" viewBox="0 0 512 512" width="512" xmlns="http://www.w3.org/2000/svg"><g><path d="m408 249h-192c-5.383 0-10.353 2.884-13.023 7.558l-50.095 87.665-27.466-54.931c-3.704-7.41-12.713-10.414-20.124-6.708-7.41 3.705-10.413 12.715-6.708 20.125l40 80c2.474 4.948 7.47 8.133 13 8.286.14.004.278.006.418.006 5.37 0 10.347-2.876 13.021-7.558l59.682-104.443h183.295c8.284 0 15-6.716 15-15s-6.716-15-15-15z"/><path d="m330.606 317.394c-5.857-5.858-15.355-5.858-21.213 0l-13.393 13.393-13.394-13.394c-5.857-5.858-15.355-5.858-21.213 0s-5.858 15.355 0 21.213l13.394 13.394-13.394 13.394c-5.858 5.858-5.858 15.355 0 21.213 2.929 2.929 6.768 4.393 10.607 4.393s7.678-1.464 10.606-4.394l13.394-13.393 13.394 13.394c2.928 2.929 6.767 4.393 10.606 4.393s7.678-1.464 10.606-4.394c5.858-5.858 5.858-15.355 0-21.213l-13.393-13.393 13.394-13.394c5.858-5.857 5.858-15.355-.001-21.212z"/><path d="m467 41h-422c-24.813 0-45 20.187-45 45v340c0 24.813 20.187 45 45 45h422c24.813 0 45-20.187 45-45v-340c0-24.813-20.187-45-45-45zm-422 30h422c8.271 0 15 6.729 15 15v83h-452v-83c0-8.271 6.729-15 15-15zm422 370h-422c-8.271 0-15-6.729-15-15v-227h452v227c0 8.271-6.729 15-15 15z"/><circle cx="80" cy="120.001" r="15"/><circle cx="144" cy="119.999" r="15"/><circle cx="208" cy="120.001" r="15"/></g></svg>