<svg id="Capa_1" enable-background="new 0 0 512 512" height="512" viewBox="0 0 512 512" width="512" xmlns="http://www.w3.org/2000/svg"><g><path d="m467 41h-422c-24.813 0-45 20.187-45 45v340c0 24.813 20.187 45 45 45h422c24.813 0 45-20.187 45-45v-340c0-24.813-20.187-45-45-45zm-422 30h422c8.271 0 15 6.729 15 15v83h-452v-83c0-8.271 6.729-15 15-15zm422 370h-108v-89c0-8.284-6.716-15-15-15s-15 6.716-15 15v89h-58v-57c0-8.284-6.716-15-15-15s-15 6.716-15 15v57h-58v-33c0-8.284-6.716-15-15-15s-15 6.716-15 15v33h-103.024l69.544-75.046 90.946-15.158c5.042-.84 9.308-4.189 11.321-8.887l20.104-46.909h70.109c1.612 0 3.214-.26 4.743-.77l28.644-9.548c-.995 4.397-.02 9.189 3.089 12.92 2.967 3.56 7.233 5.398 11.531 5.398 3.386 0 6.791-1.141 9.595-3.477l48-40c4.852-4.043 6.651-10.692 4.501-16.63s-7.788-9.893-14.103-9.893h-64c-8.284 0-15 6.716-15 15 0 3.566 1.25 6.838 3.329 9.412l-22.763 7.588h-77.566c-6 0-11.423 3.576-13.787 9.091l-20.769 48.461-87.91 14.651c-3.276.546-6.279 2.164-8.537 4.6l-70.997 76.615v-219.418h452v227c0 8.271-6.729 15-15 15z"/><circle cx="209.04" cy="120" r="15"/><circle cx="145.04" cy="120.002" r="15"/><circle cx="81.04" cy="120" r="15"/></g></svg>