<svg id="Capa_1" enable-background="new 0 0 512 512" height="512" viewBox="0 0 512 512" width="512" xmlns="http://www.w3.org/2000/svg"><g><path d="m497 233h-18v-144c0-16.542-13.458-30-30-30h-98c-16.542 0-30 13.458-30 30v144h-49-42.635c-3.029-14.534-9.96-29.003-18.041-42h45.676c16.542 0 30-13.458 30-30v-131c0-16.542-13.458-30-30-30h-194c-16.542 0-30 13.458-30 30v131c0 16.542 13.458 30 30 30h45.676c-8.081 12.997-15.013 27.466-18.041 42h-75.635c-8.284 0-15 6.716-15 15s6.716 15 15 15h18v234c0 8.284 6.716 15 15 15s15-6.716 15-15v-138h194v1 112c0 8.284 6.716 15 15 15h9v10c0 8.284 6.716 15 15 15s15-6.716 15-15v-10h114v10c0 8.284 6.716 15 15 15s15-6.716 15-15v-10h9c8.284 0 15-6.716 15-15v-112-97h18c8.284 0 15-6.716 15-15s-6.716-15-15-15zm-146-144h98v56h-98.012l-.007-55.999s.006-.001.019-.001zm-.008 86h98.008v58h-98zm-287.992-145h194v131h-194zm82.142 161h29.716c11.727 15.333 19.769 29.692 23.59 42h-76.895c3.821-12.308 11.862-26.667 23.589-42zm-82.142 138v-66h194v66zm386 128h-162v-194h162z"/></g></svg>