<svg id="Capa_1" enable-background="new 0 0 512 512" height="512" viewBox="0 0 512 512" width="512" xmlns="http://www.w3.org/2000/svg"><g><path d="m467 50h-422c-24.813 0-45 20.187-45 45v228c0 24.813 20.187 45 45 45h20v64c0 16.542 13.458 30 30 30h114c16.542 0 30-13.458 30-30v-64h228c24.813 0 45-20.187 45-45v-228c0-24.813-20.187-45-45-45zm-258 382h-114v-87c0-31.951 21.321-65 57-65s57 33.049 57 65zm-98-223c0-22.607 18.393-41 41-41s41 18.393 41 41-18.393 41-41 41-41-18.393-41-41zm371 114c0 8.271-6.729 15-15 15h-228.267c-1.472-21.162-9.523-41.832-22.632-57.592-5.545-6.666-11.837-12.311-18.708-16.862 15.635-13.035 25.607-32.646 25.607-54.546 0-39.149-31.851-71-71-71s-71 31.851-71 71c0 21.9 9.972 41.511 25.608 54.545-6.872 4.552-13.164 10.196-18.708 16.862-13.11 15.761-21.16 36.431-22.633 57.593h-20.267c-8.271 0-15-6.729-15-15v-228c0-8.271 6.729-15 15-15h422c8.271 0 15 6.729 15 15z"/><path d="m432 130h-80c-8.284 0-15 6.716-15 15s6.716 15 15 15h80c8.284 0 15-6.716 15-15s-6.716-15-15-15z"/><path d="m432 194h-80c-8.284 0-15 6.716-15 15s6.716 15 15 15h80c8.284 0 15-6.716 15-15s-6.716-15-15-15z"/><path d="m432 258h-80c-8.284 0-15 6.716-15 15s6.716 15 15 15h80c8.284 0 15-6.716 15-15s-6.716-15-15-15z"/><circle cx="288" cy="273" r="15"/><circle cx="288" cy="209" r="15"/><circle cx="288" cy="145.002" r="15"/></g></svg>