<svg id="Capa_1" enable-background="new 0 0 511.967 511.967" height="512" viewBox="0 0 511.967 511.967" width="512" xmlns="http://www.w3.org/2000/svg"><g><path d="m304.772 38.355c-8.912-5.508-19.821-5.998-29.188-1.313l-187.908 93.954c-5.505-6.358-13.626-10.392-22.676-10.392h-35c-16.542 0-30 13.458-30 30v218c0 16.542 13.458 30 30 30h35c9.222 0 17.482-4.186 22.989-10.753l188.378 87.461c4.046 1.879 8.357 2.809 12.651 2.809 5.617 0 11.203-1.591 16.121-4.73 8.679-5.539 13.86-14.993 13.86-25.289v-384.227c.001-10.474-5.318-20.014-14.227-25.52zm-239.772 330.249-34.999.019s-.001-.006-.001-.019v-218h35v1 216zm30-207.729 113-56.5v306.12l-113-52.465zm194 287.227-51-23.679v-335.048l51-25.5z"/><path d="m508.313 217.058c-6.562-37.862-19.637-63.308-20.19-64.372-3.82-7.35-12.878-10.212-20.228-6.392-7.351 3.821-10.212 12.877-6.392 20.228.464.891 45.794 90.139.003 178.159-3.823 7.349-.966 16.406 6.384 20.23 2.212 1.15 4.578 1.696 6.91 1.696 5.417 0 10.647-2.943 13.319-8.08 21.942-42.175 28.924-91.094 20.194-141.469z"/><path d="m366.121 201.652c-7.691 3.077-11.442 11.781-8.366 19.473.137.349 13.489 35.235.021 68.908-3.077 7.692.664 16.421 8.355 19.498 1.827.731 3.712 1.077 5.566 1.077 5.953 0 11.586-3.568 13.932-9.433 18.021-45.053.745-89.281 0-91.142-3.075-7.692-11.816-11.457-19.508-8.381z"/><path d="m419.39 177.693c-7.684 3.099-11.399 11.839-8.301 19.522.235.583 23.28 59.057 0 116.778-3.099 7.683.617 16.423 8.301 19.522 1.838.742 3.737 1.093 5.605 1.093 5.938 0 11.559-3.549 13.916-9.393 27.756-68.819 1.146-136.379 0-139.222-3.098-7.682-11.839-11.399-19.521-8.3z"/></g></svg>