<svg id="Capa_1" enable-background="new 0 0 512 512" height="512" viewBox="0 0 512 512" width="512" xmlns="http://www.w3.org/2000/svg"><g><path d="m497 199c8.284 0 15-6.716 15-15s-6.716-15-15-15h-34v-42h34c8.284 0 15-6.716 15-15s-6.716-15-15-15h-34v-3c0-24.813-20.187-45-45-45h-3v-34c0-8.284-6.716-15-15-15s-15 6.716-15 15v34h-42v-34c0-8.284-6.716-15-15-15s-15 6.716-15 15v34h-42v-34c0-8.284-6.716-15-15-15s-15 6.716-15 15v34h-42v-34c0-8.284-6.716-15-15-15s-15 6.716-15 15v34h-42v-34c0-8.284-6.716-15-15-15s-15 6.716-15 15v34h-3c-24.813 0-45 20.187-45 45v3h-34c-8.284 0-15 6.716-15 15s6.716 15 15 15h34v42h-34c-8.284 0-15 6.716-15 15s6.716 15 15 15h34v42h-34c-8.284 0-15 6.716-15 15s6.716 15 15 15h34v42h-34c-8.284 0-15 6.716-15 15s6.716 15 15 15h34v42h-34c-8.284 0-15 6.716-15 15s6.716 15 15 15h34v3c0 24.813 20.187 45 45 45h3v34c0 8.284 6.716 15 15 15s15-6.716 15-15v-34h42v34c0 8.284 6.716 15 15 15s15-6.716 15-15v-34h42v34c0 8.284 6.716 15 15 15s15-6.716 15-15v-34h42v34c0 8.284 6.716 15 15 15s15-6.716 15-15v-34h42v34c0 8.284 6.716 15 15 15s15-6.716 15-15v-34h3c24.813 0 45-20.187 45-45v-3h34c8.284 0 15-6.716 15-15s-6.716-15-15-15h-34v-42h34c8.284 0 15-6.716 15-15s-6.716-15-15-15h-34v-42h34c8.284 0 15-6.716 15-15s-6.716-15-15-15h-34v-42zm-64 219c0 8.271-6.729 15-15 15h-324c-8.271 0-15-6.729-15-15v-324c0-8.271 6.729-15 15-15h324c8.271 0 15 6.729 15 15z"/><path d="m317.254 225h-6.254v-82c0-16.542-13.458-30-30-30h-50c-16.542 0-30 13.458-30 30v82h-6.254c-10.838 0-20.863 5.872-26.165 15.325-5.303 9.453-5.085 21.07.566 30.319l61.254 100.233c5.494 8.99 15.063 14.357 25.599 14.357s20.104-5.368 25.598-14.357l61.256-100.234c5.65-9.248 5.868-20.865.565-30.318-5.302-9.453-15.327-15.325-26.165-15.325zm-61.256 130.229-61.247-100.229h21.249c8.284 0 15-6.716 15-15v-97h50v97c0 8.284 6.716 15 15 15l21.252.005z"/></g></svg>