<svg id="Capa_1" enable-background="new 0 0 512 512" height="512" viewBox="0 0 512 512" width="512" xmlns="http://www.w3.org/2000/svg"><g><path d="m458 145h-11v-4.279c0-19.282-7.306-37.607-20.572-51.601l-62.305-65.721c-14.098-14.87-33.936-23.399-54.428-23.399h-199.695c-24.813 0-45 20.187-45 45v100h-11c-24.813 0-45 20.187-45 45v180c0 24.813 20.187 45 45 45h11v52c0 24.813 20.187 45 45 45h292c24.813 0 45-20.187 45-45v-52h11c24.813 0 45-20.187 45-45v-180c0-24.813-20.187-45-45-45zm-363-100c0-8.271 6.729-15 15-15h199.695c12.295 0 24.198 5.117 32.657 14.04l62.305 65.721c7.96 8.396 12.343 19.391 12.343 30.96v4.279h-322zm322 422c0 8.271-6.729 15-15 15h-292c-8.271 0-15-6.729-15-15v-52h322zm56-97c0 8.271-6.729 15-15 15h-404c-8.271 0-15-6.729-15-15v-180c0-8.271 6.729-15 15-15h404c8.271 0 15 6.729 15 15z"/><path d="m158.954 209h-62.954c-8.284 0-15 6.716-15 15s6.716 15 15 15h16.35v98.993c0 8.284 6.716 15 15 15s15-6.716 15-15v-98.993h16.604c8.284 0 15-6.716 15-15s-6.716-15-15-15z"/><path d="m414.954 209h-62.954c-8.284 0-15 6.716-15 15s6.716 15 15 15h16.35v98.993c0 8.284 6.716 15 15 15s15-6.716 15-15v-98.993h16.604c8.284 0 15-6.716 15-15s-6.716-15-15-15z"/><path d="m274.349 276.954 31.219-44.315c4.771-6.772 3.148-16.13-3.624-20.901s-16.13-3.148-20.901 3.624l-25.029 35.528-24.988-35.521c-4.767-6.774-14.122-8.402-20.899-3.638-6.776 4.767-8.405 14.123-3.638 20.899l31.172 44.312-36.923 52.412c-4.771 6.772-3.148 16.13 3.624 20.901 2.626 1.85 5.64 2.738 8.625 2.738 4.714 0 9.355-2.216 12.276-6.362l30.733-43.625 30.684 43.618c2.921 4.151 7.564 6.37 12.282 6.37 2.981 0 5.993-.887 8.617-2.732 6.776-4.767 8.405-14.123 3.638-20.899z"/></g></svg>