<svg id="Capa_1" enable-background="new 0 0 512 512" height="512" viewBox="0 0 512 512" width="512" xmlns="http://www.w3.org/2000/svg"><g><path d="m467 .5h-422c-24.813 0-45 20.187-45 45v340c0 24.813 20.187 45 45 45h20v36c0 24.813 20.187 45 45 45h292c24.813 0 45-20.187 45-45v-36h20c24.813 0 45-20.187 45-45v-340c0-24.813-20.187-45-45-45zm-422 30h422c8.271 0 15 6.729 15 15v83h-452v-83c0-8.271 6.729-15 15-15zm205.356 195.53c.001 0 .001-.001.002-.001 3.662-1.499 7.695-1.496 11.356.001l145.966 59.726c5.661 2.316 9.319 7.766 9.319 13.883v4.861h-321.999v-4.857c0-6.118 3.659-11.568 9.321-13.884zm108.644 174.47v-66h58v66zm-88 0v-66h58v66zm-88 0v-66h58v66zm-30-66v66h-58v-66zm264 132c0 8.271-6.729 15-15 15h-292c-8.271 0-15-6.729-15-15v-36h322zm50-66h-20v-100.861c0-18.351-10.974-34.698-27.958-41.648l-145.966-59.726c-10.988-4.495-23.09-4.497-34.076-.002l-146.035 59.728c-16.988 6.947-27.965 23.297-27.965 41.652v100.857h-20c-8.271 0-15-6.729-15-15v-227h452v227c0 8.271-6.729 15-15 15z"/><circle cx="80.04" cy="79.498" r="15"/><circle cx="144.04" cy="79.498" r="15"/><circle cx="208.04" cy="79.501" r="15"/></g></svg>