<svg id="Capa_1" enable-background="new 0 0 512 512" height="512" viewBox="0 0 512 512" width="512" xmlns="http://www.w3.org/2000/svg"><g><path d="m487 288.801c0-27.337-11.337-53.637-31.924-74.057-4.974-4.935-10.411-9.446-16.229-13.499l-.087-30.95c-.099-33.578-13.388-64.912-38.43-90.615-21.216-21.775-49.159-37.77-81.33-46.705v-5.975c0-14.888-12.112-27-27-27h-72c-14.888 0-27 12.112-27 27v5.969c-32.154 8.985-60.916 25.457-81.927 47.104-25.163 25.925-38.412 57.486-38.313 91.271l.087 30.124c-5.702 3.997-11.037 8.431-15.923 13.277-20.587 20.419-31.924 46.719-31.924 74.056 0 61.646 57.185 111.799 127.475 111.799h.45c3.986 0 7.81-1.587 10.624-4.411 2.814-2.823 4.389-6.651 4.376-10.638l-.581-177.664c-.028-8.627-3.768-16.835-10.261-22.52-6.45-5.646-15.018-8.255-23.487-7.151-10.65 1.385-20.987 3.971-30.794 7.612l-.042-14.572c-.14-47.746 35.424-89.065 90.24-106.987v2.731c0 14.888 12.112 27 27 27h72c14.888 0 27-12.112 27-27v-2.71c54.258 17.823 89.621 58.782 89.76 106.092l.043 15.304c-9.691-3.563-19.892-6.103-30.4-7.47-8.474-1.104-17.037 1.505-23.486 7.151-6.493 5.685-10.232 13.893-10.261 22.52l-.581 177.665c-.013 3.986 1.562 7.814 4.376 10.638s6.638 4.411 10.624 4.411h.45c17.686 0 34.541-3.178 49.866-8.913l.009 3.134c.038 13.674-7.396 26.807-20.933 36.979-14.263 10.718-33.799 16.896-53.563 16.949l-31.904.013v-3.763c0-14.888-12.112-27-27-27h-40c-14.888 0-27 12.112-27 27v40c0 14.888 12.112 27 27 27h40c14.888 0 27-12.112 27-27v-6.237l31.951-.013c26.521-.072 51.927-8.229 71.538-22.966 21.289-15.996 32.977-37.677 32.911-61.049l-.056-18.834c29.039-20.509 47.656-51.931 47.656-87.1zm-349.656-80.82v.003l.529 161.699c-46.849-5.928-82.873-39.941-82.873-80.882 0-39.935 35.388-74.661 82.344-80.82zm85.656-143.981v-34h66v34zm50 418h-34v-34h34zm101.656-274.016s.001-.001.002-.003c46.952 6.159 82.342 40.885 82.342 80.82 0 40.942-36.024 74.955-82.873 80.884z"/></g></svg>