<svg id="Capa_1" enable-background="new 0 0 512 512" height="512" viewBox="0 0 512 512" width="512" xmlns="http://www.w3.org/2000/svg"><g><path d="m467 0h-422c-24.813 0-45 20.187-45 45v5c0 19.098 11.963 35.443 28.784 41.965-2.427 5.526-3.784 11.623-3.784 18.035v228c0 24.813 20.187 45 45 45h171v37.469c-18.58 6.276-32 23.86-32 44.531 0 25.916 21.084 47 47 47s47-21.084 47-47c0-20.671-13.42-38.255-32-44.531v-37.469h171c24.813 0 45-20.187 45-45v-228c0-6.412-1.357-12.509-3.784-18.035 16.821-6.522 28.784-22.867 28.784-41.965v-5c0-24.813-20.187-45-45-45zm-211 482c-9.374 0-17-7.626-17-17s7.626-17 17-17 17 7.626 17 17-7.626 17-17 17zm-226-437c0-8.271 6.729-15 15-15h422c8.271 0 15 6.729 15 15v5c0 8.271-6.729 15-15 15h-25-372-25c-8.271 0-15-6.729-15-15zm427 293c0 8.271-6.729 15-15 15h-372c-8.271 0-15-6.729-15-15v-228c0-8.271 6.729-15 15-15h372c8.271 0 15 6.729 15 15z"/><path d="m168 161c-43.561 0-79 35.439-79 79s35.439 79 79 79 79-35.439 79-79-35.439-79-79-79zm46.643 64h-31.643v-31.643c14.972 4.827 26.816 16.671 31.643 31.643zm-46.643 64c-27.019 0-49-21.981-49-49 0-21.788 14.297-40.291 34-46.643v46.643c0 8.284 6.716 15 15 15h46.643c-6.352 19.703-24.855 34-46.643 34z"/><path d="m413.621 205.688c-.249-.199-.508-.385-.76-.58 6.34-8.012 10.139-18.122 10.139-29.108 0-25.916-21.084-47-47-47s-47 21.084-47 47c0 10.999 3.808 21.119 10.16 29.134-11.144 8.607-18.16 21.049-18.16 34.866v64c0 8.284 6.716 15 15 15h80c8.284 0 15-6.716 15-15v-64c0-12.971-6.335-25.477-17.379-34.312zm-54.621-29.688c0-9.374 7.626-17 17-17s17 7.626 17 17-7.626 17-17 17-17-7.626-17-17zm42 113h-50v-49c0-9.056 11.683-17 25-17 7.143 0 14.023 2.229 18.88 6.113 2.285 1.829 6.12 5.675 6.12 10.887z"/></g></svg>