<svg id="Capa_1" enable-background="new 0 0 511.558 511.558" height="512" viewBox="0 0 511.558 511.558" width="512" xmlns="http://www.w3.org/2000/svg"><g><path d="m491.947 357.513c-12.801-14.575-30.713-22.602-50.436-22.602h-2.981c.004-3.389-.552-6.795-1.71-10.07-7.065-19.978-13.244-49.565-2.552-77.077 0 0 0 0 0-.001 3.588-9.231 2.39-19.623-3.203-27.797-5.594-8.175-14.847-13.055-24.752-13.055h-336.268c-41.242 0-70.045 32.486-70.045 79 0 22.927 6.853 42.652 19.819 57.045 12.755 14.158 30.592 21.955 50.227 21.955h5.21c.001 3.662.669 7.341 2.034 10.853 11.417 29.377 3.302 61.527-2.552 78.077-3.255 9.202-1.839 19.448 3.787 27.405 5.607 7.931 14.755 12.665 24.472 12.665h338.516c19.635 0 37.472-7.797 50.227-21.955 12.966-14.393 19.819-34.118 19.819-57.045-.001-22.943-6.783-42.791-19.612-57.398zm-461.947-71.602c0-29.767 15.719-49 40.045-49l336.277-.064c0 .001-.004.017-.017.05-14.025 36.087-6.527 73.183 2.231 97.948 0 0-.007.036-.013.066h-303.28-35.198c-24.326 0-40.045-19.233-40.045-49zm411.512 178-338.479-.003c-.005-.029-.012-.063-.012-.063 7.239-20.467 17.155-60.532 2.237-98.934h303.304 32.95c23.953 0 40.046 20.094 40.046 50 0 29.767-15.719 49-40.046 49z"/><path d="m344.738 285.911c0-8.284-6.716-15-15-15h-236.053c-8.284 0-15 6.716-15 15s6.716 15 15 15h236.054c8.283 0 14.999-6.715 14.999-15z"/><path d="m418.315 398.879h-236.054c-8.284 0-15 6.716-15 15s6.716 15 15 15h236.054c8.284 0 15-6.716 15-15s-6.715-15-15-15z"/><path d="m160.013 69.803c2.33 0 4.695-.545 6.905-1.693.891-.464 90.138-45.794 178.159-.003 7.351 3.827 16.407.967 20.229-6.384 3.823-7.35.966-16.406-6.384-20.229-42.174-21.94-91.095-28.923-141.469-20.193-37.862 6.562-63.308 19.637-64.372 20.19-7.351 3.821-10.212 12.877-6.392 20.228 2.673 5.14 7.905 8.084 13.324 8.084z"/><path d="m210.429 143.985c-7.692 3.076-11.458 11.815-8.381 19.508 2.347 5.867 7.968 9.441 13.917 9.441 1.85 0 3.731-.346 5.556-1.075.348-.137 35.236-13.488 68.908-.021 7.69 3.077 16.422-.664 19.498-8.355 3.077-7.692-.664-16.422-8.355-19.498-45.055-18.023-89.281-.744-91.143 0z"/><path d="m319.995 119.617c5.937 0 11.559-3.549 13.916-9.394 3.099-7.683-.617-16.423-8.3-19.521-68.821-27.757-136.38-1.146-139.222 0-7.67 3.094-11.374 11.807-8.297 19.484s11.803 11.408 19.488 8.351c.587-.235 59.467-23.142 116.809-.013 1.84.743 3.738 1.093 5.606 1.093z"/></g></svg>