<svg id="Capa_1" enable-background="new 0 0 512 512" height="512" viewBox="0 0 512 512" width="512" xmlns="http://www.w3.org/2000/svg"><g><path d="m467 37.059h-422c-24.813 0-45 20.187-45 45v260c0 24.813 20.187 45 45 45h260v65.353c0 8.738 4.896 16.513 12.775 20.29 3.134 1.501 6.464 2.239 9.768 2.239 5.005 0 9.948-1.693 14.051-4.991l26.406-21.219 26.405 21.219c6.812 5.475 15.939 6.526 23.819 2.752 7.88-3.777 12.775-11.552 12.775-20.29v-65.353h36c24.813 0 45-20.187 45-45v-260c.001-24.813-20.186-45-44.999-45zm-99 320c-35.841 0-65-29.159-65-65s29.159-65 65-65 65 29.159 65 65-29.159 65-65 65zm49-146.359c-14.316-8.654-31.086-13.641-49-13.641-52.383 0-95 42.617-95 95 0 .334.009.667.013 1h-123.607c-5.858-27.134-27.272-48.548-54.406-54.405v-53.189c27.134-5.857 48.547-27.271 54.406-54.405h213.189c5.857 27.134 27.271 48.548 54.405 54.405zm-39.604 207.096c-5.488-4.41-13.303-4.41-18.791 0l-23.605 18.967v-55.619c10.284 3.822 21.402 5.915 33 5.915s22.716-2.093 33-5.915v55.619zm104.604-75.737c0 8.271-6.729 15-15 15h-29.787c15.98-17.006 25.787-39.878 25.787-65 0-19.483-5.899-37.613-16-52.704v-67.296c0-8.284-6.716-15-15-15-22.607 0-41-18.393-41-41 0-8.284-6.716-15-15-15h-240c-8.284 0-15 6.716-15 15 0 22.607-18.393 41-41 41-8.284 0-15 6.716-15 15v80c0 8.284 6.716 15 15 15 22.607 0 41 18.393 41 41 0 8.284 6.716 15 15 15h142.199c4.426 12.785 11.51 24.339 20.588 34h-253.787c-8.271 0-15-6.729-15-15v-260c0-8.271 6.729-15 15-15h422c8.271 0 15 6.729 15 15z"/></g></svg>