<svg id="Capa_1" enable-background="new 0 0 512 512" height="512" viewBox="0 0 512 512" width="512" xmlns="http://www.w3.org/2000/svg"><g><path d="m467 83.005h-422c-24.813 0-45 20.187-45 45v68c0 24.813 20.187 45 45 45h134.679l-9.49 64.548c-1.578 10.736 2.784 21.519 11.384 28.138 8.601 6.618 20.14 8.075 30.112 3.801l5.686-2.436 33.116 77.29c3.152 7.355 9.719 12.957 18.018 15.368 2.947.856 6.031 1.28 9.107 1.28 4.367-.001 8.72-.854 12.647-2.537l44.121-18.905c15.444-6.618 23.329-24.263 17.217-38.529l-33.118-77.29 5.684-2.436c9.976-4.274 16.88-13.634 18.02-24.426.935-8.85-2.129-17.562-8.146-23.866h132.963c24.813 0 45-20.187 45-45v-68c0-24.813-20.187-45-45-45zm-422 128c-8.271 0-15-6.729-15-15v-68c0-8.271 6.729-15 15-15h324v98h-76.437l-58.374-41.251c-8.581-6.067-19.473-7.215-29.129-3.077-9.659 4.139-16.338 12.815-17.866 23.212l-3.104 21.116zm278.364 168.299c-.237.287-.544.564-.799.673l-44.121 18.905c-.255.108-.663.141-1.039.114l-38.366-89.543c-3.263-7.616-12.082-11.143-19.695-7.881l-19.472 8.343 17.008-115.66 95.464 67.469-19.467 8.342c-7.614 3.263-11.143 12.08-7.88 19.695zm158.636-183.299c0 8.271-6.729 15-15 15h-68v-98h68c8.271 0 15 6.729 15 15z"/></g></svg>