<svg id="Capa_1" enable-background="new 0 0 512 512" height="512" viewBox="0 0 512 512" width="512" xmlns="http://www.w3.org/2000/svg"><g><path d="m467 212.483h-179.079c-15.822-42.022-56.433-72-103.921-72s-88.099 29.978-103.921 72h-35.079c-24.813 0-45 20.187-45 45v132c0 24.813 20.187 45 45 45h20v42c0 8.284 6.716 15 15 15s15-6.716 15-15v-42h322v42c0 8.284 6.716 15 15 15s15-6.716 15-15v-42h20c24.813 0 45-20.187 45-45v-132c0-24.813-20.187-45-45-45zm-283-42c44.663 0 81 36.337 81 81s-36.337 81-81 81-81-36.337-81-81 36.337-81 81-81zm298 219c0 8.271-6.729 15-15 15h-422c-8.271 0-15-6.729-15-15v-132c0-8.271 6.729-15 15-15h28.366c-.239 2.969-.366 5.97-.366 9 0 61.206 49.794 111 111 111s111-49.794 111-111c0-3.03-.127-6.031-.366-9h172.366c8.271 0 15 6.729 15 15z"/><path d="m184 298.483c25.916 0 47-21.084 47-47s-21.084-47-47-47-47 21.084-47 47 21.084 47 47 47zm0-64c9.374 0 17 7.626 17 17s-7.626 17-17 17-17-7.626-17-17 7.626-17 17-17z"/><path d="m88.013 72.674c2.33 0 4.695-.545 6.905-1.693.892-.464 90.138-45.793 178.159-.003 7.352 3.826 16.408.967 20.229-6.384 3.823-7.35.966-16.406-6.384-20.229-42.175-21.941-91.096-28.923-141.469-20.193-37.862 6.562-63.308 19.637-64.372 20.19-7.351 3.821-10.212 12.877-6.392 20.228 2.673 5.139 7.905 8.084 13.324 8.084z"/><path d="m114.39 93.572c-7.684 3.099-11.399 11.839-8.301 19.521s11.839 11.397 19.521 8.301c.585-.234 59.059-23.28 116.779 0 1.839.741 3.737 1.093 5.605 1.093 5.938 0 11.559-3.549 13.916-9.394 3.099-7.683-.617-16.423-8.301-19.521-68.817-27.756-136.377-1.145-139.219 0z"/><path d="m424 276.483h-48c-8.284 0-15 6.716-15 15s6.716 15 15 15h48c8.284 0 15-6.716 15-15s-6.716-15-15-15z"/><circle cx="344" cy="355.481" r="15"/><circle cx="424" cy="355.481" r="15"/></g></svg>