<svg id="Capa_1" enable-background="new 0 0 512 512" height="512" viewBox="0 0 512 512" width="512" xmlns="http://www.w3.org/2000/svg"><g><path d="m416 0h-320c-8.284 0-15 6.716-15 15s6.716 15 15 15h91.62v100.413c-45.629 24.882-74.62 73.153-74.62 125.587 0 61.333 38.925 115.306 96 135.098v75.902c0 24.813 20.187 45 45 45h4c24.813 0 45-20.187 45-45v-75.902c57.073-19.79 96-73.763 96-135.098 0-27.329-7.74-53.899-22.383-76.838-12.517-19.609-29.549-35.811-49.617-47.302v-101.86h38.509v47.109c0 8.284 6.716 15 15 15s15-6.716 15-15v-47.109h20.491c8.284 0 15-6.716 15-15s-6.716-15-15-15zm-158 482h-4c-8.271 0-15-6.729-15-15v-69.016c5.629.667 11.306 1.016 17 1.016s11.371-.349 17-1.016v69.016c0 8.271-6.729 15-15 15zm111-226c0 51.597-34.846 96.602-84.735 109.442-4.353 1.119-8.789 1.964-13.265 2.552l-.115-62.585c3.875-.785 7.706-1.86 11.449-3.265l42.933-16.1c5.855-2.194 9.733-7.791 9.733-14.044v-24c0-8.284-6.716-15-15-15s-15 6.716-15 15v13.604l-33.2 12.45c-10.188 3.82-21.412 3.82-31.601 0l-33.199-12.45v-13.604c0-8.284-6.716-15-15-15s-15 6.716-15 15v24c0 6.253 3.878 11.85 9.733 14.045l42.932 16.1c3.67 1.376 7.423 2.437 11.219 3.218l.116 62.631c-4.475-.588-8.91-1.433-13.261-2.551-49.893-12.841-84.739-57.846-84.739-109.443 0-39.442 20.766-75.897 53.865-96.274 5.194 4.508 12.16 7.274 19.811 7.274h81.268c7.123 0 13.651-2.398 18.71-6.365 32.578 20.619 52.346 56.1 52.346 95.365zm-72-119h-79.38v-107h79.38z"/></g></svg>