<svg id="Capa_1" enable-background="new 0 0 512 512" height="512" viewBox="0 0 512 512" width="512" xmlns="http://www.w3.org/2000/svg"><g><path d="m412 81h-101v-51c0-16.542-13.458-30-30-30h-73c-15.75 0-29.964 6.665-40 17.31-10.036-10.645-24.25-17.31-40-17.31h-73c-16.542 0-30 13.458-30 30v187c0 16.542 13.458 30 30 30h113 65v190c0 41.355 33.645 75 75 75h104c41.355 0 75-33.645 75-75v-281c0-41.355-33.645-75-75-75zm-204-51h73l.007 65.871c0 .043-.007.085-.007.129s.006.086.007.13l.005 48.627c-33.531.065-72.065 4.333-98.011 20.216v-109.973c-.001-13.785 11.214-25 24.999-25zm-80 0c13.785 0 25 11.215 25 25v109.974c-25.944-15.881-64.476-20.15-98-20.217v-114.757zm-73 144.754c43.237.086 75.514 7.681 89.656 21.345 5.693 5.501 8.344 11.824 8.344 19.901v1h-98zm128 41.246c0-8.077 2.651-14.4 8.344-19.901 14.144-13.666 46.423-21.257 89.671-21.344l.004 42.244s-.006.001-.019.001h-98zm98 31c16.542 0 30-13.458 30-30v-106h101c24.813 0 45 20.187 45 45v197h-194v-106zm131 235h-104c-24.813 0-45-20.187-45-45v-54h194v54c0 24.813-20.187 45-45 45z"/><circle cx="360" cy="431.999" r="15"/></g></svg>