<svg id="Capa_1" enable-background="new 0 0 512 512" height="512" viewBox="0 0 512 512" width="512" xmlns="http://www.w3.org/2000/svg"><g><path d="m431 171.5c0-94.565-78.505-171.5-175-171.5s-175 76.935-175 171.5c0 75.743 50.368 140.166 120 162.814v122.686c0 30.327 24.673 55 55 55s55-24.673 55-55v-122.686c69.632-22.648 120-87.071 120-162.814zm-150 285.5c0 13.785-11.215 25-25 25s-25-11.215-25-25v-115.758c8.168 1.15 16.512 1.758 25 1.758s16.832-.607 25-1.758zm-10-144.754v-77.555c2.32-.485 4.627-1.068 6.911-1.775l62.527-19.368c6.28-1.945 10.562-7.754 10.562-14.328v-31.22c0-8.284-6.716-15-15-15s-15 6.716-15 15v20.163l-51.966 16.097c-4.241 1.313-8.606 1.984-12.976 2.018-.02 0-.039-.003-.059-.003-.038 0-.074.005-.112.006-4.404.017-8.811-.617-13.099-1.903l-51.788-15.538v-20.84c0-8.284-6.716-15-15-15s-15 6.716-15 15v32c0 6.624 4.345 12.464 10.69 14.367l62.48 18.744c2.259.678 4.539 1.234 6.83 1.695v77.439c-72.932-7.348-130-67.665-130-140.746 0-78.022 65.047-141.499 145-141.499s145 63.477 145 141.5c0 73.081-57.068 133.398-130 140.746z"/><path d="m448.008 71c3.386 0 6.791-1.14 9.595-3.477l48-40c6.364-5.304 7.225-14.762 1.921-21.126-5.304-6.366-14.764-7.226-21.126-1.921l-48 40c-6.364 5.304-7.225 14.762-1.921 21.126 2.966 3.561 7.233 5.398 11.531 5.398z"/><path d="m6.398 27.523 48 40c2.804 2.337 6.208 3.477 9.594 3.477 4.297 0 8.565-1.838 11.531-5.397 5.303-6.364 4.443-15.822-1.921-21.126l-48-40c-6.362-5.302-15.822-4.443-21.125 1.92-5.304 6.365-4.444 15.823 1.921 21.126z"/><path d="m57.967 283.822-50.725 36.483c-6.726 4.837-8.256 14.211-3.419 20.936 2.931 4.075 7.527 6.243 12.19 6.243 3.033 0 6.095-.917 8.746-2.823l50.725-36.482c6.726-4.837 8.256-14.211 3.419-20.936-4.838-6.726-14.211-8.258-20.936-3.421z"/><path d="m504.758 320.305-50.726-36.482c-6.725-4.836-16.098-3.306-20.936 3.42-4.837 6.725-3.306 16.099 3.42 20.936l50.726 36.482c2.65 1.906 5.712 2.823 8.745 2.823 4.663 0 9.26-2.168 12.19-6.243 4.838-6.725 3.306-16.099-3.419-20.936z"/></g></svg>