<svg id="Capa_1" enable-background="new 0 0 512 512" height="512" viewBox="0 0 512 512" width="512" xmlns="http://www.w3.org/2000/svg"><g><path d="m425.496 64.381c-39.483-41.518-91.282-64.382-145.855-64.381-52.816.001-99.2 19.305-134.138 55.823-32.467 33.938-52.563 81.237-56.688 133.354-4.532 9.128-31.553 43.006-54.963 70.314-.463.539-.886 1.11-1.268 1.71-8.789 13.812-9.612 30.117-2.202 43.617 7.624 13.89 22.321 22.182 39.311 22.182 1.157 0 2.31-.134 3.436-.398l10.93-2.572 14.723 71.626c.487 13.494 6.86 25.845 17.655 34.09 10.868 8.3 24.568 11.185 37.795 8.001l54.413-5.234v34.487c0 24.813 20.187 45 45 45h116c24.813 0 45-20.187 45-45l.003-94.073c46.639-40.095 72.783-97.879 71.979-159.68-.711-54.5-22.992-108.76-61.131-148.866zm-35.231 289.803c-3.552 2.847-5.618 7.151-5.618 11.703l-.003 101.113c0 8.271-6.729 15-15 15h-116c-8.271 0-15-6.729-15-15v-51c0-4.229-1.784-8.26-4.914-11.103-2.772-2.52-6.373-3.897-10.085-3.897-.478 0-.958.022-1.438.069l-72 6.926c-.848.081-1.688.235-2.511.459-4.545 1.242-9.305.311-13.052-2.551-3.746-2.861-5.895-7.206-5.895-11.92 0-1.015-.103-2.026-.308-3.021l-18.106-88.09c-.815-3.969-3.202-7.438-6.617-9.62-3.415-2.183-7.569-2.886-11.511-1.961l-24.021 5.652c-5.192-.387-9.429-2.777-11.506-6.562-2.002-3.646-1.732-7.985.743-12.298 3.246-3.807 15.884-18.688 28.442-34.325 31.951-39.78 32.369-45.57 32.738-50.68 7.046-97.539 71.762-163.076 161.038-163.078 94.642-.002 175.692 84.094 176.987 183.638.716 54.935-23.473 106.162-66.363 140.546z"/><path d="m280.385 88.999c-.771 0-1.547.01-2.32.027-51.415 1.216-93.003 44.071-92.707 95.531.119 20.569 6.711 40.109 19.061 56.509 13.503 17.929 20.938 40.269 20.938 62.903v8.031c0 30.327 24.673 55 55 55s55-24.673 55-55v-7.006c0-23.37 7.395-46.019 20.822-63.774 12.546-16.591 19.178-36.377 19.178-57.22 0-25.801-10.167-49.939-28.628-67.969-17.902-17.484-41.382-27.032-66.344-27.032zm24.972 223.001c0 13.785-11.215 25-25 25s-25-11.215-25-25v-8.03c0-.323-.018-.646-.02-.97h50.06c-.01.665-.04 1.328-.04 1.994zm26.894-88.876c-11.039 14.597-18.905 31.685-23.177 49.876h-57.363c-4.263-18.051-12.181-35.179-23.329-49.98-8.44-11.207-12.944-24.567-13.025-38.636-.203-35.211 28.245-64.533 63.416-65.365.531-.013 1.061-.02 1.589-.02 17.087 0 33.157 6.533 45.405 18.494 12.633 12.337 19.59 28.854 19.59 46.507 0 14.258-4.532 27.787-13.106 39.124z"/></g></svg>